<svg width="79" height="79" viewBox="0 0 79 79" fill="none" xmlns="http://www.w3.org/2000/svg">
<path d="M75.7787 40.0194C77.5445 61.2089 60.4371 76.0194 40.2787 76.0194C20.1204 76.0194 3.77875 56.2823 3.77875 35.0194C3.77875 13.7564 19.7787 3.51929 40.2787 2.01936C51.2494 1.21666 73.7787 16.0194 75.7787 40.0194Z" fill="#E6F4FF"/>
<path d="M54.3051 67.5275C51.5301 68.3773 48.4742 68.7602 45.3896 68.5988C36.8439 68.1744 28.4368 63.6982 22.224 56.4761C10.5739 42.7621 10.1223 23.2682 21.2659 12.8044C26.0903 8.2853 32.5718 6.02377 39.4491 6.40612C47.9948 6.83052 56.4019 11.3068 62.6147 18.5289C74.226 32.1164 74.7163 51.7367 63.5728 62.2006C60.884 64.6831 57.7107 66.4845 54.3051 67.5275ZM30.9208 8.74149C27.6413 9.74589 24.7202 11.47 22.245 13.7489C11.6546 23.7667 12.1263 42.425 23.3305 55.5842C29.3398 62.5921 37.3784 66.7664 45.5458 67.3067C52.1321 67.6399 58.2352 65.4943 62.7198 61.2175C73.3102 51.1996 72.8385 32.5414 61.6343 19.3822C55.6251 12.3742 47.5864 8.19989 39.4191 7.65961C36.3732 7.62466 33.5695 7.93028 30.9208 8.74149Z" fill="#0095FC"/>
<path d="M54.3824 67.7804C51.4813 68.6688 48.5516 69.0131 45.3408 68.8904C36.6302 68.3782 28.2232 63.9019 22.0104 56.6798C10.1955 42.8781 9.79263 23.0928 21.0623 12.5904C25.8866 8.07123 32.4555 5.64467 39.4977 6.11479C48.0822 6.66559 56.6153 11.1032 62.8281 18.3254C74.6043 32.0007 75.0072 51.786 63.7762 62.4148C60.9613 64.936 57.788 66.7374 54.3824 67.7804ZM30.9981 8.99438C27.8448 9.96008 24.9237 11.6843 22.4485 13.9631C11.9456 23.816 12.3785 42.3478 23.5053 55.2542C29.3497 62.1744 37.3883 66.3487 45.517 66.7626C51.9772 67.1344 57.9541 65.0274 62.4388 60.7506C72.9417 50.8978 72.5088 32.3659 61.382 19.4595C55.5376 12.5394 47.4989 8.36501 39.3703 7.95113C36.3244 7.91618 33.5207 8.2218 30.9981 8.99438Z" fill="#0095FC"/>
<path d="M58.0164 18.831C57.7642 18.9083 57.4732 18.8591 57.3958 18.6063C52.433 13.2135 44.7815 10.3031 37.5445 10.9987C37.1274 10.9882 36.9238 10.7741 36.8077 10.3949C36.8177 9.97697 37.0312 9.77337 37.4096 9.65747C45.0638 8.97237 53.045 12.0583 58.3761 17.7531C58.5797 17.9672 58.5697 18.3851 58.3948 18.7151C58.1426 18.7924 58.0164 18.831 58.0164 18.831Z" fill="#0095FC"/>
<path d="M13.3981 13.693C13.0197 13.8089 12.5639 13.672 12.3217 13.3314C12.0407 12.8645 12.012 12.3203 12.4778 12.0393C13.5455 11.021 14.7782 10.0905 16.0108 9.15997L21.1448 5.65206C21.6494 5.49754 22.2313 5.59582 22.5123 6.06279C22.7933 6.52976 22.6958 7.11262 22.23 7.39353C21.0848 8.15903 19.9783 9.05087 18.9106 10.0692L18.7844 10.1079L13.6504 13.6158C13.5243 13.6544 13.5243 13.6544 13.3981 13.693Z" fill="#0095FC"/>
<path d="M56.3094 72.7202C53.03 73.7246 49.4308 74.1356 45.803 74.0024C35.8023 73.3323 25.9504 68.1925 18.6424 59.6467C5.08291 43.7525 4.54643 20.8282 17.612 8.53138C23.2032 3.3627 30.7812 0.627109 38.9098 1.041C48.8717 1.5847 58.7624 6.8509 66.0316 15.2703C79.5911 31.1645 80.1276 54.0888 67.062 66.3856C63.9461 69.2754 60.3457 71.4841 56.3094 72.7202ZM18.9107 10.0692C6.69928 21.5514 7.26588 43.2222 20.176 58.3475C27.0769 66.4649 36.4343 71.3414 45.9791 71.8746C53.5645 72.3166 60.5118 69.7742 65.802 64.9741C78.0133 53.492 77.573 31.7826 64.6242 16.5308C57.7233 8.41341 48.3659 3.53692 38.8211 3.00374C31.2744 2.68813 24.1621 5.14279 18.9107 10.0692Z" fill="#0095FC"/>
<path d="M51.1365 76.102C38.6493 79.9263 23.6559 75.1168 13.5082 63.1548C-0.0512218 47.2606 -0.587751 24.3363 12.4778 12.0395L12.604 12.0009L17.738 8.49295C18.2038 8.21203 18.7858 8.31031 19.028 8.65085C19.309 9.11785 19.3377 9.66205 18.8719 9.94295C6.69931 21.5516 7.26586 43.2224 20.1759 58.3477C31.7873 71.9352 49.9726 75.9054 62.4436 67.5236C62.9095 67.2427 63.4914 67.341 63.7724 67.8079C64.0534 68.2749 63.9559 68.8578 63.4901 69.1387L58.3561 72.6466C56.0657 74.1776 53.6592 75.3294 51.1365 76.102ZM12.7962 14.4306C1.49657 26.1866 2.37402 47.0708 14.9157 61.8942C25.1895 73.8176 40.4839 78.2584 52.574 73.5879C41.0097 75.4705 27.8597 70.373 18.6423 59.6469C7.03102 46.0594 4.97829 27.1941 12.7962 14.4306Z" fill="#0095FC"/>
<path d="M9.90879 23.4719C8.86101 23.6545 7.93937 23.7985 6.85288 23.8548C6.43577 23.8442 6.23222 23.6301 6.11609 23.2509C6.12609 22.833 6.33964 22.6294 6.71804 22.5135C7.67839 22.4959 8.60004 22.3519 9.52168 22.2079C9.90008 22.092 10.2685 22.3939 10.3459 22.6467C10.462 23.0259 10.161 23.3946 9.90879 23.4719Z" fill="#0095FC"/>
<path d="M9.41907 29.9817L9.29293 30.0203C7.91547 30.0274 6.57672 30.1609 5.32539 30.1294C4.90828 30.1189 4.66601 29.7783 4.71472 29.4869C4.55988 28.9813 4.89957 28.739 5.31668 28.7495C6.69414 28.7424 7.94547 28.7739 9.28422 28.6404C9.70133 28.6509 9.90489 28.8651 10.021 29.2443C9.84618 29.5744 9.67133 29.9044 9.41907 29.9817Z" fill="#0095FC"/>
<path d="M9.58886 36.8423C7.74558 37.1303 5.98971 37.2533 4.27256 37.5027C3.85545 37.4921 3.6519 37.278 3.53577 36.8988C3.54577 36.4809 3.75932 36.2773 4.13772 36.1614C5.89358 36.0384 7.61073 35.789 9.32788 35.5396C9.70628 35.4238 10.0747 35.7257 10.0647 36.1435C10.1421 36.3963 9.96726 36.7264 9.58886 36.8423Z" fill="#0095FC"/>
<path d="M11.4169 44.1631L5.53738 45.6873C5.15898 45.8031 4.82929 45.6276 4.71316 45.2484C4.59703 44.8692 4.77187 44.5392 5.15027 44.4233L11.0298 42.8991C11.4082 42.7832 11.7379 42.9588 11.854 43.338C11.9702 43.7172 11.7953 44.0472 11.4169 44.1631Z" fill="#0095FC"/>
<path d="M8.52932 53.2044C8.15092 53.3203 7.82123 53.1447 7.74381 52.8919C7.62768 52.5127 7.80252 52.1827 8.01608 51.979C9.70452 51.1854 11.2668 50.4304 12.7904 49.549C13.1301 49.3068 13.4598 49.4823 13.702 49.8229C13.9443 50.1634 13.7695 50.4935 13.4298 50.7358C11.9062 51.6172 10.2178 52.4108 8.52932 53.2044Z" fill="#0095FC"/>
<path d="M12.1047 59.0223C11.8525 59.0995 11.5615 59.0504 11.3579 58.8362C11.1157 58.4957 11.1644 58.2042 11.3392 57.8742L15.348 54.2961C15.6877 54.0538 15.9787 54.1029 16.3084 54.2785C16.5506 54.6191 16.5019 54.9105 16.3271 55.2405L12.3183 58.8186C12.2309 58.9836 12.1047 59.0223 12.1047 59.0223Z" fill="#0095FC"/>
<path d="M16.5529 64.9873C16.3006 65.0645 16.0096 65.0154 15.8061 64.8012C15.5638 64.4607 15.6125 64.1692 15.9135 63.8005L20.0872 60.3102C20.4269 60.068 20.7178 60.1171 21.0862 60.419C21.3285 60.7596 21.2798 61.051 20.9788 61.4197L16.8051 64.91C16.8051 64.91 16.679 64.9487 16.5529 64.9873Z" fill="#0095FC"/>
<path d="M21.9239 69.0108C21.6717 69.088 21.5068 69.0003 21.342 68.9125C21.0123 68.737 21.0223 68.3191 21.1971 67.9891L23.9546 64.3795C24.1295 64.0494 24.5466 64.0599 24.8763 64.2355C25.206 64.411 25.196 64.8288 25.0211 65.1589L22.2636 68.7685C22.1762 68.9335 22.0501 68.9722 21.9239 69.0108Z" fill="#0095FC"/>
<path d="M27.0242 72.1496C26.898 72.1882 26.607 72.1391 26.4422 72.0513C26.1125 71.8758 25.9964 71.4966 26.2974 71.1279L28.3368 67.8764C28.5116 67.5464 28.89 67.4305 29.2584 67.7324C29.5881 67.908 29.7042 68.2872 29.4033 68.6559L27.3638 71.9073C27.2764 72.0723 27.1503 72.111 27.0242 72.1496Z" fill="#0095FC"/>
<path d="M32.6776 74.8422C32.5515 74.8809 32.4253 74.9195 32.2605 74.8317C31.9308 74.6562 31.8147 74.277 31.9895 73.9469C32.4753 72.8304 32.9612 71.7138 33.447 70.5972C33.6218 70.2672 33.9615 70.0249 34.2912 70.2004C34.6209 70.3759 34.8632 70.7165 34.6883 71.0466C34.2412 72.2895 33.7554 73.4061 33.2696 74.5227C33.0173 74.5999 32.9299 74.765 32.6776 74.8422Z" fill="#0095FC"/>
<path d="M38.2835 76.0287C38.1574 76.0673 37.8664 76.0182 37.7015 75.9304C37.3718 75.7549 37.2557 75.3757 37.4306 75.0456C37.9551 74.0555 38.4796 73.0653 38.7132 72.026C38.888 71.6959 39.2277 71.4536 39.5574 71.6292C39.8871 71.8047 40.1294 72.1453 39.9545 72.4753C39.5948 73.5533 39.109 74.6699 38.4583 75.6987C38.5358 75.9515 38.4096 75.9901 38.2835 76.0287Z" fill="#0095FC"/>
<path d="M43.5311 76.4955C43.405 76.5341 43.279 76.5728 43.1141 76.485C42.7844 76.3095 42.5422 75.9689 42.717 75.6388L43.4364 73.4829C43.6112 73.1529 43.9509 72.9107 44.2806 73.0862C44.6103 73.2618 44.8525 73.6023 44.6776 73.9324L43.9583 76.0882C43.8708 76.2532 43.7834 76.4182 43.5311 76.4955Z" fill="#0095FC"/>
<path d="M36.8144 20.9823C38.4416 20.4571 39.9844 20.135 41.4429 20.0161C42.9339 19.8867 44.4381 19.929 45.9556 20.143L45.7166 26.1847C44.4239 26.0741 43.256 26.0464 42.2129 26.1016C41.1573 26.1256 40.1089 26.3057 39.0675 26.6419C38.0911 26.957 37.252 27.3862 36.5501 27.9295C35.8684 28.4311 35.3238 29.0467 34.9165 29.7764C34.5092 30.5061 34.2492 31.329 34.1365 32.2451C34.0563 33.1507 34.1234 34.1495 34.3378 35.2416L43.9546 32.1373L45.556 36.1598L35.5974 39.3743C35.6471 39.4991 35.6991 39.6758 35.7534 39.9046C35.8279 40.0917 35.921 40.3256 36.0327 40.6062C36.1196 40.8245 36.2127 41.0583 36.312 41.3078C36.3989 41.5261 36.5083 41.7547 36.6402 41.9936L45.0854 39.2676L46.7054 43.3368L38.6507 45.9368C39.3952 47.0689 40.2605 47.9508 41.2465 48.5826C42.2527 49.1728 43.3634 49.518 44.5786 49.6184C45.814 49.6771 47.1313 49.4806 48.5308 49.0289C49.7674 48.6297 50.8793 48.1476 51.8664 47.5827C52.8736 46.9761 53.7684 46.3178 54.5508 45.6077L56.8784 51.4544C56.1409 52.1851 55.2461 52.8434 54.194 53.4293C53.1868 54.036 51.9347 54.5809 50.4376 55.0641C47.8991 55.8835 45.4635 56.177 43.1307 55.9448C40.7855 55.6813 38.6206 54.9021 36.6361 53.6073C34.6516 52.3125 32.9474 50.5225 31.5235 48.2374L28.2527 49.2932L26.6327 45.2239L29.4641 44.31C29.3695 44.1646 29.2501 43.9568 29.1058 43.6867C28.9941 43.406 28.8948 43.1566 28.8079 42.9383C28.7085 42.6889 28.6154 42.455 28.5286 42.2367C28.4417 42.0184 28.3897 41.8417 28.3725 41.7065L25.59 42.6046L23.9886 38.5821L27.1617 37.5579C26.5917 34.9268 26.6038 32.5124 27.198 30.3149C27.7922 28.1173 28.9119 26.2251 30.5573 24.6383C32.1902 23.0204 34.2759 21.8017 36.8144 20.9823Z" fill="#0095FC"/>
</svg>
