<svg width="61" height="61" viewBox="0 0 61 61" fill="none" xmlns="http://www.w3.org/2000/svg">
<g clip-path="url(#clip0_166_131)">
<ellipse cx="30" cy="30.5" rx="29" ry="28.5" fill="#E6F9EE"/>
<path d="M48.2 37.1002C48.1 37.1002 48 37.1002 47.9 37.0002C47.4 36.8002 47.1 36.3002 47.3 35.7002C49 30.6002 48.1 24.8002 45 20.5002C44.7 20.1002 44.8 19.4002 45.2 19.1002C45.6 18.8002 46.3 18.9002 46.6 19.3002C50.1 24.1002 51.1 30.7002 49.2 36.3002C49 36.8002 48.6 37.1002 48.2 37.1002Z" fill="#00C657"/>
<path d="M2.20002 35.8002C1.90002 35.8002 1.60002 35.7002 1.40002 35.4002C1.10002 35.0002 1.20002 34.3002 1.60002 34.0002L4.10002 32.1002C4.50002 31.8002 5.20002 31.9002 5.50002 32.3002C5.80002 32.7002 5.70002 33.4002 5.30002 33.7002L2.80002 35.6002C2.60002 35.7002 2.40002 35.8002 2.20002 35.8002Z" fill="#00C657"/>
<path d="M4.7 40.9001C4.5 40.9001 4.2 40.8001 4.1 40.7001C3.7 40.3001 3.6 39.7 4 39.3L6 36.9001C6.4 36.5001 7 36.4 7.4 36.8C7.8 37.2 7.9 37.8001 7.5 38.2001L5.4 40.6001C5.3 40.8001 5 40.9001 4.7 40.9001Z" fill="#00C657"/>
<path d="M8.39993 46.3001C8.19993 46.3001 7.99993 46.2001 7.79993 46.1001C7.29993 45.8001 7.19993 45.2001 7.49993 44.7001L9.69993 41.4001C9.99993 40.9001 10.5999 40.8001 11.0999 41.1001C11.5999 41.4001 11.6999 42.0001 11.3999 42.5001L9.19993 45.8001C8.99993 46.2001 8.69993 46.3001 8.39993 46.3001Z" fill="#00C657"/>
<path d="M12.5 51.7C12.3 51.7 12.2 51.7 12 51.6C11.5 51.3 11.4 50.7 11.6 50.2L13.7 46.5C14 46 14.6 45.9 15.1 46.1C15.6 46.4 15.7 47 15.5 47.5L13.4 51.2C13.2 51.5 12.9 51.7 12.5 51.7Z" fill="#00C657"/>
<path d="M17.6999 54.9001C17.4999 54.9001 17.3999 54.9001 17.1999 54.8001C16.6999 54.5001 16.5999 53.9001 16.7999 53.4001L18.6999 50.1001C18.9999 49.6001 19.5999 49.5001 20.0999 49.7001C20.5999 50.0001 20.6999 50.6001 20.4999 51.1001L18.5999 54.4001C18.3999 54.7001 17.9999 54.9001 17.6999 54.9001Z" fill="#00C657"/>
<path d="M22.5 57.0001C22.4 57.0001 22.2 57.0001 22.1 56.9001C21.6 56.7001 21.4 56.1001 21.6 55.6001L22.9 52.9001C23.1 52.4001 23.7 52.2001 24.2 52.4001C24.7 52.6001 24.9 53.2001 24.7 53.7001L23.4 56.4001C23.2 56.8001 22.9 57.0001 22.5 57.0001Z" fill="#00C657"/>
<path d="M27.2 58.8002C27.1 58.8002 26.9 58.8002 26.8 58.7002C26.3 58.5002 26 57.9002 26.3 57.4002L27.9 53.6002C28.1 53.1002 28.7 52.8002 29.2 53.1002C29.7 53.3002 30 53.9002 29.7 54.4002L28.1 58.2002C28 58.6002 27.6 58.8002 27.2 58.8002Z" fill="#00C657"/>
<path d="M32.8 59.3001C32.7 59.3001 32.7 59.3001 32.6 59.3001C32.1 59.2001 31.7 58.7001 31.8 58.2001L32.2 55.6001C32.3 55.1001 32.8 54.7001 33.3 54.8001C33.8 54.9001 34.2 55.4001 34.1 55.9001L33.7 58.5001C33.7 58.9001 33.3 59.3001 32.8 59.3001Z" fill="#00C657"/>
<path d="M37.2 58.9C36.6 58.8 36.2 58.4 36.2 57.8L36.4 55.4C36.5 54.9 36.9 54.5 37.5 54.5C38 54.6 38.5 55 38.4 55.6L38.2 58C38.1 58.5 37.7 58.9 37.2 58.9Z" fill="#00C657"/>
<path d="M41.7999 57.9001C41.2999 57.9001 40.7999 57.5001 40.7999 56.9001V55.4001C40.7999 54.8001 41.1999 54.4001 41.7999 54.4001C42.2999 54.4001 42.7999 54.8001 42.7999 55.4001V56.9001C42.7999 57.4001 42.3999 57.9001 41.7999 57.9001Z" fill="#00C657"/>
<path d="M35.4 55.9C21.8 55.9 8.50001 46.3 4.50001 32.8C2.30001 25.4 3.20001 18.1 7.00001 12C10.7 6.19997 16.7 2.29997 23.9 1.19997C38.9 -1.10003 54.7 9.09997 59.1 24C61.3 31.4 60.4 38.7 56.6 44.7C52.9 50.5 46.9 54.4 39.7 55.5C38.2 55.8 36.8 55.9 35.4 55.9ZM28.2 3.49997C26.9 3.49997 25.6 3.59997 24.3 3.79997C17.8 4.79997 12.4 8.19997 9.10001 13.4C5.70001 18.8 4.90001 25.4 6.90001 32.1C11 45.8 25.5 55.2 39.3 53.1C45.8 52.1 51.2 48.7 54.5 43.5C57.9 38.1 58.7 31.5 56.7 24.8C53 12.4 40.7 3.49997 28.2 3.49997Z" fill="#00C657"/>
<path d="M32.1 60.3001C18.5 60.3001 5.19998 50.7001 1.19998 37.2001C-1.20002 29.2001 0.0999837 21.1001 4.79998 14.9001L7.99998 10.5001C8.39998 10.0001 9.19998 9.90002 9.79998 10.3001C10.4 10.7001 10.5 11.5001 9.99998 12.1001C5.79998 17.6001 4.69998 24.9001 6.79998 32.2001C10.9 45.9001 25.4 55.3001 39.2 53.2001C45 52.3001 50.1 49.4001 53.4 44.9001C53.8 44.3001 54.6 44.2001 55.2 44.7001C55.8 45.1001 55.9 45.9001 55.4 46.5001L52.1 50.8001C48.4 55.8001 42.7 59.0001 36.2 60.0001C34.9 60.2001 33.5 60.3001 32.1 60.3001ZM3.29998 23.3001C2.19998 27.4001 2.19998 32.0001 3.59998 36.5001C7.69998 50.2001 22.2 59.6001 36 57.5001C39.1 57.0001 42.1 55.9001 44.6 54.4001C43 55.0001 41.4 55.4001 39.7 55.7001C24.7 58.0001 8.89998 47.8001 4.49998 32.9001C3.49998 29.6001 3.09998 26.4001 3.29998 23.3001Z" fill="#00C657"/>
<path d="M29.2159 14.1081C30.4859 13.8934 31.6709 13.8209 32.771 13.8907C33.8964 13.9563 35.0131 14.1512 36.121 14.4755L35.2864 18.953C34.3348 18.7302 33.4673 18.5827 32.6838 18.5105C31.8944 18.4137 31.0933 18.434 30.2805 18.5715C29.5185 18.7003 28.8464 18.9291 28.2642 19.2578C27.7015 19.5576 27.2287 19.9573 26.8459 20.457C26.463 20.9566 26.1798 21.5418 25.9962 22.2124C25.838 22.8787 25.7795 23.6305 25.8207 24.4678L33.3264 23.1987L34.083 26.371L26.3107 27.6852C26.3341 27.7836 26.3537 27.921 26.3693 28.0974C26.4045 28.245 26.4485 28.4294 26.5013 28.6507C26.5424 28.8229 26.5864 29.0073 26.6333 29.2041C26.6744 29.3762 26.731 29.5585 26.8034 29.7509L33.3946 28.6364L34.1601 31.8456L27.8736 32.9086C28.3056 33.8333 28.8547 34.5847 29.5211 35.1628C30.207 35.712 30.9974 36.09 31.8923 36.2969C32.8068 36.4748 33.8101 36.4715 34.9023 36.2868C35.8675 36.1236 36.7486 35.8851 37.5458 35.5712C38.3624 35.2284 39.1009 34.8349 39.7613 34.3907L40.8611 39.0016C40.232 39.4662 39.4935 39.8597 38.6456 40.1821C37.8289 40.5249 36.8364 40.795 35.668 40.9926C33.6868 41.3276 31.8394 41.2818 30.1258 40.8552C28.4063 40.404 26.8772 39.588 25.5386 38.4073C24.2 37.2266 23.1242 35.7072 22.3111 33.8491L19.7584 34.2808L18.9929 31.0716L21.2027 30.6979C21.148 30.5793 21.0815 30.4114 21.0033 30.1944C20.9505 29.9731 20.9036 29.7763 20.8626 29.6042C20.8156 29.4074 20.7716 29.223 20.7306 29.0509C20.6895 28.8787 20.67 28.7413 20.6719 28.6387L18.5002 29.0059L17.7436 25.8335L20.2201 25.4148C20.081 23.3916 20.3523 21.5933 21.034 20.0198C21.7156 18.4463 22.7559 17.1575 24.1547 16.1535C25.5476 15.1249 27.2347 14.4431 29.2159 14.1081Z" fill="#00C657"/>
</g>
<defs>
<clipPath id="clip0_166_131">
<rect width="61" height="61" fill="white"/>
</clipPath>
</defs>
</svg>
