<svg width="97" height="97" viewBox="0 0 97 97" fill="none" xmlns="http://www.w3.org/2000/svg">
<path d="M92.991 50.4922C92.991 77.278 73.8438 95.9922 48.991 95.9922C24.1382 95.9922 5.49097 71.778 5.49097 44.9922C5.49097 18.2064 24.1382 1.49219 48.991 1.49219C73.8438 1.49219 92.991 23.7064 92.991 50.4922Z" fill="#FFE9E9"/>
<path d="M36.8086 10.6226C53.5489 2.31772 74.4329 12.1174 83.2174 32.3811C92.002 52.6448 85.5379 75.7321 68.6318 84.0369C51.8915 92.3417 31.0075 82.5421 22.223 62.2784C13.4384 42.1808 20.0683 18.9273 36.8086 10.6226ZM70.1235 62.2784C71.118 59.1225 70.7865 55.8006 69.129 52.1465C67.4716 48.3263 65.3169 46.001 62.4992 44.8383C59.6815 43.6756 56.0351 43.1773 51.3942 43.1773C48.908 43.1773 47.0848 42.8452 45.7589 42.3469C44.5986 41.6825 43.6042 40.5198 42.7754 38.8589C41.9467 37.1979 41.781 35.5369 42.1125 34.2082C42.444 32.7133 43.2727 31.7167 44.7644 31.0523C46.2561 30.388 47.7478 30.388 49.0738 31.3845C50.5655 32.3811 51.7257 34.0421 52.8859 36.5335L60.3445 32.8794V32.7133C58.687 28.5609 56.3666 25.7373 53.3832 24.0763C50.5655 22.4154 47.4163 22.0832 44.1014 23.0797L41.118 16.2698L37.1401 17.9308L40.1235 24.7407C37.1401 26.7339 35.1511 29.2253 34.3224 32.5472C33.4937 35.703 33.6594 39.0249 35.3169 42.6791C36.9743 46.4993 39.129 48.9907 41.9467 50.1534C44.7644 51.316 48.4108 51.8143 53.0517 51.6482C55.3721 51.6482 57.1953 51.9804 58.5213 52.6448C59.8473 53.3092 60.8417 54.4719 61.5047 56.2989C62.3335 57.9599 62.4992 59.6208 62.002 61.1157C61.6705 62.6106 60.676 63.6071 59.0185 64.4376C57.3611 65.2681 55.7036 65.2681 54.0462 64.6037C52.3887 63.9393 51.0627 62.1123 49.7368 59.2886L42.2782 62.9428V63.1089C44.2672 67.7595 46.7533 70.7493 49.9025 72.078C53.0517 73.4068 56.3666 73.4068 59.8473 72.2441L62.4992 78.5558L66.6428 76.5626L63.9909 70.251C67.1401 67.9256 69.129 65.4342 70.1235 62.2784Z" fill="#FFE9E9"/>
<path d="M26.6981 8.13097C26.2008 8.13097 25.7036 7.79879 25.5378 7.3005C25.3721 6.63612 25.5378 5.97172 26.2008 5.80563C27.8583 4.97515 29.6815 4.31077 31.5047 3.64639L38.9633 1.32104C39.6262 1.32104 40.2892 1.65323 40.455 2.31761C40.6207 2.982 40.2892 3.64638 39.6262 3.81248C37.9688 4.31076 36.3113 4.97515 34.6539 5.80563H34.4881L27.0296 8.13097C26.8638 8.13097 26.8638 8.13097 26.6981 8.13097Z" fill="#FF2726"/>
<path d="M56.0351 87.8569C52.3887 87.8569 48.5765 87.1926 44.9301 85.8638C34.8196 82.2097 26.3666 73.7388 21.5599 62.7765C12.6096 42.0145 19.2395 18.4289 36.4771 9.958C43.9356 6.30389 52.5544 5.9717 60.676 8.96143C70.7865 12.6155 79.2395 21.0864 84.0461 32.0487C92.9964 52.6446 86.3666 76.3963 69.129 84.8672C64.9854 86.8604 60.5102 87.8569 56.0351 87.8569ZM49.571 8.62924C45.2616 8.62924 41.118 9.62581 37.3058 11.4528C20.897 19.5915 14.5986 42.1806 23.2174 62.1121C27.8583 72.7422 35.9798 80.7148 45.5931 84.3689C53.3831 87.1926 61.5047 86.8604 68.466 83.3724C84.8749 75.2337 91.1732 52.6446 82.5544 32.7131C77.9135 22.083 69.792 14.1104 60.1787 10.4563C56.5323 9.29362 53.0517 8.62924 49.571 8.62924Z" fill="#FF2726"/>
<path d="M56.0351 88.1892C52.2229 88.1892 48.5765 87.5249 44.7644 86.1961C34.4881 82.3759 26.0351 73.905 21.2285 62.9427C12.1124 42.0146 18.908 18.0968 36.3113 9.62591C43.7699 5.9718 52.5544 5.47351 60.8417 8.62933C70.9522 12.4495 79.571 20.9204 84.3776 31.8827C93.4936 52.6447 86.6981 76.5625 69.2948 85.1995C64.9854 87.1927 60.5102 88.1892 56.0351 88.1892ZM49.571 8.96152C45.4274 8.96152 41.2837 9.9581 37.4716 11.7851C21.2285 19.7577 14.9301 42.1807 23.5489 61.78C28.024 72.244 36.1456 80.2166 45.7588 83.7047C53.3832 86.5283 61.339 86.1961 68.3003 82.7081C84.5434 74.7355 90.8417 52.3125 82.2229 32.7132C77.7478 22.2492 69.6262 14.2766 60.013 10.7886C56.3666 9.62591 52.8859 8.96152 49.571 8.96152Z" fill="#FF2726"/>
<path d="M78.4107 30.72C78.0792 30.72 77.7477 30.5539 77.7477 30.2217C73.7698 21.9169 65.6482 15.6052 56.698 13.7782C56.2007 13.6121 56.035 13.2799 56.035 12.7816C56.2007 12.2833 56.5322 12.1172 57.0294 12.1172C66.477 14.1104 74.93 20.7542 79.2394 29.5573C79.4051 29.8895 79.2394 30.3878 78.9079 30.72C78.5764 30.72 78.4107 30.72 78.4107 30.72Z" fill="#FF2726"/>
<path d="M31.8362 4.97524L39.2948 2.6499C37.6373 3.14819 35.8141 3.81257 34.1566 4.64305L26.6981 6.96839C28.3555 6.13791 30.013 5.47353 31.8362 4.97524Z" fill="#FF2726"/>
<path d="M56.5323 94.8331C52.2229 94.8331 47.7478 94.0026 43.4384 92.5077C31.6704 88.0231 21.7257 78.2235 16.0903 65.268C5.64831 41.1841 13.4384 13.4461 33.6594 3.48029C42.2782 -0.672112 52.3887 -1.17039 62.0019 2.31762C73.7699 6.63611 83.7146 16.6019 89.35 29.3913C99.792 53.4752 92.0019 81.2132 71.7809 91.179C66.9743 93.5043 61.8362 94.8331 56.5323 94.8331ZM34.6539 5.80563C15.7588 15.107 8.46599 41.3502 18.4108 64.2714C23.7146 76.5625 33.1622 85.8639 44.4329 90.0163C53.3831 93.3382 62.6649 92.8399 70.7865 89.0197C89.6815 79.7183 97.1401 53.4752 87.1953 30.3879C81.8914 18.0968 72.4439 8.79536 61.1732 4.64296C52.2229 1.48714 42.7754 1.81933 34.6539 5.80563Z" fill="#FF2726"/>
<path d="M49.0738 96.9922C32.6649 96.9922 16.4218 85.6977 8.6318 67.5932C-1.81019 43.5093 5.97987 15.7713 26.2008 5.80556H26.3666L33.8251 3.48022C34.4881 3.31412 35.1511 3.64632 35.3168 4.1446C35.4826 4.80899 35.3168 5.47337 34.6539 5.63947C15.7588 15.1069 8.46605 41.3501 18.4108 64.2713C27.361 84.8672 47.7478 96.3278 65.8141 90.8467C66.4771 90.6806 67.1401 91.0128 67.3058 91.6771C67.4715 92.3415 67.1401 93.0059 66.4771 93.172L59.0185 95.4973C55.7036 96.4939 52.3887 96.9922 49.0738 96.9922ZM25.7036 8.79529C7.80307 18.7611 1.17323 44.1737 10.7865 66.5967C18.7423 84.7011 35.4826 95.6634 51.7257 94.5008C37.1401 92.5076 23.2174 81.5453 16.0903 65.2679C7.14009 44.672 11.6152 21.2525 25.7036 8.79529Z" fill="#FF2726"/>
<path d="M18.908 18.5952C17.582 18.4291 16.4218 18.263 15.0959 17.9308C14.5986 17.7647 14.4329 17.4325 14.4329 16.9342C14.5986 16.4359 14.9301 16.2698 15.4273 16.2698C16.5876 16.602 17.7478 16.7681 18.908 16.9342C19.4052 16.9342 19.7367 17.4325 19.7367 17.7647C19.7367 18.263 19.2395 18.5952 18.908 18.5952Z" fill="#FF2726"/>
<path d="M15.9246 26.2355H15.7588C14.1014 25.7372 12.4439 25.405 10.9522 24.9067C10.455 24.7406 10.2892 24.2423 10.455 23.9101C10.455 23.2457 10.9522 23.0796 11.4495 23.2457C13.1069 23.744 14.5986 24.2423 16.2561 24.5745C16.7533 24.7406 16.9191 25.0728 16.9191 25.5711C16.5876 25.9033 16.2561 26.2355 15.9246 26.2355Z" fill="#FF2726"/>
<path d="M13.6041 34.5403C11.2836 34.2081 9.12896 33.7098 6.97426 33.3776C6.47702 33.2115 6.31128 32.8793 6.31128 32.381C6.47702 31.8827 6.80851 31.7166 7.30575 31.7166C9.46045 32.2149 11.6151 32.5471 13.7698 32.8793C14.267 32.8793 14.5985 33.3776 14.4328 33.8759C14.4328 34.2081 14.1013 34.5403 13.6041 34.5403Z" fill="#FF2726"/>
<path d="M13.1069 44.0077L5.48254 43.6755C4.9853 43.6755 4.65381 43.3433 4.65381 42.8451C4.65381 42.3469 4.9853 42.0146 5.48254 42.0146L13.1069 42.3468C13.6041 42.3468 13.9356 42.679 13.9356 43.1772C13.9356 43.6755 13.6041 44.0077 13.1069 44.0077Z" fill="#FF2726"/>
<path d="M6.31127 53.8075C5.81403 53.8075 5.48254 53.4753 5.48254 53.1431C5.48254 52.6448 5.81403 52.3126 6.14552 52.1465C8.46596 51.8143 10.6207 51.4821 12.7754 50.9839C13.2726 50.8178 13.6041 51.1499 13.7698 51.6482C13.9356 52.1465 13.6041 52.4787 13.1069 52.6448C10.9522 53.1431 8.63171 53.4753 6.31127 53.8075Z" fill="#FF2726"/>
<path d="M8.46602 62.1123C8.13453 62.1123 7.80304 61.9462 7.63729 61.614C7.47155 61.1157 7.63729 60.7835 7.96878 60.4513L14.1014 57.6277C14.5986 57.4616 14.9301 57.6277 15.2616 57.9599C15.4273 58.4582 15.2616 58.7904 14.9301 59.1226L8.79751 61.9462C8.63177 62.1123 8.46602 62.1123 8.46602 62.1123Z" fill="#FF2726"/>
<path d="M11.6151 70.9152C11.2836 70.9152 10.9521 70.7491 10.7864 70.4169C10.6207 69.9186 10.7864 69.5864 11.2836 69.2542L17.5819 66.5967C18.0792 66.4306 18.4107 66.5967 18.7422 67.095C18.9079 67.5933 18.7422 67.9254 18.2449 68.2576L11.9466 70.9152C11.9466 70.9152 11.7809 70.9152 11.6151 70.9152Z" fill="#FF2726"/>
<path d="M16.5876 77.7252C16.2561 77.7252 16.0903 77.5591 15.9246 77.393C15.5931 77.0608 15.7588 76.5625 16.0903 76.2303L20.7312 72.9084C21.0627 72.5762 21.5599 72.7423 21.8914 73.0745C22.2229 73.4067 22.0572 73.905 21.7257 74.2372L17.0848 77.5591C16.9191 77.7252 16.7533 77.7252 16.5876 77.7252Z" fill="#FF2726"/>
<path d="M21.5598 83.3725C21.3941 83.3725 21.0626 83.2064 20.8969 83.0403C20.5654 82.7081 20.5654 82.2098 21.0626 81.8776L24.709 78.7218C25.0405 78.3896 25.5377 78.3896 25.8692 78.8879C26.2007 79.2201 26.2007 79.7184 25.7035 80.0505L22.0571 83.2064C21.8913 83.3725 21.7256 83.3725 21.5598 83.3725Z" fill="#FF2726"/>
<path d="M27.361 88.6876C27.1952 88.6876 27.0295 88.6876 26.8637 88.5215C26.5322 88.1893 26.5322 87.691 26.8637 87.3589C27.8582 86.1962 28.8527 85.0335 29.8471 83.8708C30.1786 83.5387 30.6759 83.3726 31.0074 83.7048C31.3388 84.0369 31.5046 84.5352 31.1731 84.8674C30.1786 86.1962 29.1842 87.3589 28.1897 88.5215C27.8582 88.5215 27.6924 88.6876 27.361 88.6876Z" fill="#FF2726"/>
<path d="M33.6594 92.1755C33.4936 92.1755 33.1622 92.0094 32.9964 91.8433C32.6649 91.5112 32.6649 91.0129 32.9964 90.6807C33.9909 89.6841 34.9854 88.6875 35.6483 87.5248C35.9798 87.1927 36.4771 87.0266 36.8086 87.3587C37.1401 87.6909 37.3058 88.1892 36.9743 88.5214C36.1456 89.6841 35.1511 90.8468 33.9909 91.8433C33.9909 92.1755 33.8251 92.1755 33.6594 92.1755Z" fill="#FF2726"/>
<path d="M39.7919 94.667C39.6261 94.667 39.4604 94.667 39.2946 94.5009C38.9632 94.1687 38.7974 93.6705 39.1289 93.3383L40.7864 91.0129C41.1179 90.6807 41.6151 90.5146 41.9466 90.8468C42.2781 91.179 42.4438 91.6773 42.1123 92.0094L40.4549 94.3348C40.2891 94.5009 40.1234 94.667 39.7919 94.667Z" fill="#FF2726"/>
<path d="M46.7708 25.8483C48.7874 24.9072 50.7037 24.2536 52.5196 23.8874C54.3758 23.5025 56.2526 23.3485 58.1501 23.4256L57.9959 31.6552C56.3812 31.6868 54.9242 31.8133 53.6247 32.0347C52.3091 32.2155 51.0059 32.6071 49.7152 33.2094C48.5052 33.7741 47.4691 34.4742 46.6068 35.3097C45.7686 36.0859 45.1042 36.9976 44.6136 38.0446C44.1231 39.0917 43.8185 40.2446 43.6997 41.5032C43.6213 42.743 43.7287 44.0885 44.0221 45.5399L55.9405 39.9779L58.0332 45.2098L45.6913 50.9694C45.7562 51.1316 45.8253 51.3641 45.8985 51.6668C45.9959 51.9101 46.1175 52.2143 46.2635 52.5793C46.3771 52.8632 46.4988 53.1674 46.6285 53.4918C46.7421 53.7757 46.8839 54.0705 47.0541 54.3761L57.5205 49.4918L59.6376 54.7845L49.6551 59.443C50.6105 60.8741 51.7105 61.949 52.9552 62.6676C54.224 63.3268 55.6172 63.6392 57.135 63.6047C58.6769 63.5108 60.315 63.0592 62.0493 62.2498C63.582 61.5346 64.957 60.7244 66.1745 59.8194C67.416 58.855 68.5161 57.8363 69.4749 56.7632L72.5167 64.3676C71.6145 65.4624 70.5143 66.4812 69.2162 67.4239C67.9747 68.3883 66.4263 69.3034 64.5709 70.1692C61.425 71.6373 58.3947 72.3776 55.4802 72.3902C52.5494 72.3622 49.8312 71.6093 47.3256 70.1316C44.8201 68.6538 42.6522 66.4649 40.8222 63.565L36.7687 65.4566L34.6517 60.1639L38.1606 58.5264C38.0392 58.3424 37.8853 58.0774 37.699 57.7312C37.5529 57.3662 37.4232 57.0417 37.3096 56.7578C37.1798 56.4334 37.0581 56.1292 36.9446 55.8453C36.831 55.5614 36.762 55.3289 36.7374 55.1479L33.2889 56.7571L31.1962 51.5253L35.1287 49.6901C34.3552 46.2009 34.3127 42.9239 35.0014 39.8593C35.69 36.7947 37.0413 34.0705 39.0552 31.6868C41.053 29.2626 43.6248 27.3164 46.7708 25.8483Z" fill="#FF2726"/>
</svg>
