<svg width="247" height="40" viewBox="0 0 247 40" fill="none" xmlns="http://www.w3.org/2000/svg">
<rect x="1" y="1" width="38" height="38" rx="19" fill="#D9F6E6"/>
<rect x="1" y="1" width="38" height="38" rx="19" stroke="#00C657" stroke-width="2"/>
<path opacity="0.2" d="M27.2835 22.9868L23.3058 26.9645L16.9415 25.3734L11.3728 21.3958L14.6226 14.8953L20.1237 13.4404L25.6248 14.8953L25.6526 15.0315H21.7147L17.1742 19.4358C17.0898 19.5201 17.0255 19.6224 16.986 19.735C16.9464 19.8476 16.9328 19.9677 16.946 20.0863C16.9591 20.2049 16.9988 20.319 17.0621 20.4202C17.1254 20.5214 17.2106 20.6071 17.3115 20.6708C19.0527 21.7836 21.4164 21.707 23.3058 19.8047L27.2835 22.9868Z" fill="#00C657"/>
<path d="M32.683 18.6025L30.1452 13.5251C30.0517 13.3382 29.9223 13.1715 29.7645 13.0347C29.6066 12.8978 29.4232 12.7933 29.225 12.7273C29.0267 12.6613 28.8174 12.635 28.609 12.6499C28.4005 12.6647 28.1971 12.7205 28.0102 12.814L25.5371 14.0501L20.3273 12.6718C20.1937 12.6371 20.0533 12.6371 19.9196 12.6718L14.7099 14.0501L12.2368 12.814C12.0499 12.7205 11.8464 12.6647 11.638 12.6499C11.4296 12.635 11.2202 12.6613 11.022 12.7273C10.8237 12.7933 10.6404 12.8978 10.4825 13.0347C10.3246 13.1715 10.1952 13.3382 10.1017 13.5251L7.56398 18.6016C7.47046 18.7884 7.41467 18.9919 7.39979 19.2003C7.38491 19.4088 7.41124 19.6181 7.47726 19.8163C7.54328 20.0146 7.64772 20.1979 7.78459 20.3558C7.92147 20.5137 8.08811 20.6431 8.27499 20.7366L10.9599 22.08L16.4779 26.0209C16.5593 26.0788 16.6506 26.1209 16.7474 26.1452L23.1117 27.7363C23.245 27.7697 23.3847 27.768 23.5171 27.7314C23.6495 27.6948 23.7702 27.6246 23.8675 27.5274L29.3437 22.0502L31.971 20.7366C32.3481 20.5478 32.6349 20.2169 32.7682 19.8167C32.9016 19.4166 32.8705 18.9798 32.682 18.6025H32.683ZM27.2246 21.9209L23.8028 19.1803C23.6495 19.0575 23.4562 18.9958 23.2602 19.007C23.0641 19.0182 22.8791 19.1015 22.7408 19.241C20.9697 21.025 18.9958 20.7992 17.7369 20.0037L22.0367 15.8271H25.2L27.9058 21.2378L27.2246 21.9209ZM11.5247 14.2361L13.5603 15.2524L11.0176 20.3289L8.986 19.3136L11.5247 14.2361ZM23.06 26.0826L17.2814 24.6387L12.3889 21.1443L15.1733 15.5755L20.1235 14.2639L21.098 14.5215L16.6231 18.8651L16.6152 18.874C16.4467 19.0425 16.3183 19.2466 16.2392 19.4713C16.1602 19.6961 16.1327 19.9357 16.1586 20.1725C16.1846 20.4093 16.2634 20.6372 16.3892 20.8395C16.5151 21.0418 16.6847 21.2132 16.8857 21.3412C18.9302 22.6468 21.3973 22.435 23.3404 20.844L26.09 23.0526L23.06 26.0826ZM29.2254 20.3279L26.6876 15.2563L28.7222 14.2361L31.261 19.3136L29.2254 20.3279ZM20.4994 29.5431C20.4564 29.7151 20.3572 29.8677 20.2176 29.9769C20.078 30.0861 19.9059 30.1455 19.7287 30.1458C19.6633 30.1457 19.5982 30.1377 19.5348 30.1219L15.391 29.0857C15.2941 29.0618 15.2027 29.0196 15.1216 28.9614L12.5013 27.0899C12.3402 26.9634 12.234 26.7796 12.205 26.5769C12.176 26.3741 12.2264 26.1679 12.3455 26.0013C12.4647 25.8347 12.6436 25.7205 12.8448 25.6825C13.0461 25.6445 13.2543 25.6855 13.4261 25.7972L15.9231 27.5811L19.9246 28.5795C20.1292 28.6307 20.3052 28.7611 20.4137 28.942C20.5222 29.1229 20.5545 29.3395 20.5033 29.5441L20.4994 29.5431Z" fill="#00C657"/>
<path d="M53.4803 24.779V21.5469H50.2482V19.8492H53.4803V16.6171H55.178V19.8492H58.4101V21.5469H55.178V24.779H53.4803ZM61.0803 25.5952V15.8662H59.7172L60.1825 14.1686H62.778V25.5952H61.0803ZM69.0074 25.8074C68.3327 25.8074 67.7233 25.6551 67.1791 25.3504C66.6404 25.0402 66.1752 24.6131 65.7834 24.0689C65.3917 23.5248 65.0924 22.8963 64.8856 22.1835C64.6789 21.4653 64.5755 20.6981 64.5755 19.8819C64.5755 19.0657 64.6789 18.2985 64.8856 17.5802C65.0924 16.862 65.3917 16.2335 65.7834 15.6948C66.1752 15.1507 66.6404 14.7263 67.1791 14.4216C67.7233 14.1114 68.3327 13.9563 69.0074 13.9563C69.6712 13.9563 70.2752 14.1114 70.8193 14.4216C71.3635 14.7263 71.826 15.1507 72.2069 15.6948C72.5932 16.2335 72.8897 16.862 73.0965 17.5802C73.3033 18.2985 73.4067 19.0657 73.4067 19.8819C73.4067 20.6981 73.3033 21.4653 73.0965 22.1835C72.8897 22.8963 72.5932 23.5248 72.2069 24.0689C71.826 24.6131 71.3635 25.0402 70.8193 25.3504C70.2752 25.6551 69.6712 25.8074 69.0074 25.8074ZM69.0074 24.1097C69.6331 24.1097 70.1528 23.9139 70.5663 23.5221C70.9853 23.1249 71.2982 22.6052 71.5049 21.9632C71.7117 21.3211 71.8151 20.6273 71.8151 19.8819C71.8151 19.0983 71.7063 18.3883 71.4886 17.7516C71.2764 17.1096 70.9608 16.6008 70.5418 16.2254C70.1283 15.8445 69.6168 15.654 69.0074 15.654C68.5231 15.654 68.1014 15.7683 67.7423 15.9968C67.3886 16.2254 67.0948 16.5382 66.8608 16.9354C66.6323 17.3327 66.4582 17.7843 66.3385 18.2903C66.2242 18.7964 66.1671 19.3269 66.1671 19.8819C66.1671 20.6273 66.2732 21.3211 66.4854 21.9632C66.6976 22.6052 67.0132 23.1249 67.4322 23.5221C67.8566 23.9139 68.3817 24.1097 69.0074 24.1097ZM78.5084 25.8074C77.8336 25.8074 77.2242 25.6551 76.6801 25.3504C76.1414 25.0402 75.6762 24.6131 75.2844 24.0689C74.8926 23.5248 74.5934 22.8963 74.3866 22.1835C74.1798 21.4653 74.0764 20.6981 74.0764 19.8819C74.0764 19.0657 74.1798 18.2985 74.3866 17.5802C74.5934 16.862 74.8926 16.2335 75.2844 15.6948C75.6762 15.1507 76.1414 14.7263 76.6801 14.4216C77.2242 14.1114 77.8336 13.9563 78.5084 13.9563C79.1722 13.9563 79.7762 14.1114 80.3203 14.4216C80.8644 14.7263 81.3269 15.1507 81.7078 15.6948C82.0942 16.2335 82.3907 16.862 82.5975 17.5802C82.8042 18.2985 82.9076 19.0657 82.9076 19.8819C82.9076 20.6981 82.8042 21.4653 82.5975 22.1835C82.3907 22.8963 82.0942 23.5248 81.7078 24.0689C81.3269 24.6131 80.8644 25.0402 80.3203 25.3504C79.7762 25.6551 79.1722 25.8074 78.5084 25.8074ZM78.5084 24.1097C79.1341 24.1097 79.6537 23.9139 80.0673 23.5221C80.4863 23.1249 80.7991 22.6052 81.0059 21.9632C81.2127 21.3211 81.3161 20.6273 81.3161 19.8819C81.3161 19.0983 81.2072 18.3883 80.9896 17.7516C80.7774 17.1096 80.4618 16.6008 80.0428 16.2254C79.6293 15.8445 79.1178 15.654 78.5084 15.654C78.0241 15.654 77.6024 15.7683 77.2433 15.9968C76.8896 16.2254 76.5958 16.5382 76.3618 16.9354C76.1332 17.3327 75.9591 17.7843 75.8394 18.2903C75.7252 18.7964 75.668 19.3269 75.668 19.8819C75.668 20.6273 75.7741 21.3211 75.9863 21.9632C76.1985 22.6052 76.5141 23.1249 76.9331 23.5221C77.3575 23.9139 77.8826 24.1097 78.5084 24.1097ZM88.2915 17.4333H89.9892V25.5952H88.2915V17.4333ZM89.1567 16.2498C88.8955 16.2498 88.6779 16.1655 88.5038 15.9968C88.3296 15.8281 88.2426 15.6159 88.2426 15.3602C88.2426 15.1099 88.3296 14.9004 88.5038 14.7317C88.6779 14.5576 88.8928 14.4705 89.1485 14.4705C89.3988 14.4705 89.611 14.5576 89.7852 14.7317C89.9593 14.9004 90.0464 15.1099 90.0464 15.3602C90.0464 15.6159 89.9593 15.8281 89.7852 15.9968C89.6165 16.1655 89.407 16.2498 89.1567 16.2498ZM99.224 20.4777V25.5952H97.5263V20.894C97.5263 20.5294 97.4366 20.1975 97.257 19.8982C97.0829 19.5989 96.8462 19.3622 96.5469 19.1881C96.2531 19.0086 95.9212 18.9188 95.5512 18.9188C95.192 18.9188 94.8628 19.0086 94.5636 19.1881C94.2643 19.3622 94.0249 19.5989 93.8453 19.8982C93.6658 20.1975 93.576 20.5294 93.576 20.894V25.5952H91.8783V17.4333H93.576V18.2985C93.8589 17.9611 94.2072 17.6945 94.6207 17.4986C95.0342 17.3027 95.4804 17.2048 95.9593 17.2048C96.5632 17.2048 97.1128 17.3517 97.608 17.6455C98.1031 17.9394 98.4949 18.3338 98.7833 18.829C99.0771 19.3242 99.224 19.8737 99.224 20.4777ZM105.219 25.5952H103.04L100.061 17.417H101.873L104.125 23.6364L106.386 17.417H108.19L105.219 25.5952ZM112.718 25.8074C111.967 25.8074 111.281 25.6143 110.661 25.2279C110.046 24.8416 109.554 24.3247 109.184 23.6772C108.819 23.0242 108.637 22.3032 108.637 21.5143C108.637 20.9157 108.743 20.358 108.955 19.8411C109.168 19.3187 109.459 18.8616 109.829 18.4699C110.204 18.0727 110.639 17.7625 111.135 17.5394C111.63 17.3163 112.157 17.2048 112.718 17.2048C113.344 17.2048 113.918 17.3354 114.44 17.5966C114.962 17.8523 115.409 18.2087 115.779 18.6658C116.149 19.1174 116.421 19.6397 116.595 20.2328C116.769 20.8205 116.821 21.4462 116.75 22.1101H110.457C110.528 22.4855 110.664 22.8256 110.865 23.1303C111.072 23.4296 111.333 23.6663 111.649 23.8404C111.97 24.0145 112.326 24.1043 112.718 24.1097C113.131 24.1097 113.507 24.0064 113.844 23.7996C114.187 23.5928 114.467 23.3072 114.685 22.9426L116.407 23.3425C116.081 24.0662 115.588 24.6593 114.93 25.1218C114.271 25.5789 113.534 25.8074 112.718 25.8074ZM110.4 20.8123H115.036C114.982 20.4206 114.843 20.0669 114.62 19.7513C114.402 19.4303 114.127 19.1772 113.795 18.9922C113.469 18.8018 113.11 18.7066 112.718 18.7066C112.332 18.7066 111.972 18.7991 111.641 18.9841C111.314 19.1691 111.042 19.4221 110.824 19.7431C110.612 20.0587 110.471 20.4151 110.4 20.8123ZM120.582 25.7503C120.152 25.7231 119.733 25.636 119.325 25.4891C118.917 25.3422 118.558 25.1436 118.248 24.8933C117.943 24.6376 117.715 24.3383 117.562 23.9955L119.007 23.3752C119.078 23.5221 119.2 23.6663 119.374 23.8078C119.554 23.9492 119.763 24.0662 120.003 24.1587C120.242 24.2458 120.492 24.2893 120.753 24.2893C121.009 24.2893 121.246 24.2539 121.464 24.1832C121.687 24.107 121.869 23.9928 122.01 23.8404C122.152 23.6881 122.223 23.5058 122.223 23.2936C122.223 23.0541 122.141 22.8691 121.978 22.7386C121.82 22.6025 121.621 22.4991 121.382 22.4284C121.143 22.3577 120.903 22.2896 120.664 22.2244C120.13 22.1046 119.641 21.9414 119.195 21.7346C118.754 21.5224 118.403 21.2531 118.142 20.9266C117.88 20.5947 117.75 20.1893 117.75 19.7105C117.75 19.1881 117.891 18.7365 118.174 18.3556C118.457 17.9693 118.827 17.6727 119.284 17.466C119.747 17.2592 120.239 17.1558 120.762 17.1558C121.415 17.1558 122.013 17.2946 122.557 17.5721C123.101 17.8496 123.518 18.2305 123.806 18.7147L122.459 19.5146C122.378 19.3514 122.255 19.2044 122.092 19.0739C121.929 18.9433 121.744 18.8399 121.537 18.7637C121.33 18.6821 121.115 18.6358 120.892 18.625C120.615 18.6141 120.356 18.6467 120.117 18.7229C119.883 18.7936 119.695 18.9079 119.554 19.0657C119.412 19.2235 119.341 19.4248 119.341 19.6697C119.341 19.9091 119.426 20.0887 119.594 20.2084C119.763 20.3226 119.975 20.4151 120.231 20.4859C120.492 20.5566 120.759 20.6355 121.031 20.7226C121.515 20.8749 121.97 21.0626 122.394 21.2857C122.818 21.5034 123.161 21.7727 123.422 22.0938C123.684 22.4148 123.809 22.8066 123.798 23.2691C123.798 23.7806 123.643 24.2295 123.333 24.6158C123.028 25.0021 122.631 25.2959 122.141 25.4973C121.651 25.6986 121.132 25.7829 120.582 25.7503ZM129.505 19.131H127.791L127.783 25.5952H126.085L126.093 19.131H124.796V17.4333H126.093L126.085 14.8705H127.783L127.791 17.4333H129.505V19.131ZM130.855 17.4333H132.552V25.5952H130.855V17.4333ZM131.72 16.2498C131.459 16.2498 131.241 16.1655 131.067 15.9968C130.893 15.8281 130.806 15.6159 130.806 15.3602C130.806 15.1099 130.893 14.9004 131.067 14.7317C131.241 14.5576 131.456 14.4705 131.712 14.4705C131.962 14.4705 132.174 14.5576 132.348 14.7317C132.522 14.9004 132.609 15.1099 132.609 15.3602C132.609 15.6159 132.522 15.8281 132.348 15.9968C132.18 16.1655 131.97 16.2498 131.72 16.2498ZM136.842 25.7503C136.412 25.7231 135.993 25.636 135.585 25.4891C135.177 25.3422 134.818 25.1436 134.508 24.8933C134.203 24.6376 133.975 24.3383 133.822 23.9955L135.267 23.3752C135.338 23.5221 135.46 23.6663 135.634 23.8078C135.814 23.9492 136.023 24.0662 136.263 24.1587C136.502 24.2458 136.752 24.2893 137.013 24.2893C137.269 24.2893 137.506 24.2539 137.724 24.1832C137.947 24.107 138.129 23.9928 138.27 23.8404C138.412 23.6881 138.483 23.5058 138.483 23.2936C138.483 23.0541 138.401 22.8691 138.238 22.7386C138.08 22.6025 137.881 22.4991 137.642 22.4284C137.403 22.3577 137.163 22.2896 136.924 22.2244C136.39 22.1046 135.901 21.9414 135.455 21.7346C135.014 21.5224 134.663 21.2531 134.402 20.9266C134.141 20.5947 134.01 20.1893 134.01 19.7105C134.01 19.1881 134.151 18.7365 134.434 18.3556C134.717 17.9693 135.087 17.6727 135.544 17.466C136.007 17.2592 136.499 17.1558 137.022 17.1558C137.675 17.1558 138.273 17.2946 138.817 17.5721C139.361 17.8496 139.778 18.2305 140.066 18.7147L138.719 19.5146C138.638 19.3514 138.515 19.2044 138.352 19.0739C138.189 18.9433 138.004 18.8399 137.797 18.7637C137.59 18.6821 137.375 18.6358 137.152 18.625C136.875 18.6141 136.616 18.6467 136.377 18.7229C136.143 18.7936 135.955 18.9079 135.814 19.0657C135.672 19.2235 135.601 19.4248 135.601 19.6697C135.601 19.9091 135.686 20.0887 135.855 20.2084C136.023 20.3226 136.235 20.4151 136.491 20.4859C136.752 20.5566 137.019 20.6355 137.291 20.7226C137.775 20.8749 138.23 21.0626 138.654 21.2857C139.078 21.5034 139.421 21.7727 139.682 22.0938C139.944 22.4148 140.069 22.8066 140.058 23.2691C140.058 23.7806 139.903 24.2295 139.593 24.6158C139.288 25.0021 138.891 25.2959 138.401 25.4973C137.911 25.6986 137.392 25.7829 136.842 25.7503ZM143.904 25.7503C143.474 25.7231 143.055 25.636 142.647 25.4891C142.239 25.3422 141.88 25.1436 141.57 24.8933C141.265 24.6376 141.036 24.3383 140.884 23.9955L142.329 23.3752C142.4 23.5221 142.522 23.6663 142.696 23.8078C142.876 23.9492 143.085 24.0662 143.325 24.1587C143.564 24.2458 143.814 24.2893 144.075 24.2893C144.331 24.2893 144.568 24.2539 144.786 24.1832C145.009 24.107 145.191 23.9928 145.332 23.8404C145.474 23.6881 145.545 23.5058 145.545 23.2936C145.545 23.0541 145.463 22.8691 145.3 22.7386C145.142 22.6025 144.943 22.4991 144.704 22.4284C144.464 22.3577 144.225 22.2896 143.986 22.2244C143.452 22.1046 142.963 21.9414 142.517 21.7346C142.076 21.5224 141.725 21.2531 141.464 20.9266C141.202 20.5947 141.072 20.1893 141.072 19.7105C141.072 19.1881 141.213 18.7365 141.496 18.3556C141.779 17.9693 142.149 17.6727 142.606 17.466C143.069 17.2592 143.561 17.1558 144.084 17.1558C144.737 17.1558 145.335 17.2946 145.879 17.5721C146.423 17.8496 146.84 18.2305 147.128 18.7147L145.781 19.5146C145.7 19.3514 145.577 19.2044 145.414 19.0739C145.251 18.9433 145.066 18.8399 144.859 18.7637C144.652 18.6821 144.437 18.6358 144.214 18.625C143.937 18.6141 143.678 18.6467 143.439 18.7229C143.205 18.7936 143.017 18.9079 142.876 19.0657C142.734 19.2235 142.663 19.4248 142.663 19.6697C142.663 19.9091 142.748 20.0887 142.916 20.2084C143.085 20.3226 143.297 20.4151 143.553 20.4859C143.814 20.5566 144.081 20.6355 144.353 20.7226C144.837 20.8749 145.292 21.0626 145.716 21.2857C146.14 21.5034 146.483 21.7727 146.744 22.0938C147.006 22.4148 147.131 22.8066 147.12 23.2691C147.12 23.7806 146.965 24.2295 146.655 24.6158C146.35 25.0021 145.953 25.2959 145.463 25.4973C144.973 25.6986 144.454 25.7829 143.904 25.7503ZM151.997 25.8074C151.246 25.8074 150.561 25.6143 149.94 25.2279C149.325 24.8416 148.833 24.3247 148.463 23.6772C148.098 23.0242 147.916 22.3032 147.916 21.5143C147.916 20.9157 148.022 20.358 148.234 19.8411C148.447 19.3187 148.738 18.8616 149.108 18.4699C149.483 18.0727 149.919 17.7625 150.414 17.5394C150.909 17.3163 151.437 17.2048 151.997 17.2048C152.623 17.2048 153.197 17.3354 153.719 17.5966C154.242 17.8523 154.688 18.2087 155.058 18.6658C155.428 19.1174 155.7 19.6397 155.874 20.2328C156.048 20.8205 156.1 21.4462 156.029 22.1101H149.736C149.807 22.4855 149.943 22.8256 150.144 23.1303C150.351 23.4296 150.612 23.6663 150.928 23.8404C151.249 24.0145 151.605 24.1043 151.997 24.1097C152.411 24.1097 152.786 24.0064 153.123 23.7996C153.466 23.5928 153.746 23.3072 153.964 22.9426L155.686 23.3425C155.36 24.0662 154.867 24.6593 154.209 25.1218C153.551 25.5789 152.813 25.8074 151.997 25.8074ZM149.679 20.8123H154.315C154.261 20.4206 154.122 20.0669 153.899 19.7513C153.681 19.4303 153.406 19.1772 153.074 18.9922C152.748 18.8018 152.389 18.7066 151.997 18.7066C151.611 18.7066 151.252 18.7991 150.92 18.9841C150.593 19.1691 150.321 19.4221 150.104 19.7431C149.891 20.0587 149.75 20.4151 149.679 20.8123ZM156.895 22.5345V17.4333H158.593V22.1182C158.593 22.4828 158.682 22.8147 158.862 23.114C159.041 23.4133 159.281 23.6527 159.58 23.8322C159.879 24.0064 160.209 24.0934 160.568 24.0934C160.932 24.0934 161.261 24.0064 161.555 23.8322C161.855 23.6527 162.091 23.4133 162.265 23.114C162.445 22.8147 162.535 22.4828 162.535 22.1182V17.4333H164.232L164.241 25.5952H162.543L162.535 24.7137C162.257 25.0511 161.912 25.3177 161.498 25.5136C161.085 25.7095 160.641 25.8074 160.168 25.8074C159.564 25.8074 159.014 25.6605 158.519 25.3667C158.024 25.0729 157.629 24.6784 157.336 24.1832C157.042 23.6881 156.895 23.1385 156.895 22.5345ZM165.877 25.5952V17.4333H167.575V18.2985C167.858 17.9611 168.206 17.6945 168.62 17.4986C169.033 17.3027 169.48 17.2048 169.958 17.2048C170.263 17.2048 170.565 17.2456 170.864 17.3272L170.187 19.0412C169.975 18.9596 169.762 18.9188 169.55 18.9188C169.191 18.9188 168.862 19.0086 168.563 19.1881C168.263 19.3622 168.024 19.5989 167.844 19.8982C167.665 20.1975 167.575 20.5294 167.575 20.894V25.5952H165.877ZM174.256 25.7503C173.826 25.7231 173.407 25.636 172.999 25.4891C172.591 25.3422 172.232 25.1436 171.922 24.8933C171.617 24.6376 171.389 24.3383 171.236 23.9955L172.681 23.3752C172.752 23.5221 172.874 23.6663 173.048 23.8078C173.228 23.9492 173.437 24.0662 173.677 24.1587C173.916 24.2458 174.166 24.2893 174.427 24.2893C174.683 24.2893 174.92 24.2539 175.138 24.1832C175.361 24.107 175.543 23.9928 175.684 23.8404C175.826 23.6881 175.897 23.5058 175.897 23.2936C175.897 23.0541 175.815 22.8691 175.652 22.7386C175.494 22.6025 175.295 22.4991 175.056 22.4284C174.817 22.3577 174.577 22.2896 174.338 22.2244C173.804 22.1046 173.315 21.9414 172.869 21.7346C172.428 21.5224 172.077 21.2531 171.816 20.9266C171.555 20.5947 171.424 20.1893 171.424 19.7105C171.424 19.1881 171.565 18.7365 171.848 18.3556C172.131 17.9693 172.501 17.6727 172.958 17.466C173.421 17.2592 173.913 17.1558 174.436 17.1558C175.089 17.1558 175.687 17.2946 176.231 17.5721C176.775 17.8496 177.192 18.2305 177.48 18.7147L176.133 19.5146C176.052 19.3514 175.929 19.2044 175.766 19.0739C175.603 18.9433 175.418 18.8399 175.211 18.7637C175.004 18.6821 174.789 18.6358 174.566 18.625C174.289 18.6141 174.03 18.6467 173.791 18.7229C173.557 18.7936 173.369 18.9079 173.228 19.0657C173.086 19.2235 173.015 19.4248 173.015 19.6697C173.015 19.9091 173.1 20.0887 173.269 20.2084C173.437 20.3226 173.649 20.4151 173.905 20.4859C174.166 20.5566 174.433 20.6355 174.705 20.7226C175.189 20.8749 175.644 21.0626 176.068 21.2857C176.492 21.5034 176.835 21.7727 177.096 22.0938C177.358 22.4148 177.483 22.8066 177.472 23.2691C177.472 23.7806 177.317 24.2295 177.007 24.6158C176.702 25.0021 176.305 25.2959 175.815 25.4973C175.325 25.6986 174.806 25.7829 174.256 25.7503ZM185.24 25.7503C184.81 25.7231 184.391 25.636 183.983 25.4891C183.575 25.3422 183.215 25.1436 182.905 24.8933C182.601 24.6376 182.372 24.3383 182.22 23.9955L183.664 23.3752C183.735 23.5221 183.858 23.6663 184.032 23.8078C184.211 23.9492 184.421 24.0662 184.66 24.1587C184.9 24.2458 185.15 24.2893 185.411 24.2893C185.667 24.2893 185.903 24.2539 186.121 24.1832C186.344 24.107 186.526 23.9928 186.668 23.8404C186.809 23.6881 186.88 23.5058 186.88 23.2936C186.88 23.0541 186.799 22.8691 186.635 22.7386C186.477 22.6025 186.279 22.4991 186.039 22.4284C185.8 22.3577 185.561 22.2896 185.321 22.2244C184.788 22.1046 184.298 21.9414 183.852 21.7346C183.411 21.5224 183.06 21.2531 182.799 20.9266C182.538 20.5947 182.407 20.1893 182.407 19.7105C182.407 19.1881 182.549 18.7365 182.832 18.3556C183.115 17.9693 183.485 17.6727 183.942 17.466C184.404 17.2592 184.897 17.1558 185.419 17.1558C186.072 17.1558 186.671 17.2946 187.215 17.5721C187.759 17.8496 188.175 18.2305 188.464 18.7147L187.117 19.5146C187.035 19.3514 186.913 19.2044 186.75 19.0739C186.586 18.9433 186.401 18.8399 186.195 18.7637C185.988 18.6821 185.773 18.6358 185.55 18.625C185.272 18.6141 185.014 18.6467 184.774 18.7229C184.54 18.7936 184.353 18.9079 184.211 19.0657C184.07 19.2235 183.999 19.4248 183.999 19.6697C183.999 19.9091 184.083 20.0887 184.252 20.2084C184.421 20.3226 184.633 20.4151 184.889 20.4859C185.15 20.5566 185.416 20.6355 185.689 20.7226C186.173 20.8749 186.627 21.0626 187.052 21.2857C187.476 21.5034 187.819 21.7727 188.08 22.0938C188.341 22.4148 188.466 22.8066 188.455 23.2691C188.455 23.7806 188.3 24.2295 187.99 24.6158C187.685 25.0021 187.288 25.2959 186.799 25.4973C186.309 25.6986 185.789 25.7829 185.24 25.7503ZM196.091 17.4333H197.789V25.5952H196.083L196.018 24.4117C195.778 24.8307 195.455 25.1681 195.047 25.4238C194.639 25.6796 194.157 25.8074 193.602 25.8074C193.003 25.8074 192.44 25.6959 191.912 25.4728C191.385 25.2443 190.919 24.9287 190.517 24.526C190.12 24.1234 189.809 23.6608 189.586 23.1385C189.363 22.6107 189.252 22.0448 189.252 21.4408C189.252 20.8586 189.361 20.3117 189.578 19.8003C189.796 19.2833 190.098 18.8317 190.484 18.4454C190.87 18.0591 191.317 17.7571 191.823 17.5394C192.334 17.3163 192.881 17.2048 193.463 17.2048C194.056 17.2048 194.579 17.3408 195.03 17.6129C195.487 17.8795 195.866 18.2223 196.165 18.6413L196.091 17.4333ZM193.561 24.1669C194.04 24.1669 194.459 24.0499 194.818 23.8159C195.177 23.5765 195.455 23.2555 195.651 22.8528C195.852 22.4502 195.953 22.004 195.953 21.5143C195.953 21.0191 195.852 20.5702 195.651 20.1676C195.449 19.7649 195.169 19.4466 194.81 19.2126C194.456 18.9732 194.04 18.8535 193.561 18.8535C193.088 18.8535 192.655 18.9732 192.263 19.2126C191.872 19.452 191.561 19.7731 191.333 20.1757C191.104 20.5784 190.99 21.0246 190.99 21.5143C190.99 22.0094 191.107 22.4583 191.341 22.861C191.581 23.2582 191.893 23.5765 192.28 23.8159C192.672 24.0499 193.099 24.1669 193.561 24.1669ZM203.727 19.131H202.013L202.005 25.5952H200.307L200.316 19.131H199.018V17.4333H200.316L200.307 14.8705H202.005L202.013 17.4333H203.727V19.131ZM205.077 17.4333H206.775V25.5952H205.077V17.4333ZM205.942 16.2498C205.681 16.2498 205.463 16.1655 205.289 15.9968C205.115 15.8281 205.028 15.6159 205.028 15.3602C205.028 15.1099 205.115 14.9004 205.289 14.7317C205.463 14.5576 205.678 14.4705 205.934 14.4705C206.184 14.4705 206.396 14.5576 206.57 14.7317C206.745 14.9004 206.832 15.1099 206.832 15.3602C206.832 15.6159 206.745 15.8281 206.57 15.9968C206.402 16.1655 206.192 16.2498 205.942 16.2498ZM211.064 25.7503C210.634 25.7231 210.216 25.636 209.807 25.4891C209.399 25.3422 209.04 25.1436 208.73 24.8933C208.425 24.6376 208.197 24.3383 208.044 23.9955L209.489 23.3752C209.56 23.5221 209.682 23.6663 209.856 23.8078C210.036 23.9492 210.245 24.0662 210.485 24.1587C210.724 24.2458 210.975 24.2893 211.236 24.2893C211.491 24.2893 211.728 24.2539 211.946 24.1832C212.169 24.107 212.351 23.9928 212.493 23.8404C212.634 23.6881 212.705 23.5058 212.705 23.2936C212.705 23.0541 212.623 22.8691 212.46 22.7386C212.302 22.6025 212.104 22.4991 211.864 22.4284C211.625 22.3577 211.385 22.2896 211.146 22.2244C210.613 22.1046 210.123 21.9414 209.677 21.7346C209.236 21.5224 208.885 21.2531 208.624 20.9266C208.363 20.5947 208.232 20.1893 208.232 19.7105C208.232 19.1881 208.374 18.7365 208.657 18.3556C208.94 17.9693 209.31 17.6727 209.767 17.466C210.229 17.2592 210.722 17.1558 211.244 17.1558C211.897 17.1558 212.495 17.2946 213.04 17.5721C213.584 17.8496 214 18.2305 214.288 18.7147L212.942 19.5146C212.86 19.3514 212.738 19.2044 212.574 19.0739C212.411 18.9433 212.226 18.8399 212.019 18.7637C211.813 18.6821 211.598 18.6358 211.375 18.625C211.097 18.6141 210.839 18.6467 210.599 18.7229C210.365 18.7936 210.177 18.9079 210.036 19.0657C209.894 19.2235 209.824 19.4248 209.824 19.6697C209.824 19.9091 209.908 20.0887 210.077 20.2084C210.245 20.3226 210.458 20.4151 210.713 20.4859C210.975 20.5566 211.241 20.6355 211.513 20.7226C211.998 20.8749 212.452 21.0626 212.876 21.2857C213.301 21.5034 213.644 21.7727 213.905 22.0938C214.166 22.4148 214.291 22.8066 214.28 23.2691C214.28 23.7806 214.125 24.2295 213.815 24.6158C213.51 25.0021 213.113 25.2959 212.623 25.4973C212.134 25.6986 211.614 25.7829 211.064 25.7503ZM217.775 15.5806V17.4333H220.077V19.131H217.775V25.5952H216.078V19.131H215.106V17.4333H216.078V15.5806C216.078 15.1344 216.187 14.729 216.404 14.3644C216.622 13.9944 216.913 13.7006 217.277 13.483C217.647 13.2653 218.058 13.1565 218.51 13.1565C218.836 13.1565 219.155 13.2218 219.465 13.3524C219.775 13.483 220.053 13.6843 220.297 13.9563L219.081 15.1561C219.021 15.0582 218.937 14.9847 218.828 14.9358C218.725 14.8814 218.619 14.8542 218.51 14.8542C218.309 14.8542 218.134 14.9249 217.988 15.0664C217.846 15.2078 217.775 15.3792 217.775 15.5806ZM227.575 17.4333H229.273V25.5952H227.567L227.502 24.4117C227.262 24.8307 226.939 25.1681 226.531 25.4238C226.122 25.6796 225.641 25.8074 225.086 25.8074C224.487 25.8074 223.924 25.6959 223.396 25.4728C222.869 25.2443 222.403 24.9287 222.001 24.526C221.603 24.1234 221.293 23.6608 221.07 23.1385C220.847 22.6107 220.736 22.0448 220.736 21.4408C220.736 20.8586 220.844 20.3117 221.062 19.8003C221.28 19.2833 221.582 18.8317 221.968 18.4454C222.354 18.0591 222.801 17.7571 223.307 17.5394C223.818 17.3163 224.365 17.2048 224.947 17.2048C225.54 17.2048 226.063 17.3408 226.514 17.6129C226.971 17.8795 227.349 18.2223 227.649 18.6413L227.575 17.4333ZM225.045 24.1669C225.524 24.1669 225.943 24.0499 226.302 23.8159C226.661 23.5765 226.939 23.2555 227.134 22.8528C227.336 22.4502 227.436 22.004 227.436 21.5143C227.436 21.0191 227.336 20.5702 227.134 20.1676C226.933 19.7649 226.653 19.4466 226.294 19.2126C225.94 18.9732 225.524 18.8535 225.045 18.8535C224.572 18.8535 224.139 18.9732 223.747 19.2126C223.356 19.452 223.045 19.7731 222.817 20.1757C222.588 20.5784 222.474 21.0246 222.474 21.5143C222.474 22.0094 222.591 22.4583 222.825 22.861C223.064 23.2582 223.377 23.5765 223.764 23.8159C224.155 24.0499 224.583 24.1669 225.045 24.1669ZM230.902 17.4333H232.599V25.5952H230.902V17.4333ZM231.767 16.2498C231.506 16.2498 231.288 16.1655 231.114 15.9968C230.94 15.8281 230.853 15.6159 230.853 15.3602C230.853 15.1099 230.94 14.9004 231.114 14.7317C231.288 14.5576 231.503 14.4705 231.759 14.4705C232.009 14.4705 232.221 14.5576 232.395 14.7317C232.569 14.9004 232.656 15.1099 232.656 15.3602C232.656 15.6159 232.569 15.8281 232.395 15.9968C232.227 16.1655 232.017 16.2498 231.767 16.2498ZM238.862 19.131H237.148L237.139 25.5952H235.442L235.45 19.131H234.152V17.4333H235.45L235.442 14.8705H237.139L237.148 17.4333H238.862V19.131ZM242.66 25.7503C242.23 25.7231 241.811 25.636 241.403 25.4891C240.995 25.3422 240.636 25.1436 240.326 24.8933C240.021 24.6376 239.792 24.3383 239.64 23.9955L241.085 23.3752C241.155 23.5221 241.278 23.6663 241.452 23.8078C241.631 23.9492 241.841 24.0662 242.08 24.1587C242.32 24.2458 242.57 24.2893 242.831 24.2893C243.087 24.2893 243.324 24.2539 243.541 24.1832C243.764 24.107 243.947 23.9928 244.088 23.8404C244.23 23.6881 244.3 23.5058 244.3 23.2936C244.3 23.0541 244.219 22.8691 244.056 22.7386C243.898 22.6025 243.699 22.4991 243.46 22.4284C243.22 22.3577 242.981 22.2896 242.741 22.2244C242.208 22.1046 241.718 21.9414 241.272 21.7346C240.832 21.5224 240.481 21.2531 240.219 20.9266C239.958 20.5947 239.828 20.1893 239.828 19.7105C239.828 19.1881 239.969 18.7365 240.252 18.3556C240.535 17.9693 240.905 17.6727 241.362 17.466C241.825 17.2592 242.317 17.1558 242.839 17.1558C243.492 17.1558 244.091 17.2946 244.635 17.5721C245.179 17.8496 245.595 18.2305 245.884 18.7147L244.537 19.5146C244.455 19.3514 244.333 19.2044 244.17 19.0739C244.007 18.9433 243.822 18.8399 243.615 18.7637C243.408 18.6821 243.193 18.6358 242.97 18.625C242.692 18.6141 242.434 18.6467 242.195 18.7229C241.961 18.7936 241.773 18.9079 241.631 19.0657C241.49 19.2235 241.419 19.4248 241.419 19.6697C241.419 19.9091 241.504 20.0887 241.672 20.2084C241.841 20.3226 242.053 20.4151 242.309 20.4859C242.57 20.5566 242.837 20.6355 243.109 20.7226C243.593 20.8749 244.047 21.0626 244.472 21.2857C244.896 21.5034 245.239 21.7727 245.5 22.0938C245.761 22.4148 245.886 22.8066 245.876 23.2691C245.876 23.7806 245.721 24.2295 245.41 24.6158C245.106 25.0021 244.708 25.2959 244.219 25.4973C243.729 25.6986 243.209 25.7829 242.66 25.7503Z" fill="#090F1F"/>
</svg>
