<svg width="230" height="76" viewBox="0 0 230 76" fill="none" xmlns="http://www.w3.org/2000/svg">
<rect x="1" y="1" width="46" height="46" rx="23" fill="#D9EFFF"/>
<rect x="1" y="1" width="46" height="46" rx="23" stroke="#0095FC" stroke-width="2"/>
<path opacity="0.2" d="M35.0401 19.1998V32.6398C35.0401 32.8944 34.9389 33.1386 34.7589 33.3186C34.5789 33.4987 34.3347 33.5998 34.0801 33.5998H14.8801C14.3709 33.5998 13.8825 33.3975 13.5224 33.0375C13.1624 32.6774 12.9601 32.189 12.9601 31.6798V16.3198C12.9601 16.829 13.1624 17.3174 13.5224 17.6775C13.8825 18.0375 14.3709 18.2398 14.8801 18.2398H34.0801C34.3347 18.2398 34.5789 18.341 34.7589 18.521C34.9389 18.701 35.0401 18.9452 35.0401 19.1998Z" fill="#0086E3"/>
<path d="M34.08 17.2799H14.88C14.6254 17.2799 14.3812 17.1788 14.2012 16.9988C14.0211 16.8187 13.92 16.5745 13.92 16.3199C13.92 16.0653 14.0211 15.8212 14.2012 15.6411C14.3812 15.4611 14.6254 15.3599 14.88 15.3599H31.2C31.4546 15.3599 31.6988 15.2588 31.8788 15.0788C32.0589 14.8987 32.16 14.6545 32.16 14.3999C32.16 14.1453 32.0589 13.9012 31.8788 13.7211C31.6988 13.5411 31.4546 13.4399 31.2 13.4399H14.88C14.1162 13.4399 13.3836 13.7434 12.8435 14.2835C12.3034 14.8236 12 15.5561 12 16.3199V31.6799C12 32.4438 12.3034 33.1763 12.8435 33.7164C13.3836 34.2565 14.1162 34.5599 14.88 34.5599H34.08C34.5892 34.5599 35.0776 34.3577 35.4376 33.9976C35.7977 33.6375 36 33.1492 36 32.6399V19.1999C36 18.6907 35.7977 18.2024 35.4376 17.8423C35.0776 17.4822 34.5892 17.2799 34.08 17.2799ZM34.08 32.6399H14.88C14.6254 32.6399 14.3812 32.5388 14.2012 32.3588C14.0211 32.1787 13.92 31.9345 13.92 31.6799V19.0355C14.2283 19.1448 14.553 19.2004 14.88 19.1999H34.08V32.6399ZM28.32 25.4399C28.32 25.1551 28.4045 24.8767 28.5627 24.6399C28.7209 24.4031 28.9458 24.2185 29.2089 24.1096C29.4721 24.0006 29.7616 23.972 30.0409 24.0276C30.3203 24.0832 30.5768 24.2203 30.7782 24.4217C30.9796 24.6231 31.1168 24.8797 31.1723 25.159C31.2279 25.4383 31.1994 25.7279 31.0904 25.991C30.9814 26.2541 30.7968 26.479 30.56 26.6373C30.3232 26.7955 30.0448 26.8799 29.76 26.8799C29.3781 26.8799 29.0118 26.7282 28.7418 26.4582C28.4717 26.1881 28.32 25.8219 28.32 25.4399Z" fill="#0086E3"/>
<path d="M58.9794 16V4.57334H62.9135C63.5283 4.57334 64.0833 4.7257 64.5785 5.03041C65.0791 5.33512 65.4763 5.74593 65.7701 6.26285C66.0694 6.77977 66.219 7.35111 66.219 7.97685C66.219 8.61348 66.0667 9.19026 65.762 9.70718C65.4627 10.2187 65.0628 10.6267 64.5622 10.9315C64.0616 11.2362 63.512 11.3885 62.9135 11.3885H60.6771V16H58.9794ZM60.6771 9.69085H62.7421C63.0685 9.69085 63.3651 9.60923 63.6317 9.446C63.9038 9.28276 64.1187 9.06511 64.2765 8.79304C64.4397 8.52098 64.5214 8.21355 64.5214 7.87075C64.5214 7.52795 64.4397 7.22052 64.2765 6.94845C64.1187 6.67095 63.9038 6.4533 63.6317 6.2955C63.3651 6.13226 63.0685 6.05064 62.7421 6.05064H60.6771V9.69085ZM73.5072 7.8381H75.2049V16H73.4991L73.4338 14.8165C73.1944 15.2355 72.8706 15.5729 72.4625 15.8286C72.0544 16.0843 71.5729 16.2122 71.0178 16.2122C70.4193 16.2122 69.8561 16.1007 69.3283 15.8776C68.8005 15.649 68.3353 15.3334 67.9326 14.9308C67.5354 14.5281 67.2253 14.0656 67.0022 13.5433C66.7791 13.0155 66.6676 12.4496 66.6676 11.8456C66.6676 11.2634 66.7764 10.7165 66.994 10.2051C67.2117 9.68813 67.5137 9.23651 67.9 8.85018C68.2863 8.46385 68.7325 8.16186 69.2386 7.94421C69.75 7.72111 70.2969 7.60957 70.8791 7.60957C71.4722 7.60957 71.9946 7.7456 72.4462 8.01766C72.9032 8.28428 73.2814 8.62708 73.5807 9.04606L73.5072 7.8381ZM70.977 14.5717C71.4559 14.5717 71.8748 14.4547 72.234 14.2207C72.5931 13.9813 72.8706 13.6603 73.0665 13.2576C73.2678 12.8549 73.3685 12.4088 73.3685 11.9191C73.3685 11.4239 73.2678 10.975 73.0665 10.5723C72.8652 10.1697 72.5849 9.85137 72.2258 9.61739C71.8721 9.37798 71.4559 9.25827 70.977 9.25827C70.5036 9.25827 70.0711 9.37798 69.6793 9.61739C69.2875 9.85681 68.9774 10.1778 68.7488 10.5805C68.5203 10.9832 68.406 11.4293 68.406 11.9191C68.406 12.4142 68.523 12.8631 68.757 13.2658C68.9964 13.663 69.3093 13.9813 69.6956 14.2207C70.0874 14.4547 70.5145 14.5717 70.977 14.5717ZM76.8336 7.8381H78.5313V16H76.8336V7.8381ZM77.6987 6.65463C77.4376 6.65463 77.2199 6.57029 77.0458 6.40161C76.8717 6.23293 76.7846 6.02072 76.7846 5.76498C76.7846 5.51468 76.8717 5.30519 77.0458 5.13651C77.2199 4.96239 77.4348 4.87533 77.6906 4.87533C77.9409 4.87533 78.1531 4.96239 78.3272 5.13651C78.5013 5.30519 78.5884 5.51468 78.5884 5.76498C78.5884 6.02072 78.5013 6.23293 78.3272 6.40161C78.1585 6.57029 77.949 6.65463 77.6987 6.65463ZM83.9319 16.2122C83.181 16.2122 82.4954 16.019 81.8751 15.6327C81.2602 15.2464 80.7678 14.7295 80.3978 14.082C80.0332 13.429 79.8509 12.708 79.8509 11.9191C79.8509 11.3205 79.957 10.7628 80.1692 10.2459C80.3815 9.7235 80.6726 9.26643 81.0426 8.87466C81.418 8.47745 81.8533 8.1673 82.3485 7.94421C82.8436 7.72111 83.3714 7.60957 83.9319 7.60957C84.5576 7.60957 85.1317 7.74016 85.654 8.00134C86.1764 8.25708 86.6226 8.61348 86.9926 9.07055C87.3626 9.52217 87.6347 10.0445 87.8088 10.6376C87.9829 11.2253 88.0346 11.851 87.9639 12.5149H81.671C81.7418 12.8903 81.8778 13.2304 82.0791 13.5351C82.2859 13.8344 82.5471 14.0711 82.8627 14.2452C83.1837 14.4193 83.5401 14.5091 83.9319 14.5145C84.3454 14.5145 84.7209 14.4112 85.0582 14.2044C85.401 13.9976 85.6812 13.7119 85.8989 13.3474L87.6211 13.7473C87.2946 14.471 86.8022 15.0641 86.1438 15.5266C85.4854 15.9837 84.7481 16.2122 83.9319 16.2122ZM81.6139 11.2171H86.2499C86.1954 10.8254 86.0567 10.4717 85.8336 10.1561C85.616 9.83505 85.3412 9.58203 85.0093 9.39702C84.6828 9.20658 84.3237 9.11136 83.9319 9.11136C83.5456 9.11136 83.1864 9.20386 82.8545 9.38886C82.528 9.57386 82.256 9.82688 82.0383 10.1479C81.8261 10.4635 81.6846 10.8199 81.6139 11.2171ZM89.3155 16V7.8381H91.0132V8.70326C91.2962 8.3659 91.6417 8.09928 92.0498 7.9034C92.4633 7.70751 92.9095 7.60957 93.3883 7.60957C93.9706 7.60957 94.5065 7.75104 94.9962 8.03399C95.4859 8.31149 95.875 8.6815 96.1634 9.144C96.4518 8.6815 96.8354 8.31149 97.3142 8.03399C97.7985 7.75104 98.3317 7.60957 98.9139 7.60957C99.5179 7.60957 100.067 7.75648 100.563 8.05031C101.058 8.34414 101.452 8.73863 101.746 9.23379C102.04 9.72894 102.187 10.2785 102.187 10.8825V16H100.489V11.3151C100.489 10.9559 100.402 10.6267 100.228 10.3275C100.054 10.0282 99.8199 9.78607 99.5261 9.60107C99.2323 9.41607 98.9058 9.32357 98.5467 9.32357C98.1875 9.32357 97.8611 9.41063 97.5672 9.58475C97.2734 9.75887 97.0394 9.99556 96.8653 10.2948C96.6912 10.5941 96.6041 10.9342 96.6041 11.3151V16H94.9064V11.3151C94.9064 10.9342 94.8194 10.5941 94.6453 10.2948C94.4711 9.99556 94.2345 9.75887 93.9352 9.58475C93.6414 9.41063 93.3149 9.32357 92.9558 9.32357C92.6021 9.32357 92.2756 9.41607 91.9763 9.60107C91.6825 9.78607 91.4485 10.0282 91.2744 10.3275C91.1003 10.6267 91.0132 10.9559 91.0132 11.3151V16H89.3155ZM107.254 16.2122C106.503 16.2122 105.817 16.019 105.197 15.6327C104.582 15.2464 104.09 14.7295 103.72 14.082C103.355 13.429 103.173 12.708 103.173 11.9191C103.173 11.3205 103.279 10.7628 103.491 10.2459C103.703 9.7235 103.995 9.26643 104.365 8.87466C104.74 8.47745 105.175 8.1673 105.67 7.94421C106.166 7.72111 106.693 7.60957 107.254 7.60957C107.88 7.60957 108.454 7.74016 108.976 8.00134C109.498 8.25708 109.945 8.61348 110.315 9.07055C110.685 9.52217 110.957 10.0445 111.131 10.6376C111.305 11.2253 111.357 11.851 111.286 12.5149H104.993C105.064 12.8903 105.2 13.2304 105.401 13.5351C105.608 13.8344 105.869 14.0711 106.185 14.2452C106.506 14.4193 106.862 14.5091 107.254 14.5145C107.667 14.5145 108.043 14.4112 108.38 14.2044C108.723 13.9976 109.003 13.7119 109.221 13.3474L110.943 13.7473C110.617 14.471 110.124 15.0641 109.466 15.5266C108.807 15.9837 108.07 16.2122 107.254 16.2122ZM104.936 11.2171H109.572C109.517 10.8254 109.379 10.4717 109.156 10.1561C108.938 9.83505 108.663 9.58203 108.331 9.39702C108.005 9.20658 107.646 9.11136 107.254 9.11136C106.868 9.11136 106.508 9.20386 106.177 9.38886C105.85 9.57386 105.578 9.82688 105.36 10.1479C105.148 10.4635 105.007 10.8199 104.936 11.2171ZM119.983 10.8825V16H118.286V11.2987C118.286 10.9342 118.196 10.6023 118.016 10.303C117.842 10.0037 117.605 9.76703 117.306 9.59291C117.012 9.41335 116.68 9.32357 116.31 9.32357C115.951 9.32357 115.622 9.41335 115.323 9.59291C115.024 9.76703 114.784 10.0037 114.605 10.303C114.425 10.6023 114.335 10.9342 114.335 11.2987V16H112.638V7.8381H114.335V8.70326C114.618 8.3659 114.966 8.09928 115.38 7.9034C115.793 7.70751 116.24 7.60957 116.718 7.60957C117.322 7.60957 117.872 7.75648 118.367 8.05031C118.862 8.34414 119.254 8.73863 119.543 9.23379C119.836 9.72894 119.983 10.2785 119.983 10.8825ZM125.922 9.53578H124.208L124.2 16H122.502L122.51 9.53578H121.213V7.8381H122.51L122.502 5.27527H124.2L124.208 7.8381H125.922V9.53578ZM131.305 16L133.517 4.57334H134.888L137.818 12.27L140.732 4.57334H142.103L144.323 16H142.593L141.115 8.3523L138.381 15.5674H137.238L134.512 8.3523L133.035 16H131.305ZM149.084 16.2122C148.333 16.2122 147.647 16.019 147.027 15.6327C146.412 15.2464 145.92 14.7295 145.55 14.082C145.185 13.429 145.003 12.708 145.003 11.9191C145.003 11.3205 145.109 10.7628 145.321 10.2459C145.533 9.7235 145.824 9.26643 146.194 8.87466C146.57 8.47745 147.005 8.1673 147.5 7.94421C147.995 7.72111 148.523 7.60957 149.084 7.60957C149.709 7.60957 150.283 7.74016 150.806 8.00134C151.328 8.25708 151.774 8.61348 152.144 9.07055C152.514 9.52217 152.786 10.0445 152.961 10.6376C153.135 11.2253 153.186 11.851 153.116 12.5149H146.823C146.893 12.8903 147.03 13.2304 147.231 13.5351C147.438 13.8344 147.699 14.0711 148.014 14.2452C148.335 14.4193 148.692 14.5091 149.084 14.5145C149.497 14.5145 149.873 14.4112 150.21 14.2044C150.553 13.9976 150.833 13.7119 151.051 13.3474L152.773 13.7473C152.446 14.471 151.954 15.0641 151.295 15.5266C150.637 15.9837 149.9 16.2122 149.084 16.2122ZM146.766 11.2171H151.402C151.347 10.8254 151.208 10.4717 150.985 10.1561C150.768 9.83505 150.493 9.58203 150.161 9.39702C149.834 9.20658 149.475 9.11136 149.084 9.11136C148.697 9.11136 148.338 9.20386 148.006 9.38886C147.68 9.57386 147.408 9.82688 147.19 10.1479C146.978 10.4635 146.836 10.8199 146.766 11.2171ZM161.813 10.8825V16H160.115V11.2987C160.115 10.9342 160.026 10.6023 159.846 10.303C159.672 10.0037 159.435 9.76703 159.136 9.59291C158.842 9.41335 158.51 9.32357 158.14 9.32357C157.781 9.32357 157.452 9.41335 157.153 9.59291C156.853 9.76703 156.614 10.0037 156.434 10.303C156.255 10.6023 156.165 10.9342 156.165 11.2987V16H154.467V7.8381H156.165V8.70326C156.448 8.3659 156.796 8.09928 157.21 7.9034C157.623 7.70751 158.069 7.60957 158.548 7.60957C159.152 7.60957 159.702 7.75648 160.197 8.05031C160.692 8.34414 161.084 8.73863 161.372 9.23379C161.666 9.72894 161.813 10.2785 161.813 10.8825ZM165.891 16.1551C165.461 16.1279 165.042 16.0408 164.634 15.8939C164.226 15.747 163.867 15.5484 163.556 15.2981C163.252 15.0423 163.023 14.7431 162.871 14.4003L164.315 13.78C164.386 13.9269 164.509 14.0711 164.683 14.2125C164.862 14.354 165.072 14.471 165.311 14.5635C165.551 14.6506 165.801 14.6941 166.062 14.6941C166.318 14.6941 166.555 14.6587 166.772 14.588C166.995 14.5118 167.178 14.3975 167.319 14.2452C167.461 14.0928 167.531 13.9106 167.531 13.6983C167.531 13.4589 167.45 13.2739 167.286 13.1433C167.129 13.0073 166.93 12.9039 166.691 12.8332C166.451 12.7624 166.212 12.6944 165.972 12.6291C165.439 12.5094 164.949 12.3462 164.503 12.1394C164.062 11.9272 163.712 11.6579 163.45 11.3314C163.189 10.9995 163.059 10.5941 163.059 10.1153C163.059 9.59291 163.2 9.14128 163.483 8.7604C163.766 8.37407 164.136 8.07752 164.593 7.87075C165.056 7.66398 165.548 7.5606 166.07 7.5606C166.723 7.5606 167.322 7.69935 167.866 7.97685C168.41 8.25436 168.826 8.63525 169.115 9.11952L167.768 9.91939C167.686 9.75615 167.564 9.60923 167.401 9.47864C167.237 9.34805 167.052 9.24467 166.846 9.16849C166.639 9.08687 166.424 9.04062 166.201 9.02974C165.923 9.01886 165.665 9.0515 165.426 9.12768C165.192 9.19842 165.004 9.31268 164.862 9.47048C164.721 9.62828 164.65 9.8296 164.65 10.0745C164.65 10.3139 164.734 10.4934 164.903 10.6131C165.072 10.7274 165.284 10.8199 165.54 10.8907C165.801 10.9614 166.068 11.0403 166.34 11.1273C166.824 11.2797 167.278 11.4674 167.703 11.6905C168.127 11.9082 168.47 12.1775 168.731 12.4985C168.992 12.8196 169.117 13.2114 169.107 13.6739C169.107 14.1853 168.951 14.6342 168.641 15.0206C168.337 15.4069 167.939 15.7007 167.45 15.9021C166.96 16.1034 166.44 16.1877 165.891 16.1551ZM170.178 12.9393V7.8381H171.875V12.523C171.875 12.8876 171.965 13.2195 172.145 13.5188C172.324 13.8181 172.564 14.0575 172.863 14.237C173.162 14.4112 173.491 14.4982 173.851 14.4982C174.215 14.4982 174.544 14.4112 174.838 14.237C175.137 14.0575 175.374 13.8181 175.548 13.5188C175.728 13.2195 175.818 12.8876 175.818 12.523V7.8381H177.515L177.523 16H175.826L175.818 15.1185C175.54 15.4559 175.194 15.7225 174.781 15.9184C174.367 16.1143 173.924 16.2122 173.451 16.2122C172.847 16.2122 172.297 16.0653 171.802 15.7715C171.307 15.4776 170.912 15.0831 170.618 14.588C170.325 14.0928 170.178 13.5433 170.178 12.9393ZM182.64 16.2122C181.889 16.2122 181.203 16.019 180.583 15.6327C179.968 15.2464 179.476 14.7295 179.106 14.082C178.741 13.429 178.559 12.708 178.559 11.9191C178.559 11.3205 178.665 10.7628 178.877 10.2459C179.089 9.7235 179.381 9.26643 179.751 8.87466C180.126 8.47745 180.561 8.1673 181.056 7.94421C181.552 7.72111 182.079 7.60957 182.64 7.60957C183.266 7.60957 183.84 7.74016 184.362 8.00134C184.884 8.25708 185.331 8.61348 185.701 9.07055C186.071 9.52217 186.343 10.0445 186.517 10.6376C186.691 11.2253 186.743 11.851 186.672 12.5149H180.379C180.45 12.8903 180.586 13.2304 180.787 13.5351C180.994 13.8344 181.255 14.0711 181.571 14.2452C181.892 14.4193 182.248 14.5091 182.64 14.5145C183.053 14.5145 183.429 14.4112 183.766 14.2044C184.109 13.9976 184.389 13.7119 184.607 13.3474L186.329 13.7473C186.003 14.471 185.51 15.0641 184.852 15.5266C184.193 15.9837 183.456 16.2122 182.64 16.2122ZM180.322 11.2171H184.958C184.903 10.8254 184.765 10.4717 184.542 10.1561C184.324 9.83505 184.049 9.58203 183.717 9.39702C183.391 9.20658 183.032 9.11136 182.64 9.11136C182.254 9.11136 181.894 9.20386 181.562 9.38886C181.236 9.57386 180.964 9.82688 180.746 10.1479C180.534 10.4635 180.393 10.8199 180.322 11.2171ZM187.912 16V3.75715H189.61V16H187.912ZM195.484 16V4.57334H199.687C200.308 4.57334 200.865 4.7257 201.361 5.03041C201.856 5.33512 202.247 5.74593 202.536 6.26285C202.83 6.77433 202.977 7.34567 202.977 7.97685C202.977 8.5101 202.876 8.99709 202.675 9.43783C202.479 9.87858 202.201 10.254 201.842 10.5642C201.488 10.8743 201.083 11.0974 200.626 11.2335L203.385 16H201.418L198.741 11.3885H197.182V16H195.484ZM197.182 9.69085H199.508C199.834 9.69085 200.131 9.60923 200.397 9.446C200.67 9.28276 200.884 9.06511 201.042 8.79304C201.2 8.52098 201.279 8.21355 201.279 7.87075C201.279 7.52795 201.2 7.22052 201.042 6.94845C200.884 6.67095 200.67 6.4533 200.397 6.2955C200.131 6.13226 199.834 6.05064 199.508 6.05064H197.182V9.69085ZM208.146 16.2122C207.395 16.2122 206.709 16.019 206.089 15.6327C205.474 15.2464 204.982 14.7295 204.612 14.082C204.247 13.429 204.065 12.708 204.065 11.9191C204.065 11.3205 204.171 10.7628 204.383 10.2459C204.595 9.7235 204.886 9.26643 205.256 8.87466C205.632 8.47745 206.067 8.1673 206.562 7.94421C207.058 7.72111 207.585 7.60957 208.146 7.60957C208.772 7.60957 209.346 7.74016 209.868 8.00134C210.39 8.25708 210.836 8.61348 211.206 9.07055C211.577 9.52217 211.849 10.0445 212.023 10.6376C212.197 11.2253 212.248 11.851 212.178 12.5149H205.885C205.956 12.8903 206.092 13.2304 206.293 13.5351C206.5 13.8344 206.761 14.0711 207.077 14.2452C207.398 14.4193 207.754 14.5091 208.146 14.5145C208.559 14.5145 208.935 14.4112 209.272 14.2044C209.615 13.9976 209.895 13.7119 210.113 13.3474L211.835 13.7473C211.508 14.471 211.016 15.0641 210.358 15.5266C209.699 15.9837 208.962 16.2122 208.146 16.2122ZM205.828 11.2171H210.464C210.409 10.8254 210.271 10.4717 210.048 10.1561C209.83 9.83505 209.555 9.58203 209.223 9.39702C208.897 9.20658 208.538 9.11136 208.146 9.11136C207.759 9.11136 207.4 9.20386 207.068 9.38886C206.742 9.57386 206.47 9.82688 206.252 10.1479C206.04 10.4635 205.899 10.8199 205.828 11.2171ZM218.843 13.682L220.361 14.5064C219.991 15.0233 219.521 15.4368 218.949 15.747C218.383 16.0571 217.769 16.2122 217.105 16.2122C216.354 16.2122 215.668 16.019 215.048 15.6327C214.433 15.2464 213.941 14.7295 213.571 14.082C213.206 13.429 213.024 12.708 213.024 11.9191C213.024 11.3205 213.13 10.7628 213.342 10.2459C213.554 9.7235 213.845 9.26643 214.215 8.87466C214.591 8.47745 215.026 8.1673 215.521 7.94421C216.016 7.72111 216.544 7.60957 217.105 7.60957C217.769 7.60957 218.383 7.76464 218.949 8.0748C219.521 8.38495 219.991 8.80121 220.361 9.32357L218.843 10.1479C218.615 9.87586 218.348 9.66909 218.043 9.52761C217.739 9.3807 217.426 9.30724 217.105 9.30724C216.659 9.30724 216.253 9.42967 215.889 9.67453C215.529 9.91394 215.244 10.2323 215.032 10.6295C214.825 11.0212 214.721 11.4511 214.721 11.9191C214.721 12.3816 214.828 12.8114 215.04 13.2086C215.252 13.6004 215.538 13.916 215.897 14.1554C216.261 14.3948 216.664 14.5145 217.105 14.5145C217.442 14.5145 217.763 14.4384 218.068 14.286C218.373 14.1336 218.631 13.9323 218.843 13.682ZM217.154 19.0444C216.778 19.1423 216.422 19.0934 216.084 18.8975C215.753 18.707 215.535 18.4268 215.432 18.0568L216.346 17.8119C216.378 17.9316 216.449 18.0214 216.558 18.0813C216.667 18.1466 216.784 18.1629 216.909 18.1303C217.034 18.0976 217.127 18.0269 217.186 17.918C217.252 17.8092 217.268 17.6922 217.235 17.5671C217.203 17.4419 217.132 17.3494 217.023 17.2896C216.914 17.2352 216.797 17.2188 216.672 17.2406L215.717 17.2977L216.811 15.3797L217.635 15.8531L217.309 16.4081C217.51 16.4788 217.684 16.5931 217.831 16.7509C217.984 16.9141 218.087 17.1073 218.141 17.3304C218.245 17.7004 218.198 18.0541 218.003 18.3914C217.812 18.7288 217.529 18.9464 217.154 19.0444ZM221.365 12.9393V7.8381H223.063V12.523C223.063 12.8876 223.152 13.2195 223.332 13.5188C223.511 13.8181 223.751 14.0575 224.05 14.237C224.349 14.4112 224.679 14.4982 225.038 14.4982C225.402 14.4982 225.731 14.4112 226.025 14.237C226.325 14.0575 226.561 13.8181 226.735 13.5188C226.915 13.2195 227.005 12.8876 227.005 12.523V7.8381H228.702L228.711 16H227.013L227.005 15.1185C226.727 15.4559 226.382 15.7225 225.968 15.9184C225.555 16.1143 225.111 16.2122 224.638 16.2122C224.034 16.2122 223.484 16.0653 222.989 15.7715C222.494 15.4776 222.099 15.0831 221.806 14.588C221.512 14.0928 221.365 13.5433 221.365 12.9393Z" fill="#090F1F"/>
<path d="M62.2054 40.1628V36.692H58.7346V34.4516H62.2054V30.9807H64.4459V34.4516H67.9167V36.692H64.4459V40.1628H62.2054ZM73.3448 41.3198C72.5674 41.3198 71.8665 41.1361 71.2421 40.7689C70.6177 40.4016 70.1219 39.9088 69.7546 39.2905C69.3873 38.6662 69.2036 37.9744 69.2036 37.2154H71.4441C71.4441 37.5582 71.5237 37.8704 71.6828 38.152C71.8481 38.4335 72.0746 38.66 72.3623 38.8314C72.65 38.9967 72.9775 39.0793 73.3448 39.0793C73.6815 39.0793 73.9937 38.9967 74.2814 38.8314C74.5752 38.66 74.8109 38.4335 74.9884 38.152C75.1659 37.8704 75.2547 37.5582 75.2547 37.2154C75.2547 36.7685 75.1353 36.3982 74.8966 36.1043C74.6578 35.8044 74.3242 35.581 73.8957 35.434C73.4733 35.2871 72.9806 35.2137 72.4174 35.2137V33.4874C73.1764 33.4874 73.7763 33.3436 74.2171 33.0559C74.664 32.7682 74.8874 32.3458 74.8874 31.7887C74.8874 31.501 74.8139 31.2378 74.667 30.9991C74.5201 30.7603 74.3242 30.5706 74.0794 30.4298C73.8406 30.2829 73.5774 30.2094 73.2897 30.2094C72.9959 30.2094 72.7112 30.2829 72.4358 30.4298C72.1603 30.5706 71.9338 30.7603 71.7563 30.9991C71.5849 31.2378 71.4992 31.501 71.4992 31.7887H69.2587C69.2587 31.2623 69.3659 30.7695 69.5801 30.3104C69.7944 29.8452 70.0882 29.4381 70.4616 29.0892C70.8411 28.7403 71.2696 28.4679 71.7471 28.272C72.2307 28.07 72.7357 27.969 73.2621 27.969C73.9539 27.969 74.5936 28.1404 75.1812 28.4832C75.7689 28.826 76.2402 29.2851 76.5953 29.8605C76.9503 30.4359 77.1278 31.0786 77.1278 31.7887C77.1278 32.2846 77.0115 32.7712 76.7789 33.2487C76.5463 33.7262 76.2157 34.0628 75.7872 34.2587C76.1606 34.3934 76.4728 34.6199 76.7238 34.9382C76.9748 35.2504 77.1646 35.6085 77.2931 36.0125C77.4278 36.4104 77.4951 36.8114 77.4951 37.2154C77.4951 37.9683 77.3053 38.657 76.9258 39.2814C76.5463 39.8996 76.0413 40.3955 75.4108 40.7689C74.7864 41.1361 74.0977 41.3198 73.3448 41.3198ZM87.512 41.3198C86.6856 41.3198 85.9388 41.1208 85.2715 40.723C84.6043 40.3189 84.0748 39.7833 83.683 39.1161C83.2974 38.4488 83.1045 37.7173 83.1045 36.9215H85.345C85.345 37.3194 85.4429 37.6837 85.6388 38.0142C85.8347 38.3387 86.0948 38.5988 86.4193 38.7947C86.7498 38.9845 87.1141 39.0793 87.512 39.0793C87.9099 39.0793 88.271 38.9845 88.5955 38.7947C88.9199 38.5988 89.18 38.3387 89.3759 38.0142C89.5718 37.6837 89.6698 37.3194 89.6698 36.9215C89.6698 36.5237 89.5841 36.1594 89.4127 35.8289C89.2474 35.4922 88.975 35.2259 88.5955 35.03C88.222 34.828 87.7262 34.727 87.1079 34.727H83.8024L85.1613 28.2261H91.4786V30.4665H86.9794L86.5662 32.4866L87.4752 32.4958C88.3445 32.5264 89.1127 32.7376 89.7799 33.1293C90.4472 33.5211 90.9675 34.0475 91.3409 34.7087C91.7204 35.3636 91.9102 36.1013 91.9102 36.9215C91.9102 37.5214 91.797 38.0877 91.5705 38.6202C91.344 39.1528 91.0287 39.6211 90.6247 40.0251C90.2207 40.4291 89.7524 40.7474 89.2198 40.9801C88.6934 41.2065 88.1241 41.3198 87.512 41.3198ZM93.7415 41.0811V39.0793C94.1394 38.7794 94.6107 38.4091 95.1555 37.9683C95.7003 37.5214 96.2604 37.0409 96.8358 36.5267C97.4113 36.0064 97.9438 35.4861 98.4335 34.9658C98.9233 34.4454 99.3211 33.9496 99.6272 33.4782C99.9394 33.0069 100.096 32.6029 100.096 32.2662C100.096 31.8928 100.004 31.5531 99.82 31.247C99.6364 30.9348 99.3915 30.6869 99.0855 30.5032C98.7855 30.3196 98.4488 30.2278 98.0754 30.2278C97.702 30.2278 97.3623 30.3196 97.0562 30.5032C96.7501 30.6869 96.5053 30.9348 96.3216 31.247C96.138 31.5531 96.0462 31.8928 96.0462 32.2662H93.8057C93.8057 31.4582 94.0016 30.7328 94.3934 30.09C94.7852 29.4412 95.3024 28.93 95.9452 28.5566C96.5941 28.1771 97.3041 27.9873 98.0754 27.9873C98.859 27.9873 99.5721 28.1802 100.215 28.5658C100.858 28.9453 101.372 29.4595 101.757 30.1084C102.143 30.7573 102.336 31.4765 102.336 32.2662C102.336 32.6825 102.259 33.1018 102.106 33.5242C101.953 33.9465 101.739 34.372 101.464 34.8005C101.188 35.229 100.864 35.6636 100.49 36.1043C100.117 36.539 99.7037 36.9858 99.2507 37.4449C98.8039 37.8979 98.3325 38.3631 97.8367 38.8406H102.4V41.0811H93.7415ZM108.587 41.3198C107.84 41.3198 107.161 41.1484 106.549 40.8056C105.937 40.4567 105.407 39.9761 104.96 39.364C104.519 38.7519 104.18 38.0448 103.941 37.2429C103.702 36.4349 103.583 35.5718 103.583 34.6536C103.583 33.7353 103.702 32.8753 103.941 32.0734C104.18 31.2654 104.519 30.5553 104.96 29.9431C105.407 29.331 105.937 28.8535 106.549 28.5107C107.161 28.1618 107.84 27.9873 108.587 27.9873C109.334 27.9873 110.013 28.1618 110.626 28.5107C111.238 28.8535 111.761 29.331 112.196 29.9431C112.636 30.5553 112.976 31.2654 113.215 32.0734C113.46 32.8753 113.582 33.7353 113.582 34.6536C113.582 35.5718 113.46 36.4349 113.215 37.2429C112.976 38.0448 112.636 38.7519 112.196 39.364C111.761 39.9761 111.238 40.4567 110.626 40.8056C110.013 41.1484 109.334 41.3198 108.587 41.3198ZM108.587 39.0793C109.242 39.0793 109.784 38.8712 110.212 38.455C110.641 38.0387 110.959 37.4939 111.167 36.8205C111.375 36.1472 111.479 35.4249 111.479 34.6536C111.479 33.8394 111.369 33.0987 111.149 32.4315C110.929 31.7581 110.604 31.2225 110.176 30.8246C109.747 30.4267 109.218 30.2278 108.587 30.2278C108.091 30.2278 107.66 30.3502 107.292 30.5951C106.931 30.8338 106.631 31.1613 106.393 31.5775C106.154 31.9938 105.976 32.4682 105.86 33.0008C105.744 33.5272 105.686 34.0781 105.686 34.6536C105.686 35.4187 105.79 36.1411 105.998 36.8205C106.212 37.4939 106.533 38.0387 106.962 38.455C107.396 38.8712 107.938 39.0793 108.587 39.0793ZM128.103 41.228C127.283 41.3626 126.493 41.3473 125.734 41.1821C124.975 41.0168 124.277 40.726 123.641 40.3098C123.01 39.8935 122.465 39.3762 122.006 38.758C121.547 38.1336 121.201 37.4296 120.969 36.6461H119.279V35.1127H120.693V34.222H119.279V32.6886H120.969C121.195 31.8928 121.541 31.1827 122.006 30.5583C122.472 29.9278 123.023 29.4044 123.659 28.9882C124.296 28.5719 124.991 28.2842 125.744 28.1251C126.496 27.9598 127.283 27.9445 128.103 28.0791V30.393C127.589 30.2523 127.093 30.2094 126.616 30.2645C126.144 30.3135 125.701 30.4451 125.284 30.6593C124.874 30.8736 124.507 31.1521 124.183 31.4949C123.858 31.8377 123.595 32.2356 123.393 32.6886H125.881V34.222H122.934L122.952 35.1127H125.881V36.6461H123.411C123.619 37.1052 123.886 37.5061 124.21 37.8489C124.541 38.1917 124.914 38.4672 125.33 38.6753C125.747 38.8773 126.187 39.0028 126.653 39.0518C127.124 39.0947 127.607 39.0487 128.103 38.9141V41.228Z" fill="#0095FC"/>
<path d="M60.471 70.2429V60.3303H61.7994V70.2429H60.471ZM58.4428 61.5301V60.3303H61.6565V61.5301H58.4428ZM68.5178 70.3858C67.9464 70.3858 67.4418 70.2762 67.0037 70.0572C66.5752 69.8287 66.2229 69.524 65.9468 69.1431L66.8895 68.2718C67.0704 68.5384 67.2942 68.7432 67.5608 68.886C67.8369 69.0288 68.1416 69.1003 68.4749 69.1003C68.8082 69.1003 69.1034 69.0288 69.3605 68.886C69.6176 68.7432 69.8176 68.5337 69.9604 68.2575C70.1127 67.9719 70.1889 67.6243 70.1889 67.2149V60.3303H71.5316V67.1434C71.5316 67.8005 71.3982 68.3718 71.1316 68.8574C70.8745 69.3431 70.5174 69.7192 70.0604 69.9858C69.6128 70.2524 69.0986 70.3858 68.5178 70.3858ZM76.4181 70.3858C75.7992 70.3858 75.2374 70.2334 74.7327 69.9287C74.228 69.6145 73.8281 69.1907 73.5329 68.6575C73.2472 68.1242 73.1044 67.5243 73.1044 66.8578C73.1044 66.1912 73.2472 65.5913 73.5329 65.0581C73.8281 64.5248 74.2233 64.1011 74.7184 63.7869C75.2231 63.4726 75.7897 63.3155 76.4181 63.3155C76.9323 63.3155 77.3894 63.425 77.7893 63.644C78.1988 63.8535 78.5273 64.1487 78.7749 64.5296C79.0224 64.901 79.1605 65.3342 79.1891 65.8294V67.8719C79.1605 68.3575 79.0224 68.7908 78.7749 69.1717C78.5368 69.5526 78.2131 69.8525 77.8036 70.0715C77.4037 70.281 76.9418 70.3858 76.4181 70.3858ZM76.6324 69.1717C77.2704 69.1717 77.7846 68.9574 78.175 68.5289C78.5654 68.0909 78.7606 67.5338 78.7606 66.8578C78.7606 66.3912 78.6701 65.9865 78.4892 65.6437C78.3178 65.2914 78.0702 65.02 77.7465 64.8295C77.4227 64.6296 77.0466 64.5296 76.6181 64.5296C76.1896 64.5296 75.8087 64.6296 75.4754 64.8295C75.1517 65.0295 74.8946 65.3057 74.7041 65.658C74.5232 66.0008 74.4327 66.3959 74.4327 66.8435C74.4327 67.3006 74.5232 67.7052 74.7041 68.0576C74.8946 68.4004 75.1564 68.6718 75.4897 68.8717C75.823 69.0717 76.2039 69.1717 76.6324 69.1717ZM78.6749 70.2429V68.4147L78.9177 66.7578L78.6749 65.1152V63.4583H79.9747V70.2429H78.6749ZM86.6454 70.2429V66.2864C86.6454 65.7722 86.4836 65.3485 86.1598 65.0152C85.836 64.6819 85.4171 64.5153 84.9029 64.5153C84.5601 64.5153 84.2554 64.5915 83.9887 64.7438C83.7221 64.8962 83.5126 65.1057 83.3603 65.3723C83.2079 65.6389 83.1317 65.9436 83.1317 66.2864L82.6032 65.9865C82.6032 65.4723 82.7175 65.0152 82.946 64.6153C83.1746 64.2154 83.4936 63.9011 83.903 63.6726C84.3125 63.4345 84.7743 63.3155 85.2885 63.3155C85.8027 63.3155 86.255 63.4441 86.6454 63.7012C87.0454 63.9583 87.3596 64.2963 87.5881 64.7153C87.8167 65.1247 87.9309 65.5628 87.9309 66.0293V70.2429H86.6454ZM81.8462 70.2429V63.4583H83.1317V70.2429H81.8462ZM89.7428 71.8141L90.6284 70.1144L91.0854 70.0001C91.0378 70.1048 90.9759 70.1905 90.8997 70.2572C90.8331 70.3239 90.7474 70.3572 90.6426 70.3572C90.4427 70.3572 90.257 70.2762 90.0856 70.1144C89.9237 69.943 89.8428 69.7335 89.8428 69.4859C89.8428 69.2098 89.9332 68.9812 90.1142 68.8003C90.2951 68.6099 90.5236 68.5146 90.7998 68.5146C91.0473 68.5146 91.2663 68.6099 91.4568 68.8003C91.6472 68.9812 91.7425 69.2098 91.7425 69.4859C91.7425 69.5906 91.7186 69.7192 91.671 69.8716C91.6329 70.0144 91.552 70.2001 91.4282 70.4286L90.4855 72.214L89.7428 71.8141ZM96.1046 69.4288L99.7611 65.5723C100.132 65.1914 100.423 64.8629 100.632 64.5867C100.842 64.3011 100.989 64.0392 101.075 63.8011C101.17 63.5631 101.218 63.3155 101.218 63.0584C101.218 62.5537 101.056 62.1586 100.732 61.8729C100.409 61.5872 99.9896 61.4444 99.4754 61.4444C98.9707 61.4444 98.528 61.5682 98.1471 61.8158C97.7662 62.0538 97.4281 62.4252 97.133 62.9299L96.1903 62.1443C96.5807 61.4968 97.052 61.0111 97.6043 60.6874C98.1566 60.3541 98.7946 60.1875 99.5183 60.1875C100.128 60.1875 100.656 60.3065 101.104 60.5445C101.561 60.7826 101.913 61.1159 102.161 61.5444C102.408 61.9729 102.532 62.4728 102.532 63.0441C102.532 63.4536 102.48 63.8202 102.375 64.1439C102.28 64.4677 102.104 64.801 101.846 65.1438C101.599 65.4771 101.251 65.877 100.804 66.3436L97.8471 69.3859L96.1046 69.4288ZM96.1046 70.2429V69.4288L97.2472 69.0431H102.761V70.2429H96.1046ZM108.074 70.3858C107.331 70.3858 106.651 70.1763 106.032 69.7573C105.422 69.3383 104.937 68.7479 104.575 67.9862C104.213 67.2149 104.032 66.3102 104.032 65.2723C104.032 64.2344 104.208 63.3346 104.561 62.5728C104.922 61.811 105.408 61.2254 106.017 60.8159C106.627 60.3969 107.298 60.1875 108.031 60.1875C108.784 60.1875 109.464 60.3969 110.074 60.8159C110.683 61.2254 111.164 61.811 111.516 62.5728C111.878 63.3346 112.059 64.2392 112.059 65.2866C112.059 66.3245 111.878 67.2291 111.516 68.0004C111.164 68.7622 110.683 69.3526 110.074 69.7716C109.474 70.181 108.807 70.3858 108.074 70.3858ZM108.046 69.1145C108.569 69.1145 109.026 68.9717 109.417 68.686C109.817 68.3908 110.131 67.9576 110.36 67.3863C110.588 66.8149 110.702 66.1103 110.702 65.2723C110.702 64.4344 110.588 63.7345 110.36 63.1727C110.131 62.6013 109.817 62.1728 109.417 61.8872C109.017 61.592 108.555 61.4444 108.031 61.4444C107.517 61.4444 107.06 61.592 106.66 61.8872C106.26 62.1728 105.946 62.6013 105.717 63.1727C105.498 63.7345 105.389 64.4344 105.389 65.2723C105.389 66.1103 105.498 66.8149 105.717 67.3863C105.946 67.9576 106.26 68.3908 106.66 68.686C107.06 68.9717 107.522 69.1145 108.046 69.1145ZM113.178 69.4288L116.834 65.5723C117.205 65.1914 117.496 64.8629 117.705 64.5867C117.915 64.3011 118.062 64.0392 118.148 63.8011C118.243 63.5631 118.291 63.3155 118.291 63.0584C118.291 62.5537 118.129 62.1586 117.805 61.8729C117.482 61.5872 117.063 61.4444 116.548 61.4444C116.044 61.4444 115.601 61.5682 115.22 61.8158C114.839 62.0538 114.501 62.4252 114.206 62.9299L113.263 62.1443C113.654 61.4968 114.125 61.0111 114.677 60.6874C115.23 60.3541 115.868 60.1875 116.591 60.1875C117.201 60.1875 117.729 60.3065 118.177 60.5445C118.634 60.7826 118.986 61.1159 119.234 61.5444C119.481 61.9729 119.605 62.4728 119.605 63.0441C119.605 63.4536 119.553 63.8202 119.448 64.1439C119.353 64.4677 119.177 64.801 118.919 65.1438C118.672 65.4771 118.324 65.877 117.877 66.3436L114.92 69.3859L113.178 69.4288ZM113.178 70.2429V69.4288L114.32 69.0431H119.834V70.2429H113.178ZM123.976 70.3858C123.3 70.3858 122.695 70.2667 122.162 70.0287C121.638 69.7811 121.196 69.424 120.834 68.9574L121.748 68.0433C121.967 68.3766 122.267 68.6432 122.648 68.8432C123.038 69.0336 123.471 69.1288 123.947 69.1288C124.395 69.1288 124.785 69.0431 125.119 68.8717C125.461 68.7003 125.728 68.4623 125.919 68.1576C126.119 67.8433 126.218 67.472 126.218 67.0435C126.218 66.6054 126.123 66.2341 125.933 65.9294C125.742 65.6246 125.485 65.3961 125.162 65.2438C124.847 65.0819 124.5 65.0009 124.119 65.0009C123.728 65.0009 123.371 65.0486 123.048 65.1438C122.733 65.239 122.433 65.4009 122.148 65.6294L122.162 64.7724C122.324 64.5724 122.51 64.4106 122.719 64.2868C122.929 64.163 123.167 64.0678 123.433 64.0011C123.7 63.9345 124.009 63.9011 124.362 63.9011C125.047 63.9011 125.628 64.044 126.104 64.3296C126.58 64.6153 126.942 65.0009 127.19 65.4866C127.447 65.9722 127.575 66.515 127.575 67.1149C127.575 67.7433 127.418 68.3051 127.104 68.8003C126.799 69.2955 126.376 69.6859 125.833 69.9715C125.29 70.2477 124.671 70.3858 123.976 70.3858ZM122.148 65.6294L121.419 64.901L121.862 60.3303H123.09L122.591 65.0295L122.148 65.6294ZM122.133 61.5301L121.862 60.3303H127.075V61.5301H122.133Z" fill="#4D525F"/>
<path d="M157.014 70.3858C156.366 70.3858 155.776 70.2667 155.243 70.0287C154.719 69.7811 154.276 69.424 153.914 68.9574L154.828 68.0433C155.047 68.3766 155.347 68.6432 155.728 68.8432C156.109 69.0336 156.533 69.1288 156.999 69.1288C157.437 69.1288 157.814 69.0479 158.128 68.886C158.452 68.7146 158.704 68.4765 158.885 68.1718C159.075 67.8671 159.17 67.5148 159.17 67.1149C159.17 66.7054 159.075 66.3531 158.885 66.0579C158.704 65.7532 158.447 65.5199 158.114 65.358C157.78 65.1961 157.385 65.1152 156.928 65.1152C156.757 65.1152 156.585 65.1295 156.414 65.1581C156.242 65.1771 156.076 65.2104 155.914 65.258L156.485 64.4867C156.666 64.401 156.861 64.3344 157.071 64.2868C157.28 64.2392 157.49 64.2154 157.699 64.2154C158.233 64.2154 158.709 64.3391 159.128 64.5867C159.556 64.8343 159.894 65.1819 160.142 65.6294C160.399 66.077 160.527 66.5959 160.527 67.1863C160.527 67.8148 160.375 68.3718 160.07 68.8574C159.775 69.3335 159.366 69.7097 158.842 69.9858C158.318 70.2524 157.709 70.3858 157.014 70.3858ZM155.914 65.258V64.4439L158.813 61.1444L160.413 61.1302L157.428 64.5153L155.914 65.258ZM154.386 61.5301V60.3303H160.413V61.1302L159.242 61.5301H154.386ZM162.838 70.3858C162.571 70.3858 162.348 70.2953 162.167 70.1144C161.995 69.9239 161.91 69.7002 161.91 69.4431C161.91 69.1764 161.995 68.9574 162.167 68.786C162.348 68.6051 162.571 68.5146 162.838 68.5146C163.105 68.5146 163.324 68.6051 163.495 68.786C163.676 68.9574 163.766 69.1764 163.766 69.4431C163.766 69.7002 163.676 69.9239 163.495 70.1144C163.324 70.2953 163.105 70.3858 162.838 70.3858ZM169.233 70.3858C168.49 70.3858 167.809 70.1763 167.19 69.7573C166.581 69.3383 166.095 68.7479 165.733 67.9862C165.371 67.2149 165.19 66.3102 165.19 65.2723C165.19 64.2344 165.367 63.3346 165.719 62.5728C166.081 61.811 166.566 61.2254 167.176 60.8159C167.785 60.3969 168.456 60.1875 169.19 60.1875C169.942 60.1875 170.623 60.3969 171.232 60.8159C171.842 61.2254 172.322 61.811 172.675 62.5728C173.037 63.3346 173.218 64.2392 173.218 65.2866C173.218 66.3245 173.037 67.2291 172.675 68.0004C172.322 68.7622 171.842 69.3526 171.232 69.7716C170.632 70.181 169.966 70.3858 169.233 70.3858ZM169.204 69.1145C169.728 69.1145 170.185 68.9717 170.575 68.686C170.975 68.3908 171.289 67.9576 171.518 67.3863C171.746 66.8149 171.861 66.1103 171.861 65.2723C171.861 64.4344 171.746 63.7345 171.518 63.1727C171.289 62.6013 170.975 62.1728 170.575 61.8872C170.175 61.592 169.713 61.4444 169.19 61.4444C168.675 61.4444 168.218 61.592 167.818 61.8872C167.419 62.1728 167.104 62.6013 166.876 63.1727C166.657 63.7345 166.547 64.4344 166.547 65.2723C166.547 66.1103 166.657 66.8149 166.876 67.3863C167.104 67.9576 167.419 68.3908 167.818 68.686C168.218 68.9717 168.68 69.1145 169.204 69.1145ZM175.992 70.2429L178.977 66.1722L179.463 65.9151C179.349 66.1055 179.211 66.2722 179.049 66.415C178.887 66.5578 178.687 66.6673 178.449 66.7435C178.22 66.8197 177.939 66.8578 177.606 66.8578C177.035 66.8578 176.506 66.7197 176.021 66.4436C175.545 66.1674 175.164 65.7865 174.878 65.3009C174.592 64.8057 174.45 64.2487 174.45 63.6297C174.45 62.9918 174.607 62.4157 174.921 61.9015C175.235 61.3777 175.654 60.9635 176.178 60.6588C176.702 60.3446 177.282 60.1875 177.92 60.1875C178.568 60.1875 179.153 60.3398 179.677 60.6445C180.201 60.9492 180.615 61.3587 180.92 61.8729C181.225 62.3776 181.377 62.9489 181.377 63.5869C181.377 64.4629 181.072 65.3342 180.463 66.2007L177.549 70.2429H175.992ZM177.92 65.8008C178.32 65.8008 178.677 65.7056 178.992 65.5151C179.315 65.3152 179.568 65.0533 179.749 64.7296C179.939 64.3963 180.034 64.0297 180.034 63.6297C180.034 63.2108 179.939 62.8394 179.749 62.5156C179.568 62.1824 179.315 61.9205 178.992 61.7301C178.677 61.5396 178.32 61.4444 177.92 61.4444C177.52 61.4444 177.159 61.5396 176.835 61.7301C176.521 61.9205 176.268 62.1824 176.078 62.5156C175.887 62.8394 175.792 63.2108 175.792 63.6297C175.792 64.0392 175.887 64.4058 176.078 64.7296C176.268 65.0533 176.525 65.3152 176.849 65.5151C177.173 65.7056 177.53 65.8008 177.92 65.8008ZM182.84 70.2429L189.196 60.3303H190.496L184.14 70.2429H182.84ZM188.654 70.3858C188.282 70.3858 187.944 70.2953 187.639 70.1144C187.335 69.9334 187.092 69.6954 186.911 69.4002C186.73 69.0955 186.64 68.7527 186.64 68.3718C186.64 68.0004 186.73 67.6672 186.911 67.372C187.092 67.0673 187.335 66.8244 187.639 66.6435C187.944 66.4626 188.282 66.3721 188.654 66.3721C189.025 66.3721 189.363 66.4626 189.668 66.6435C189.982 66.8244 190.23 67.0673 190.41 67.372C190.591 67.6672 190.682 68.0004 190.682 68.3718C190.682 68.7527 190.591 69.0955 190.41 69.4002C190.23 69.6954 189.987 69.9334 189.682 70.1144C189.377 70.2953 189.034 70.3858 188.654 70.3858ZM188.654 69.3716C188.939 69.3716 189.173 69.2812 189.353 69.1003C189.534 68.9098 189.625 68.667 189.625 68.3718C189.625 68.0861 189.53 67.8528 189.339 67.6719C189.158 67.4815 188.93 67.3863 188.654 67.3863C188.377 67.3863 188.149 67.4815 187.968 67.6719C187.787 67.8528 187.697 68.0861 187.697 68.3718C187.697 68.667 187.787 68.9098 187.968 69.1003C188.149 69.2812 188.377 69.3716 188.654 69.3716ZM184.669 64.2011C184.307 64.2011 183.973 64.1106 183.669 63.9297C183.364 63.7488 183.121 63.506 182.94 63.2012C182.759 62.8965 182.669 62.5585 182.669 62.1871C182.669 61.8062 182.755 61.4682 182.926 61.173C183.107 60.8778 183.35 60.6398 183.654 60.4588C183.959 60.2779 184.297 60.1875 184.669 60.1875C185.049 60.1875 185.392 60.2779 185.697 60.4588C186.002 60.6398 186.244 60.8778 186.425 61.173C186.606 61.4682 186.697 61.8062 186.697 62.1871C186.697 62.5585 186.606 62.8965 186.425 63.2012C186.244 63.506 186.002 63.7488 185.697 63.9297C185.402 64.1106 185.059 64.2011 184.669 64.2011ZM184.669 63.187C184.954 63.187 185.188 63.0965 185.368 62.9156C185.549 62.7251 185.64 62.4823 185.64 62.1871C185.64 61.8919 185.545 61.6539 185.354 61.473C185.173 61.292 184.945 61.2016 184.669 61.2016C184.392 61.2016 184.164 61.292 183.983 61.473C183.812 61.6539 183.726 61.8919 183.726 62.1871C183.726 62.4823 183.812 62.7251 183.983 62.9156C184.164 63.0965 184.392 63.187 184.669 63.187Z" fill="#00B24E"/>
<path d="M206.4 61.2886H209.605V64.4937" stroke="#00B24E" stroke-width="1.02024" stroke-linecap="round" stroke-linejoin="round"/>
<path d="M209.605 61.2881L204.53 66.3635L201.859 63.6921L197.852 67.6989" stroke="#00B24E" stroke-width="1.02024" stroke-linecap="round" stroke-linejoin="round"/>
</svg>
