<svg width="200" height="92" viewBox="0 0 200 92" fill="none" xmlns="http://www.w3.org/2000/svg">
<rect x="1" y="1" width="38" height="38" rx="19" fill="#D9EFFF"/>
<rect x="1" y="1" width="38" height="38" rx="19" stroke="#0095FC" stroke-width="2"/>
<path opacity="0.2" d="M30.1539 13.2309V28.4617H9.84607V11.5386H28.4615C28.9104 11.5386 29.3408 11.7169 29.6582 12.0342C29.9756 12.3516 30.1539 12.7821 30.1539 13.2309Z" fill="#0095FC"/>
<path d="M31 28.4617C31 28.6861 30.9108 28.9013 30.7522 29.06C30.5935 29.2187 30.3782 29.3079 30.1538 29.3079H9.84604C9.62162 29.3079 9.4064 29.2187 9.24771 29.06C9.08903 28.9013 8.99988 28.6861 8.99988 28.4617V11.5385C8.99988 11.3141 9.08903 11.0989 9.24771 10.9402C9.4064 10.7815 9.62162 10.6924 9.84604 10.6924C10.0705 10.6924 10.2857 10.7815 10.4444 10.9402C10.603 11.0989 10.6922 11.3141 10.6922 11.5385V23.0347L16.0166 17.7091C16.0952 17.6305 16.1886 17.5681 16.2913 17.5255C16.394 17.4829 16.5041 17.461 16.6153 17.461C16.7265 17.461 16.8366 17.4829 16.9393 17.5255C17.0421 17.5681 17.1354 17.6305 17.214 17.7091L19.9999 20.4962L25.5729 14.9232H23.3846C23.1602 14.9232 22.9449 14.834 22.7862 14.6753C22.6276 14.5167 22.5384 14.3014 22.5384 14.077C22.5384 13.8526 22.6276 13.6374 22.7862 13.4787C22.9449 13.32 23.1602 13.2309 23.3846 13.2309H27.6154C27.8398 13.2309 28.055 13.32 28.2137 13.4787C28.3724 13.6374 28.4615 13.8526 28.4615 14.077V18.3078C28.4615 18.5322 28.3724 18.7474 28.2137 18.9061C28.055 19.0648 27.8398 19.154 27.6154 19.154C27.3909 19.154 27.1757 19.0648 27.017 18.9061C26.8583 18.7474 26.7692 18.5322 26.7692 18.3078V16.1194L20.5986 22.2911C20.52 22.3698 20.4267 22.4322 20.324 22.4748C20.2212 22.5173 20.1111 22.5393 19.9999 22.5393C19.8887 22.5393 19.7786 22.5173 19.6759 22.4748C19.5732 22.4322 19.4799 22.3698 19.4013 22.2911L16.6153 19.5041L10.6922 25.4272V27.6155H30.1538C30.3782 27.6155 30.5935 27.7047 30.7522 27.8634C30.9108 28.0221 31 28.2373 31 28.4617Z" fill="#0095FC"/>
<path d="M50.9794 16L53.1913 4.57334H54.5625L57.4926 12.27L60.4064 4.57334H61.7776L63.9977 16H62.2673L60.79 8.3523L58.0558 15.5674H56.9131L54.1871 8.3523L52.7098 16H50.9794ZM68.7583 16.2122C68.0074 16.2122 67.3218 16.019 66.7015 15.6327C66.0867 15.2464 65.5942 14.7295 65.2242 14.082C64.8597 13.429 64.6774 12.708 64.6774 11.9191C64.6774 11.3205 64.7835 10.7628 64.9957 10.2459C65.2079 9.7235 65.499 9.26643 65.869 8.87466C66.2445 8.47745 66.6798 8.1673 67.1749 7.94421C67.6701 7.72111 68.1979 7.60957 68.7583 7.60957C69.5092 7.60957 70.1921 7.80273 70.807 8.18906C71.4273 8.57539 71.9197 9.09503 72.2843 9.74799C72.6543 10.4009 72.8393 11.1246 72.8393 11.9191C72.8393 12.5121 72.7332 13.0672 72.521 13.5841C72.3088 14.101 72.0149 14.5581 71.6395 14.9553C71.2695 15.347 70.8369 15.6545 70.3417 15.8776C69.852 16.1007 69.3242 16.2122 68.7583 16.2122ZM68.7583 14.5145C69.21 14.5145 69.6153 14.3948 69.9745 14.1554C70.3336 13.916 70.6165 13.6004 70.8233 13.2086C71.0355 12.8114 71.1416 12.3816 71.1416 11.9191C71.1416 11.4457 71.0328 11.0104 70.8151 10.6131C70.6029 10.2159 70.3173 9.90034 69.9581 9.66637C69.599 9.42695 69.1991 9.30724 68.7583 9.30724C68.3122 9.30724 67.9068 9.42695 67.5422 9.66637C67.1831 9.90578 66.8974 10.2241 66.6852 10.6213C66.4784 11.0185 66.3751 11.4511 66.3751 11.9191C66.3751 12.4033 66.4839 12.8413 66.7015 13.2331C66.9192 13.6249 67.2076 13.9378 67.5667 14.1717C67.9313 14.4003 68.3285 14.5145 68.7583 14.5145ZM81.5037 10.8825V16H79.806V11.2987C79.806 10.9342 79.7162 10.6023 79.5366 10.303C79.3625 10.0037 79.1258 9.76703 78.8266 9.59291C78.5327 9.41335 78.2008 9.32357 77.8308 9.32357C77.4717 9.32357 77.1425 9.41335 76.8432 9.59291C76.5439 9.76703 76.3045 10.0037 76.125 10.303C75.9454 10.6023 75.8556 10.9342 75.8556 11.2987V16H74.1579V7.8381H75.8556V8.70326C76.1386 8.3659 76.4868 8.09928 76.9003 7.9034C77.3139 7.70751 77.7601 7.60957 78.2389 7.60957C78.8429 7.60957 79.3924 7.75648 79.8876 8.05031C80.3828 8.34414 80.7745 8.73863 81.0629 9.23379C81.3567 9.72894 81.5037 10.2785 81.5037 10.8825ZM87.4423 9.53578H85.7283L85.7202 16H84.0225L84.0307 9.53578H82.7329V7.8381H84.0307L84.0225 5.27527H85.7202L85.7283 7.8381H87.4423V9.53578ZM95.0622 7.8381H96.7599V16H95.0541L94.9888 14.8165C94.7494 15.2355 94.4256 15.5729 94.0175 15.8286C93.6094 16.0843 93.1279 16.2122 92.5728 16.2122C91.9743 16.2122 91.4111 16.1007 90.8833 15.8776C90.3555 15.649 89.8903 15.3334 89.4876 14.9308C89.0904 14.5281 88.7803 14.0656 88.5572 13.5433C88.3341 13.0155 88.2226 12.4496 88.2226 11.8456C88.2226 11.2634 88.3314 10.7165 88.549 10.2051C88.7667 9.68813 89.0687 9.23651 89.455 8.85018C89.8413 8.46385 90.2875 8.16186 90.7936 7.94421C91.305 7.72111 91.8519 7.60957 92.4341 7.60957C93.0272 7.60957 93.5496 7.7456 94.0012 8.01766C94.4582 8.28428 94.8364 8.62708 95.1357 9.04606L95.0622 7.8381ZM92.532 14.5717C93.0109 14.5717 93.4298 14.4547 93.789 14.2207C94.1481 13.9813 94.4256 13.6603 94.6215 13.2576C94.8228 12.8549 94.9235 12.4088 94.9235 11.9191C94.9235 11.4239 94.8228 10.975 94.6215 10.5723C94.4202 10.1697 94.1399 9.85137 93.7808 9.61739C93.4271 9.37798 93.0109 9.25827 92.532 9.25827C92.0586 9.25827 91.6261 9.37798 91.2343 9.61739C90.8425 9.85681 90.5324 10.1778 90.3038 10.5805C90.0753 10.9832 89.961 11.4293 89.961 11.9191C89.961 12.4142 90.078 12.8631 90.312 13.2658C90.5514 13.663 90.8643 13.9813 91.2506 14.2207C91.6424 14.4547 92.0695 14.5717 92.532 14.5717ZM105.734 10.8825V16H104.037V11.2987C104.037 10.9342 103.947 10.6023 103.767 10.303C103.593 10.0037 103.356 9.76703 103.057 9.59291C102.763 9.41335 102.431 9.32357 102.061 9.32357C101.702 9.32357 101.373 9.41335 101.074 9.59291C100.775 9.76703 100.535 10.0037 100.356 10.303C100.176 10.6023 100.086 10.9342 100.086 11.2987V16H98.3886V7.8381H100.086V8.70326C100.369 8.3659 100.717 8.09928 101.131 7.9034C101.545 7.70751 101.991 7.60957 102.47 7.60957C103.074 7.60957 103.623 7.75648 104.118 8.05031C104.613 8.34414 105.005 8.73863 105.294 9.23379C105.587 9.72894 105.734 10.2785 105.734 10.8825ZM111.673 9.53578H109.959L109.951 16H108.253L108.261 9.53578H106.964V7.8381H108.261L108.253 5.27527H109.951L109.959 7.8381H111.673V9.53578ZM117.301 16V4.57334H118.998V16H117.301ZM128.546 10.8825V16H126.848V11.2987C126.848 10.9342 126.759 10.6023 126.579 10.303C126.405 10.0037 126.168 9.76703 125.869 9.59291C125.575 9.41335 125.243 9.32357 124.873 9.32357C124.514 9.32357 124.185 9.41335 123.886 9.59291C123.586 9.76703 123.347 10.0037 123.167 10.303C122.988 10.6023 122.898 10.9342 122.898 11.2987V16H121.2V7.8381H122.898V8.70326C123.181 8.3659 123.529 8.09928 123.943 7.9034C124.356 7.70751 124.803 7.60957 125.281 7.60957C125.885 7.60957 126.435 7.75648 126.93 8.05031C127.425 8.34414 127.817 8.73863 128.105 9.23379C128.399 9.72894 128.546 10.2785 128.546 10.8825ZM134.541 16H132.362L129.383 7.82178H131.195L133.447 14.0411L135.708 7.82178H137.512L134.541 16ZM142.04 16.2122C141.289 16.2122 140.604 16.019 139.983 15.6327C139.368 15.2464 138.876 14.7295 138.506 14.082C138.141 13.429 137.959 12.708 137.959 11.9191C137.959 11.3205 138.065 10.7628 138.277 10.2459C138.49 9.7235 138.781 9.26643 139.151 8.87466C139.526 8.47745 139.962 8.1673 140.457 7.94421C140.952 7.72111 141.48 7.60957 142.04 7.60957C142.666 7.60957 143.24 7.74016 143.762 8.00134C144.285 8.25708 144.731 8.61348 145.101 9.07055C145.471 9.52217 145.743 10.0445 145.917 10.6376C146.091 11.2253 146.143 11.851 146.072 12.5149H139.779C139.85 12.8903 139.986 13.2304 140.187 13.5351C140.394 13.8344 140.655 14.0711 140.971 14.2452C141.292 14.4193 141.648 14.5091 142.04 14.5145C142.454 14.5145 142.829 14.4112 143.166 14.2044C143.509 13.9976 143.789 13.7119 144.007 13.3474L145.729 13.7473C145.403 14.471 144.91 15.0641 144.252 15.5266C143.594 15.9837 142.856 16.2122 142.04 16.2122ZM139.722 11.2171H144.358C144.304 10.8254 144.165 10.4717 143.942 10.1561C143.724 9.83505 143.449 9.58203 143.117 9.39702C142.791 9.20658 142.432 9.11136 142.04 9.11136C141.654 9.11136 141.295 9.20386 140.963 9.38886C140.636 9.57386 140.364 9.82688 140.147 10.1479C139.934 10.4635 139.793 10.8199 139.722 11.2171ZM149.904 16.1551C149.474 16.1279 149.055 16.0408 148.647 15.8939C148.239 15.747 147.88 15.5484 147.57 15.2981C147.265 15.0423 147.037 14.7431 146.884 14.4003L148.329 13.78C148.4 13.9269 148.522 14.0711 148.696 14.2125C148.876 14.354 149.085 14.471 149.325 14.5635C149.564 14.6506 149.814 14.6941 150.076 14.6941C150.331 14.6941 150.568 14.6587 150.786 14.588C151.009 14.5118 151.191 14.3975 151.333 14.2452C151.474 14.0928 151.545 13.9106 151.545 13.6983C151.545 13.4589 151.463 13.2739 151.3 13.1433C151.142 13.0073 150.943 12.9039 150.704 12.8332C150.465 12.7624 150.225 12.6944 149.986 12.6291C149.453 12.5094 148.963 12.3462 148.517 12.1394C148.076 11.9272 147.725 11.6579 147.464 11.3314C147.203 10.9995 147.072 10.5941 147.072 10.1153C147.072 9.59291 147.213 9.14128 147.496 8.7604C147.779 8.37407 148.149 8.07752 148.606 7.87075C149.069 7.66398 149.561 7.5606 150.084 7.5606C150.737 7.5606 151.335 7.69935 151.879 7.97685C152.424 8.25436 152.84 8.63525 153.128 9.11952L151.781 9.91939C151.7 9.75615 151.577 9.60923 151.414 9.47864C151.251 9.34805 151.066 9.24467 150.859 9.16849C150.652 9.08687 150.437 9.04062 150.214 9.02974C149.937 9.01886 149.678 9.0515 149.439 9.12768C149.205 9.19842 149.017 9.31268 148.876 9.47048C148.734 9.62828 148.664 9.8296 148.664 10.0745C148.664 10.3139 148.748 10.4934 148.917 10.6131C149.085 10.7274 149.297 10.8199 149.553 10.8907C149.814 10.9614 150.081 11.0403 150.353 11.1273C150.837 11.2797 151.292 11.4674 151.716 11.6905C152.141 11.9082 152.483 12.1775 152.745 12.4985C153.006 12.8196 153.131 13.2114 153.12 13.6739C153.12 14.1853 152.965 14.6342 152.655 15.0206C152.35 15.4069 151.953 15.7007 151.463 15.9021C150.973 16.1034 150.454 16.1877 149.904 16.1551ZM158.827 9.53578H157.113L157.105 16H155.407L155.415 9.53578H154.118V7.8381H155.415L155.407 5.27527H157.105L157.113 7.8381H158.827V9.53578ZM160.177 7.8381H161.874V16H160.177V7.8381ZM161.042 6.65463C160.781 6.65463 160.563 6.57029 160.389 6.40161C160.215 6.23293 160.128 6.02072 160.128 5.76498C160.128 5.51468 160.215 5.30519 160.389 5.13651C160.563 4.96239 160.778 4.87533 161.034 4.87533C161.284 4.87533 161.496 4.96239 161.67 5.13651C161.844 5.30519 161.932 5.51468 161.932 5.76498C161.932 6.02072 161.844 6.23293 161.67 6.40161C161.502 6.57029 161.292 6.65463 161.042 6.65463Z" fill="#090F1F"/>
<path d="M50.3999 35.0287L54.085 31.1151C54.3897 30.7913 54.6373 30.5009 54.8278 30.2438C55.0182 29.9867 55.1563 29.7439 55.242 29.5154C55.3277 29.2868 55.3705 29.0535 55.3705 28.8155C55.3705 28.3679 55.2229 28.0204 54.9277 27.7728C54.6421 27.5157 54.2755 27.3872 53.8279 27.3872C53.3518 27.3872 52.9328 27.5062 52.571 27.7442C52.2092 27.9823 51.8854 28.3537 51.5997 28.8583L50.4571 27.9156C50.8475 27.2396 51.3283 26.7301 51.8997 26.3873C52.471 26.035 53.1328 25.8588 53.8851 25.8588C54.504 25.8588 55.0468 25.9826 55.5134 26.2302C55.98 26.4778 56.3418 26.8253 56.5989 27.2729C56.856 27.7109 56.9845 28.2203 56.9845 28.8012C56.9845 29.2202 56.9322 29.5963 56.8274 29.9296C56.7322 30.2533 56.5656 30.5819 56.3275 30.9151C56.0895 31.2389 55.7609 31.6198 55.342 32.0578L52.5139 34.9859L50.3999 35.0287ZM50.3999 36V35.0287L51.814 34.5288H57.1845V36H50.3999ZM62.4267 36.1428C61.6745 36.1428 60.9841 35.9333 60.3556 35.5144C59.7367 35.0859 59.2415 34.486 58.8702 33.7147C58.4988 32.9434 58.3131 32.034 58.3131 30.9866C58.3131 29.9391 58.494 29.0345 58.8559 28.2727C59.2272 27.5014 59.7224 26.9063 60.3413 26.4873C60.9603 26.0683 61.6459 25.8588 62.3981 25.8588C63.1599 25.8588 63.8503 26.0683 64.4692 26.4873C65.0882 26.9063 65.5786 27.5014 65.9404 28.2727C66.3118 29.0345 66.4975 29.9439 66.4975 31.0008C66.4975 32.0483 66.3118 32.9577 65.9404 33.729C65.5786 34.5003 65.0882 35.0954 64.4692 35.5144C63.8598 35.9333 63.179 36.1428 62.4267 36.1428ZM62.3981 34.6002C62.8933 34.6002 63.3218 34.4669 63.6836 34.2003C64.0455 33.9337 64.3264 33.5337 64.5264 33.0005C64.7359 32.4673 64.8406 31.7959 64.8406 30.9866C64.8406 30.1867 64.7359 29.5201 64.5264 28.9869C64.3264 28.4536 64.0407 28.0585 63.6694 27.8014C63.3075 27.5347 62.8838 27.4014 62.3981 27.4014C61.9125 27.4014 61.484 27.5347 61.1126 27.8014C60.7508 28.0585 60.4699 28.4536 60.2699 28.9869C60.07 29.5106 59.97 30.1772 59.97 30.9866C59.97 31.7959 60.07 32.4673 60.2699 33.0005C60.4699 33.5337 60.7508 33.9337 61.1126 34.2003C61.484 34.4669 61.9125 34.6002 62.3981 34.6002ZM71.7862 36.1428C71.0339 36.1428 70.3436 35.9333 69.7151 35.5144C69.0962 35.0859 68.601 34.486 68.2296 33.7147C67.8583 32.9434 67.6726 32.034 67.6726 30.9866C67.6726 29.9391 67.8535 29.0345 68.2154 28.2727C68.5867 27.5014 69.0819 26.9063 69.7008 26.4873C70.3198 26.0683 71.0054 25.8588 71.7576 25.8588C72.5194 25.8588 73.2098 26.0683 73.8287 26.4873C74.4477 26.9063 74.938 27.5014 75.2999 28.2727C75.6713 29.0345 75.8569 29.9439 75.8569 31.0008C75.8569 32.0483 75.6713 32.9577 75.2999 33.729C74.938 34.5003 74.4477 35.0954 73.8287 35.5144C73.2193 35.9333 72.5385 36.1428 71.7862 36.1428ZM71.7576 34.6002C72.2528 34.6002 72.6813 34.4669 73.0431 34.2003C73.405 33.9337 73.6859 33.5337 73.8858 33.0005C74.0953 32.4673 74.2001 31.7959 74.2001 30.9866C74.2001 30.1867 74.0953 29.5201 73.8858 28.9869C73.6859 28.4536 73.4002 28.0585 73.0288 27.8014C72.667 27.5347 72.2433 27.4014 71.7576 27.4014C71.272 27.4014 70.8435 27.5347 70.4721 27.8014C70.1103 28.0585 69.8294 28.4536 69.6294 28.9869C69.4294 29.5106 69.3295 30.1772 69.3295 30.9866C69.3295 31.7959 69.4294 32.4673 69.6294 33.0005C69.8294 33.5337 70.1103 33.9337 70.4721 34.2003C70.8435 34.4669 71.272 34.6002 71.7576 34.6002ZM81.1457 36.1428C80.3934 36.1428 79.7031 35.9333 79.0746 35.5144C78.4557 35.0859 77.9605 34.486 77.5891 33.7147C77.2178 32.9434 77.0321 32.034 77.0321 30.9866C77.0321 29.9391 77.213 29.0345 77.5748 28.2727C77.9462 27.5014 78.4414 26.9063 79.0603 26.4873C79.6793 26.0683 80.3649 25.8588 81.1171 25.8588C81.8789 25.8588 82.5693 26.0683 83.1882 26.4873C83.8071 26.9063 84.2975 27.5014 84.6594 28.2727C85.0307 29.0345 85.2164 29.9439 85.2164 31.0008C85.2164 32.0483 85.0307 32.9577 84.6594 33.729C84.2975 34.5003 83.8071 35.0954 83.1882 35.5144C82.5788 35.9333 81.8979 36.1428 81.1457 36.1428ZM81.1171 34.6002C81.6123 34.6002 82.0408 34.4669 82.4026 34.2003C82.7645 33.9337 83.0454 33.5337 83.2453 33.0005C83.4548 32.4673 83.5596 31.7959 83.5596 30.9866C83.5596 30.1867 83.4548 29.5201 83.2453 28.9869C83.0454 28.4536 82.7597 28.0585 82.3883 27.8014C82.0265 27.5347 81.6027 27.4014 81.1171 27.4014C80.6315 27.4014 80.203 27.5347 79.8316 27.8014C79.4698 28.0585 79.1889 28.4536 78.9889 28.9869C78.7889 29.5106 78.6889 30.1772 78.6889 30.9866C78.6889 31.7959 78.7889 32.4673 78.9889 33.0005C79.1889 33.5337 79.4698 33.9337 79.8316 34.2003C80.203 34.4669 80.6315 34.6002 81.1171 34.6002ZM91.9906 36.1428C91.2574 36.1428 90.5909 36.0143 89.991 35.7572C89.3911 35.4906 88.8721 35.124 88.4341 34.6574C87.9961 34.1813 87.658 33.6337 87.42 33.0148C87.1914 32.3863 87.0772 31.715 87.0772 31.0008C87.0772 30.2867 87.1914 29.6201 87.42 29.0012C87.658 28.3727 87.9961 27.8252 88.4341 27.3586C88.8721 26.892 89.3911 26.5254 89.991 26.2588C90.5909 25.9922 91.2574 25.8588 91.9906 25.8588C92.7429 25.8588 93.3904 25.9922 93.9332 26.2588C94.4854 26.5254 94.9901 26.8872 95.4472 27.3443L94.3331 28.4584C94.0379 28.1156 93.6951 27.8537 93.3047 27.6728C92.9143 27.4824 92.4525 27.3872 91.9192 27.3872C91.2717 27.3872 90.7051 27.5395 90.2195 27.8442C89.7434 28.1489 89.372 28.5727 89.1054 29.1154C88.8483 29.6582 88.7197 30.2867 88.7197 31.0008C88.7197 31.715 88.8531 32.3435 89.1197 32.8862C89.3863 33.429 89.7624 33.8527 90.2481 34.1575C90.7432 34.4622 91.3336 34.6145 92.0192 34.6145C92.5429 34.6145 92.9952 34.5193 93.3761 34.3289C93.7665 34.1384 94.1093 33.8718 94.4045 33.529L95.5186 34.6431C95.0615 35.1097 94.5426 35.4763 93.9617 35.7429C93.3809 36.0095 92.7238 36.1428 91.9906 36.1428ZM86.1202 30.3867V29.1012H92.9905L92.5762 30.3867H86.1202ZM86.1202 32.8862V31.6007H92.4048L91.9906 32.8862H86.1202Z" fill="#0095FC"/>
<path d="M50.9794 67V55.5733H55.1828C55.8031 55.5733 56.3608 55.7257 56.856 56.0304C57.3512 56.3351 57.7429 56.7459 58.0313 57.2629C58.3251 57.7743 58.4721 58.3457 58.4721 58.9769C58.4721 59.5101 58.3714 59.9971 58.1701 60.4378C57.9742 60.8786 57.6967 61.254 57.3375 61.5642C56.9839 61.8743 56.5785 62.0974 56.1214 62.2335L58.8801 67H56.9131L54.236 62.3885H52.6771V67H50.9794ZM52.6771 60.6909H55.0032C55.3297 60.6909 55.6263 60.6092 55.8929 60.446C56.165 60.2828 56.3799 60.0651 56.5377 59.793C56.6955 59.521 56.7744 59.2135 56.7744 58.8707C56.7744 58.5279 56.6955 58.2205 56.5377 57.9485C56.3799 57.6709 56.165 57.4533 55.8929 57.2955C55.6263 57.1323 55.3297 57.0506 55.0032 57.0506H52.6771V60.6909ZM63.6412 67.2122C62.8903 67.2122 62.2047 67.019 61.5844 66.6327C60.9695 66.2464 60.4771 65.7295 60.1071 65.082C59.7425 64.429 59.5603 63.708 59.5603 62.9191C59.5603 62.3205 59.6664 61.7628 59.8786 61.2459C60.0908 60.7235 60.3819 60.2664 60.7519 59.8747C61.1273 59.4774 61.5626 59.1673 62.0578 58.9442C62.553 58.7211 63.0808 58.6096 63.6412 58.6096C64.267 58.6096 64.841 58.7402 65.3634 59.0013C65.8857 59.2571 66.3319 59.6135 66.7019 60.0705C67.0719 60.5222 67.344 61.0445 67.5181 61.6376C67.6922 62.2253 67.7439 62.851 67.6732 63.5149H61.3804C61.4511 63.8903 61.5871 64.2304 61.7885 64.5351C61.9952 64.8344 62.2564 65.0711 62.572 65.2452C62.893 65.4193 63.2494 65.5091 63.6412 65.5145C64.0547 65.5145 64.4302 65.4112 64.7676 65.2044C65.1104 64.9976 65.3906 64.7119 65.6082 64.3474L67.3304 64.7473C67.0039 65.471 66.5115 66.0641 65.8531 66.5266C65.1947 66.9837 64.4574 67.2122 63.6412 67.2122ZM61.3232 62.2171H65.9592C65.9048 61.8254 65.766 61.4717 65.5429 61.1561C65.3253 60.835 65.0505 60.582 64.7186 60.397C64.3921 60.2066 64.033 60.1114 63.6412 60.1114C63.2549 60.1114 62.8958 60.2039 62.5638 60.3889C62.2374 60.5739 61.9653 60.8269 61.7476 61.1479C61.5354 61.4635 61.394 61.8199 61.3232 62.2171ZM73.3109 67H71.1317L68.1526 58.8218H69.9645L72.2172 65.0411L74.478 58.8218H76.2818L73.3109 67ZM80.8099 67.2122C80.059 67.2122 79.3734 67.019 78.7531 66.6327C78.1382 66.2464 77.6458 65.7295 77.2758 65.082C76.9112 64.429 76.7289 63.708 76.7289 62.9191C76.7289 62.3205 76.835 61.7628 77.0473 61.2459C77.2595 60.7235 77.5506 60.2664 77.9206 59.8747C78.296 59.4774 78.7313 59.1673 79.2265 58.9442C79.7216 58.7211 80.2494 58.6096 80.8099 58.6096C81.4356 58.6096 82.0097 58.7402 82.5321 59.0013C83.0544 59.2571 83.5006 59.6135 83.8706 60.0705C84.2406 60.5222 84.5127 61.0445 84.6868 61.6376C84.8609 62.2253 84.9126 62.851 84.8419 63.5149H78.549C78.6198 63.8903 78.7558 64.2304 78.9571 64.5351C79.1639 64.8344 79.4251 65.0711 79.7407 65.2452C80.0617 65.4193 80.4181 65.5091 80.8099 65.5145C81.2234 65.5145 81.5989 65.4112 81.9362 65.2044C82.279 64.9976 82.5593 64.7119 82.7769 64.3474L84.4991 64.7473C84.1726 65.471 83.6802 66.0641 83.0218 66.5266C82.3634 66.9837 81.6261 67.2122 80.8099 67.2122ZM78.4919 62.2171H83.1279C83.0735 61.8254 82.9347 61.4717 82.7116 61.1561C82.494 60.835 82.2192 60.582 81.8873 60.397C81.5608 60.2066 81.2017 60.1114 80.8099 60.1114C80.4236 60.1114 80.0644 60.2039 79.7325 60.3889C79.406 60.5739 79.134 60.8269 78.9163 61.1479C78.7041 61.4635 78.5626 61.8199 78.4919 62.2171ZM93.5393 61.8825V67H91.8416V62.2987C91.8416 61.9342 91.7518 61.6023 91.5722 61.303C91.3981 61.0037 91.1614 60.767 90.8622 60.5929C90.5683 60.4133 90.2364 60.3236 89.8664 60.3236C89.5073 60.3236 89.1781 60.4133 88.8788 60.5929C88.5795 60.767 88.3401 61.0037 88.1606 61.303C87.981 61.6023 87.8912 61.9342 87.8912 62.2987V67H86.1936V58.8381H87.8912V59.7033C88.1742 59.3659 88.5224 59.0993 88.936 58.9034C89.3495 58.7075 89.7957 58.6096 90.2745 58.6096C90.8785 58.6096 91.4281 58.7565 91.9232 59.0503C92.4184 59.3441 92.8101 59.7386 93.0985 60.2338C93.3923 60.7289 93.5393 61.2785 93.5393 61.8825ZM94.842 63.9393V58.8381H96.5397V63.523C96.5397 63.8876 96.6294 64.2195 96.809 64.5188C96.9886 64.8181 97.228 65.0575 97.5272 65.237C97.8265 65.4112 98.1557 65.4982 98.5148 65.4982C98.8794 65.4982 99.2086 65.4112 99.5024 65.237C99.8017 65.0575 100.038 64.8181 100.213 64.5188C100.392 64.2195 100.482 63.8876 100.482 63.523V58.8381H102.18L102.188 67H100.49L100.482 66.1185C100.204 66.4559 99.8588 66.7225 99.4453 66.9184C99.0318 67.1143 98.5883 67.2122 98.1149 67.2122C97.5109 67.2122 96.9614 67.0653 96.4662 66.7715C95.971 66.4776 95.5766 66.0831 95.2827 65.588C94.9889 65.0928 94.842 64.5433 94.842 63.9393ZM106.273 67.1551C105.843 67.1279 105.424 67.0408 105.016 66.8939C104.608 66.747 104.249 66.5484 103.939 66.2981C103.634 66.0423 103.406 65.7431 103.253 65.4003L104.698 64.78C104.769 64.9269 104.891 65.0711 105.065 65.2125C105.245 65.354 105.454 65.471 105.694 65.5635C105.933 65.6506 106.183 65.6941 106.445 65.6941C106.7 65.6941 106.937 65.6587 107.155 65.588C107.378 65.5118 107.56 65.3975 107.701 65.2452C107.843 65.0928 107.914 64.9106 107.914 64.6983C107.914 64.4589 107.832 64.2739 107.669 64.1433C107.511 64.0073 107.312 63.9039 107.073 63.8332C106.834 63.7624 106.594 63.6944 106.355 63.6291C105.821 63.5094 105.332 63.3462 104.886 63.1394C104.445 62.9272 104.094 62.6579 103.833 62.3314C103.572 61.9995 103.441 61.5941 103.441 61.1153C103.441 60.5929 103.582 60.1413 103.865 59.7604C104.148 59.3741 104.518 59.0775 104.975 58.8707C105.438 58.664 105.93 58.5606 106.453 58.5606C107.106 58.5606 107.704 58.6993 108.248 58.9769C108.792 59.2544 109.209 59.6352 109.497 60.1195L108.15 60.9194C108.069 60.7561 107.946 60.6092 107.783 60.4786C107.62 60.3481 107.435 60.2447 107.228 60.1685C107.021 60.0869 106.806 60.0406 106.583 60.0297C106.306 60.0189 106.047 60.0515 105.808 60.1277C105.574 60.1984 105.386 60.3127 105.245 60.4705C105.103 60.6283 105.032 60.8296 105.032 61.0745C105.032 61.3139 105.117 61.4934 105.286 61.6131C105.454 61.7274 105.666 61.8199 105.922 61.8907C106.183 61.9614 106.45 62.0403 106.722 62.1273C107.206 62.2797 107.661 62.4674 108.085 62.6905C108.509 62.9082 108.852 63.1775 109.113 63.4985C109.375 63.8196 109.5 64.2114 109.489 64.6739C109.489 65.1853 109.334 65.6342 109.024 66.0206C108.719 66.4069 108.322 66.7007 107.832 66.9021C107.342 67.1034 106.823 67.1877 106.273 67.1551ZM114.808 67L117.02 55.5733H118.391L121.321 63.27L124.235 55.5733H125.606L127.826 67H126.096L124.619 59.3523L121.884 66.5674H120.742L118.016 59.3523L116.538 67H114.808ZM132.587 67.2122C131.836 67.2122 131.15 67.019 130.53 66.6327C129.915 66.2464 129.423 65.7295 129.053 65.082C128.688 64.429 128.506 63.708 128.506 62.9191C128.506 62.3205 128.612 61.7628 128.824 61.2459C129.037 60.7235 129.328 60.2664 129.698 59.8747C130.073 59.4774 130.508 59.1673 131.004 58.9442C131.499 58.7211 132.026 58.6096 132.587 58.6096C133.213 58.6096 133.787 58.7402 134.309 59.0013C134.831 59.2571 135.278 59.6135 135.648 60.0705C136.018 60.5222 136.29 61.0445 136.464 61.6376C136.638 62.2253 136.69 62.851 136.619 63.5149H130.326C130.397 63.8903 130.533 64.2304 130.734 64.5351C130.941 64.8344 131.202 65.0711 131.518 65.2452C131.839 65.4193 132.195 65.5091 132.587 65.5145C133 65.5145 133.376 65.4112 133.713 65.2044C134.056 64.9976 134.336 64.7119 134.554 64.3474L136.276 64.7473C135.95 65.471 135.457 66.0641 134.799 66.5266C134.14 66.9837 133.403 67.2122 132.587 67.2122ZM130.269 62.2171H134.905C134.851 61.8254 134.712 61.4717 134.489 61.1561C134.271 60.835 133.996 60.582 133.664 60.397C133.338 60.2066 132.979 60.1114 132.587 60.1114C132.201 60.1114 131.841 60.2039 131.51 60.3889C131.183 60.5739 130.911 60.8269 130.693 61.1479C130.481 61.4635 130.34 61.8199 130.269 62.2171ZM145.316 61.8825V67H143.619V62.2987C143.619 61.9342 143.529 61.6023 143.349 61.303C143.175 61.0037 142.938 60.767 142.639 60.5929C142.345 60.4133 142.013 60.3236 141.643 60.3236C141.284 60.3236 140.955 60.4133 140.656 60.5929C140.357 60.767 140.117 61.0037 139.938 61.303C139.758 61.6023 139.668 61.9342 139.668 62.2987V67H137.971V58.8381H139.668V59.7033C139.951 59.3659 140.299 59.0993 140.713 58.9034C141.127 58.7075 141.573 58.6096 142.052 58.6096C142.656 58.6096 143.205 58.7565 143.7 59.0503C144.195 59.3441 144.587 59.7386 144.876 60.2338C145.169 60.7289 145.316 61.2785 145.316 61.8825ZM149.394 67.1551C148.964 67.1279 148.545 67.0408 148.137 66.8939C147.729 66.747 147.37 66.5484 147.06 66.2981C146.755 66.0423 146.527 65.7431 146.374 65.4003L147.819 64.78C147.89 64.9269 148.012 65.0711 148.186 65.2125C148.366 65.354 148.575 65.471 148.815 65.5635C149.054 65.6506 149.304 65.6941 149.565 65.6941C149.821 65.6941 150.058 65.6587 150.276 65.588C150.499 65.5118 150.681 65.3975 150.822 65.2452C150.964 65.0928 151.035 64.9106 151.035 64.6983C151.035 64.4589 150.953 64.2739 150.79 64.1433C150.632 64.0073 150.433 63.9039 150.194 63.8332C149.955 63.7624 149.715 63.6944 149.476 63.6291C148.942 63.5094 148.453 63.3462 148.007 63.1394C147.566 62.9272 147.215 62.6579 146.954 62.3314C146.692 61.9995 146.562 61.5941 146.562 61.1153C146.562 60.5929 146.703 60.1413 146.986 59.7604C147.269 59.3741 147.639 59.0775 148.096 58.8707C148.559 58.664 149.051 58.5606 149.574 58.5606C150.227 58.5606 150.825 58.6993 151.369 58.9769C151.913 59.2544 152.33 59.6352 152.618 60.1195L151.271 60.9194C151.19 60.7561 151.067 60.6092 150.904 60.4786C150.741 60.3481 150.556 60.2447 150.349 60.1685C150.142 60.0869 149.927 60.0406 149.704 60.0297C149.427 60.0189 149.168 60.0515 148.929 60.1277C148.695 60.1984 148.507 60.3127 148.366 60.4705C148.224 60.6283 148.153 60.8296 148.153 61.0745C148.153 61.3139 148.238 61.4934 148.406 61.6131C148.575 61.7274 148.787 61.8199 149.043 61.8907C149.304 61.9614 149.571 62.0403 149.843 62.1273C150.327 62.2797 150.782 62.4674 151.206 62.6905C151.63 62.9082 151.973 63.1775 152.234 63.4985C152.496 63.8196 152.621 64.2114 152.61 64.6739C152.61 65.1853 152.455 65.6342 152.145 66.0206C151.84 66.4069 151.443 66.7007 150.953 66.9021C150.463 67.1034 149.944 67.1877 149.394 67.1551ZM153.681 63.9393V58.8381H155.379V63.523C155.379 63.8876 155.468 64.2195 155.648 64.5188C155.828 64.8181 156.067 65.0575 156.366 65.237C156.666 65.4112 156.995 65.4982 157.354 65.4982C157.718 65.4982 158.048 65.4112 158.341 65.237C158.641 65.0575 158.877 64.8181 159.052 64.5188C159.231 64.2195 159.321 63.8876 159.321 63.523V58.8381H161.019L161.027 67H159.329L159.321 66.1185C159.043 66.4559 158.698 66.7225 158.284 66.9184C157.871 67.1143 157.427 67.2122 156.954 67.2122C156.35 67.2122 155.8 67.0653 155.305 66.7715C154.81 66.4776 154.416 66.0831 154.122 65.588C153.828 65.0928 153.681 64.5433 153.681 63.9393ZM166.143 67.2122C165.392 67.2122 164.707 67.019 164.086 66.6327C163.472 66.2464 162.979 65.7295 162.609 65.082C162.245 64.429 162.062 63.708 162.062 62.9191C162.062 62.3205 162.168 61.7628 162.381 61.2459C162.593 60.7235 162.884 60.2664 163.254 59.8747C163.629 59.4774 164.065 59.1673 164.56 58.9442C165.055 58.7211 165.583 58.6096 166.143 58.6096C166.769 58.6096 167.343 58.7402 167.865 59.0013C168.388 59.2571 168.834 59.6135 169.204 60.0705C169.574 60.5222 169.846 61.0445 170.02 61.6376C170.194 62.2253 170.246 62.851 170.175 63.5149H163.882C163.953 63.8903 164.089 64.2304 164.29 64.5351C164.497 64.8344 164.758 65.0711 165.074 65.2452C165.395 65.4193 165.751 65.5091 166.143 65.5145C166.557 65.5145 166.932 65.4112 167.27 65.2044C167.612 64.9976 167.893 64.7119 168.11 64.3474L169.832 64.7473C169.506 65.471 169.013 66.0641 168.355 66.5266C167.697 66.9837 166.959 67.2122 166.143 67.2122ZM163.825 62.2171H168.461C168.407 61.8254 168.268 61.4717 168.045 61.1561C167.827 60.835 167.552 60.582 167.221 60.397C166.894 60.2066 166.535 60.1114 166.143 60.1114C165.757 60.1114 165.398 60.2039 165.066 60.3889C164.739 60.5739 164.467 60.8269 164.25 61.1479C164.037 61.4635 163.896 61.8199 163.825 62.2171ZM171.415 67V54.7572H173.113V67H171.415ZM177.514 67.1551C177.085 67.1279 176.666 67.0408 176.257 66.8939C175.849 66.747 175.49 66.5484 175.18 66.2981C174.875 66.0423 174.647 65.7431 174.494 65.4003L175.939 64.78C176.01 64.9269 176.132 65.0711 176.306 65.2125C176.486 65.354 176.695 65.471 176.935 65.5635C177.174 65.6506 177.425 65.6941 177.686 65.6941C177.942 65.6941 178.178 65.6587 178.396 65.588C178.619 65.5118 178.801 65.3975 178.943 65.2452C179.084 65.0928 179.155 64.9106 179.155 64.6983C179.155 64.4589 179.073 64.2739 178.91 64.1433C178.752 64.0073 178.554 63.9039 178.314 63.8332C178.075 63.7624 177.835 63.6944 177.596 63.6291C177.063 63.5094 176.573 63.3462 176.127 63.1394C175.686 62.9272 175.335 62.6579 175.074 62.3314C174.813 61.9995 174.682 61.5941 174.682 61.1153C174.682 60.5929 174.824 60.1413 175.107 59.7604C175.39 59.3741 175.76 59.0775 176.217 58.8707C176.679 58.664 177.172 58.5606 177.694 58.5606C178.347 58.5606 178.945 58.6993 179.49 58.9769C180.034 59.2544 180.45 59.6352 180.738 60.1195L179.392 60.9194C179.31 60.7561 179.188 60.6092 179.024 60.4786C178.861 60.3481 178.676 60.2447 178.469 60.1685C178.263 60.0869 178.048 60.0406 177.825 60.0297C177.547 60.0189 177.289 60.0515 177.049 60.1277C176.815 60.1984 176.627 60.3127 176.486 60.4705C176.344 60.6283 176.274 60.8296 176.274 61.0745C176.274 61.3139 176.358 61.4934 176.527 61.6131C176.695 61.7274 176.908 61.8199 177.163 61.8907C177.425 61.9614 177.691 62.0403 177.963 62.1273C178.448 62.2797 178.902 62.4674 179.326 62.6905C179.751 62.9082 180.094 63.1775 180.355 63.4985C180.616 63.8196 180.741 64.2114 180.73 64.6739C180.73 65.1853 180.575 65.6342 180.265 66.0206C179.96 66.4069 179.563 66.7007 179.073 66.9021C178.584 67.1034 178.064 67.1877 177.514 67.1551Z" fill="#090F1F"/>
<path d="M53.5137 87.1428C52.8471 87.1428 52.2425 87.0238 51.6997 86.7858C51.1665 86.5382 50.7142 86.1811 50.3428 85.7145L51.4569 84.6004C51.6569 84.9051 51.9378 85.1479 52.2996 85.3289C52.6615 85.5098 53.0566 85.6002 53.4851 85.6002C53.8946 85.6002 54.2469 85.5241 54.5421 85.3717C54.8373 85.2193 55.0658 85.0051 55.2277 84.729C55.3991 84.4528 55.4848 84.1338 55.4848 83.772C55.4848 83.3911 55.3991 83.0673 55.2277 82.8007C55.0658 82.5341 54.8278 82.3294 54.5135 82.1865C54.2088 82.0342 53.8375 81.958 53.3994 81.958C53.228 81.958 53.0519 81.9723 52.8709 82.0008C52.69 82.0199 52.5281 82.0532 52.3853 82.1008L53.1138 81.1581C53.3137 81.0819 53.5232 81.02 53.7422 80.9724C53.9708 80.9153 54.1898 80.8867 54.3993 80.8867C54.9135 80.8867 55.3753 81.0105 55.7847 81.2581C56.2037 81.5057 56.5322 81.8532 56.7703 82.3008C57.0179 82.7388 57.1417 83.2578 57.1417 83.8577C57.1417 84.5052 56.9893 85.0765 56.6846 85.5717C56.3799 86.0668 55.9561 86.4525 55.4134 86.7286C54.8706 87.0048 54.2374 87.1428 53.5137 87.1428ZM52.3853 82.1008V81.1296L55.0563 78.0158L57.0274 77.9729L54.2421 81.1724L52.3853 82.1008ZM50.8427 78.4729V77.0017H57.0274V77.9729L55.6133 78.4729H50.8427ZM61.2415 87.1428C60.5464 87.1428 59.9275 87.0238 59.3847 86.7858C58.8419 86.5382 58.3849 86.1811 58.0135 85.7145L59.1276 84.6004C59.3276 84.9051 59.6085 85.1479 59.9703 85.3289C60.3417 85.5098 60.7559 85.6002 61.213 85.6002C61.6319 85.6002 61.9985 85.5241 62.3128 85.3717C62.627 85.2193 62.8746 85.0003 63.0555 84.7147C63.2364 84.429 63.3269 84.091 63.3269 83.7006C63.3269 83.2911 63.2364 82.9531 63.0555 82.6864C62.8841 82.4103 62.6508 82.2056 62.3556 82.0723C62.07 81.9294 61.7605 81.858 61.4272 81.858C61.0463 81.858 60.7035 81.9009 60.3988 81.9866C60.1036 82.0723 59.8132 82.2246 59.5275 82.4436L59.5704 81.4152C59.7227 81.2153 59.8989 81.0534 60.0989 80.9296C60.2988 80.7963 60.5321 80.6963 60.7988 80.6296C61.0654 80.563 61.3796 80.5297 61.7414 80.5297C62.4461 80.5297 63.0365 80.6772 63.5126 80.9724C63.9982 81.2676 64.3648 81.6628 64.6124 82.158C64.86 82.6436 64.9838 83.1864 64.9838 83.7863C64.9838 84.4338 64.8219 85.0099 64.4981 85.5145C64.1839 86.0192 63.7459 86.4191 63.1841 86.7143C62.6223 87 61.9747 87.1428 61.2415 87.1428ZM59.5275 82.4436L58.6277 81.5438L59.0705 77.0017H60.5702L60.056 81.7295L59.5275 82.4436ZM59.3561 78.4729L59.0705 77.0017H64.4267V78.4729H59.3561ZM70.1961 87.1428C69.4438 87.1428 68.7534 86.9333 68.125 86.5144C67.506 86.0859 67.0109 85.486 66.6395 84.7147C66.2681 83.9434 66.0825 83.034 66.0825 81.9866C66.0825 80.9391 66.2634 80.0345 66.6252 79.2727C66.9966 78.5014 67.4918 77.9063 68.1107 77.4873C68.7296 77.0683 69.4152 76.8588 70.1675 76.8588C70.9293 76.8588 71.6196 77.0683 72.2386 77.4873C72.8575 77.9063 73.3479 78.5014 73.7098 79.2727C74.0811 80.0345 74.2668 80.9439 74.2668 82.0008C74.2668 83.0483 74.0811 83.9577 73.7098 84.729C73.3479 85.5003 72.8575 86.0954 72.2386 86.5144C71.6292 86.9333 70.9483 87.1428 70.1961 87.1428ZM70.1675 85.6002C70.6626 85.6002 71.0911 85.4669 71.453 85.2003C71.8148 84.9337 72.0957 84.5337 72.2957 84.0005C72.5052 83.4673 72.6099 82.7959 72.6099 81.9866C72.6099 81.1867 72.5052 80.5201 72.2957 79.9869C72.0957 79.4536 71.8101 79.0585 71.4387 78.8014C71.0769 78.5347 70.6531 78.4014 70.1675 78.4014C69.6819 78.4014 69.2534 78.5347 68.882 78.8014C68.5202 79.0585 68.2392 79.4536 68.0393 79.9869C67.8393 80.5106 67.7393 81.1772 67.7393 81.9866C67.7393 82.7959 67.8393 83.4673 68.0393 84.0005C68.2392 84.5337 68.5202 84.9337 68.882 85.2003C69.2534 85.4669 69.6819 85.6002 70.1675 85.6002ZM81.041 87.1428C80.3078 87.1428 79.6412 87.0143 79.0413 86.7572C78.4414 86.4906 77.9225 86.124 77.4845 85.6574C77.0464 85.1813 76.7084 84.6337 76.4703 84.0148C76.2418 83.3863 76.1275 82.715 76.1275 82.0008C76.1275 81.2867 76.2418 80.6201 76.4703 80.0012C76.7084 79.3727 77.0464 78.8252 77.4845 78.3586C77.9225 77.892 78.4414 77.5254 79.0413 77.2588C79.6412 76.9922 80.3078 76.8588 81.041 76.8588C81.7933 76.8588 82.4408 76.9922 82.9835 77.2588C83.5358 77.5254 84.0405 77.8872 84.4976 78.3443L83.3835 79.4584C83.0883 79.1156 82.7455 78.8537 82.3551 78.6728C81.9647 78.4824 81.5028 78.3872 80.9696 78.3872C80.3221 78.3872 79.7555 78.5395 79.2699 78.8442C78.7938 79.1489 78.4224 79.5727 78.1558 80.1154C77.8987 80.6582 77.7701 81.2867 77.7701 82.0008C77.7701 82.715 77.9034 83.3435 78.1701 83.8862C78.4367 84.429 78.8128 84.8527 79.2984 85.1575C79.7936 85.4622 80.384 85.6145 81.0696 85.6145C81.5933 85.6145 82.0456 85.5193 82.4265 85.3289C82.8169 85.1384 83.1597 84.8718 83.4549 84.529L84.569 85.6431C84.1119 86.1097 83.593 86.4763 83.0121 86.7429C82.4313 87.0095 81.7742 87.1428 81.041 87.1428ZM75.1706 81.3867V80.1012H82.0408L81.6266 81.3867H75.1706ZM75.1706 83.8862V82.6007H81.4552L81.041 83.8862H75.1706Z" fill="#0095FC"/>
</svg>
