<svg width="195" height="40" viewBox="0 0 195 40" fill="none" xmlns="http://www.w3.org/2000/svg">
<rect x="1" y="1" width="38" height="38" rx="19" fill="#D9EFFF"/>
<rect x="1" y="1" width="38" height="38" rx="19" stroke="#0095FC" stroke-width="2"/>
<path opacity="0.2" d="M30.1539 13.2309V28.4617H9.84607V11.5386H28.4615C28.9104 11.5386 29.3408 11.7169 29.6582 12.0342C29.9756 12.3516 30.1539 12.7821 30.1539 13.2309Z" fill="#0095FC"/>
<path d="M31 28.4617C31 28.6861 30.9108 28.9013 30.7522 29.06C30.5935 29.2187 30.3782 29.3079 30.1538 29.3079H9.84604C9.62162 29.3079 9.4064 29.2187 9.24771 29.06C9.08903 28.9013 8.99988 28.6861 8.99988 28.4617V11.5385C8.99988 11.3141 9.08903 11.0989 9.24771 10.9402C9.4064 10.7815 9.62162 10.6924 9.84604 10.6924C10.0705 10.6924 10.2857 10.7815 10.4444 10.9402C10.603 11.0989 10.6922 11.3141 10.6922 11.5385V23.0347L16.0166 17.7091C16.0952 17.6305 16.1886 17.5681 16.2913 17.5255C16.394 17.4829 16.5041 17.461 16.6153 17.461C16.7265 17.461 16.8366 17.4829 16.9393 17.5255C17.0421 17.5681 17.1354 17.6305 17.214 17.7091L19.9999 20.4962L25.5729 14.9232H23.3846C23.1602 14.9232 22.9449 14.834 22.7862 14.6753C22.6276 14.5167 22.5384 14.3014 22.5384 14.077C22.5384 13.8526 22.6276 13.6374 22.7862 13.4787C22.9449 13.32 23.1602 13.2309 23.3846 13.2309H27.6154C27.8398 13.2309 28.055 13.32 28.2137 13.4787C28.3724 13.6374 28.4615 13.8526 28.4615 14.077V18.3078C28.4615 18.5322 28.3724 18.7474 28.2137 18.9061C28.055 19.0648 27.8398 19.154 27.6154 19.154C27.3909 19.154 27.1757 19.0648 27.017 18.9061C26.8583 18.7474 26.7692 18.5322 26.7692 18.3078V16.1194L20.5986 22.2911C20.52 22.3698 20.4267 22.4322 20.324 22.4748C20.2212 22.5173 20.1111 22.5393 19.9999 22.5393C19.8887 22.5393 19.7786 22.5173 19.6759 22.4748C19.5732 22.4322 19.4799 22.3698 19.4013 22.2911L16.6153 19.5041L10.6922 25.4272V27.6155H30.1538C30.3782 27.6155 30.5935 27.7047 30.7522 27.8634C30.9108 28.0221 31 28.2373 31 28.4617Z" fill="#0095FC"/>
<path d="M53.4803 24.779V21.5469H50.2482V19.8492H53.4803V16.6171H55.178V19.8492H58.4101V21.5469H55.178V24.779H53.4803ZM63.4554 25.8074C62.7644 25.8074 62.1359 25.6496 61.57 25.334C61.0041 25.0184 60.5525 24.5967 60.2151 24.0689C59.8832 23.5357 59.7172 22.9426 59.7172 22.2896C59.7172 21.7401 59.8533 21.2286 60.1253 20.7552C60.3974 20.2818 60.7592 19.89 61.2109 19.5799C60.8463 19.3078 60.5498 18.965 60.3212 18.5515C60.0927 18.138 59.9784 17.6918 59.9784 17.2129C59.9784 16.6144 60.1335 16.0703 60.4437 15.5806C60.7592 15.0854 61.1809 14.6909 61.7087 14.3971C62.2366 14.1033 62.8188 13.9563 63.4554 13.9563C64.092 13.9563 64.6742 14.1033 65.202 14.3971C65.7298 14.6909 66.1488 15.0854 66.459 15.5806C66.7746 16.0703 66.9324 16.6144 66.9324 17.2129C66.9324 17.6918 66.8181 18.138 66.5896 18.5515C66.3665 18.965 66.0699 19.3078 65.6999 19.5799C66.1624 19.89 66.527 20.2818 66.7936 20.7552C67.0657 21.2286 67.2017 21.7401 67.2017 22.2896C67.2017 22.9372 67.033 23.5275 66.6957 24.0608C66.3583 24.594 65.9067 25.0184 65.3408 25.334C64.7749 25.6496 64.1464 25.8074 63.4554 25.8074ZM63.4554 24.1097C63.8145 24.1097 64.141 24.0281 64.4348 23.8649C64.7287 23.7017 64.9626 23.484 65.1367 23.2119C65.3163 22.9344 65.4061 22.627 65.4061 22.2896C65.4061 21.9577 65.3163 21.6557 65.1367 21.3837C64.9626 21.1062 64.7287 20.8858 64.4348 20.7226C64.141 20.5593 63.8145 20.4777 63.4554 20.4777C63.1017 20.4777 62.7752 20.5593 62.476 20.7226C62.1821 20.8858 61.9454 21.1062 61.7659 21.3837C61.5918 21.6557 61.5047 21.9577 61.5047 22.2896C61.5047 22.627 61.5918 22.9344 61.7659 23.2119C61.9454 23.484 62.1821 23.7017 62.476 23.8649C62.7752 24.0281 63.1017 24.1097 63.4554 24.1097ZM63.4554 18.78C63.7655 18.78 64.0458 18.7093 64.2961 18.5678C64.5518 18.4263 64.7559 18.2386 64.9082 18.0046C65.0606 17.7652 65.1367 17.5013 65.1367 17.2129C65.1367 16.9246 65.0606 16.6634 64.9082 16.4294C64.7559 16.1954 64.5518 16.0077 64.2961 15.8662C64.0458 15.7248 63.7655 15.654 63.4554 15.654C63.1452 15.654 62.8623 15.7248 62.6066 15.8662C62.3563 16.0077 62.1549 16.1954 62.0026 16.4294C61.8502 16.6634 61.774 16.9246 61.774 17.2129C61.774 17.5013 61.8502 17.7652 62.0026 18.0046C62.1549 18.2386 62.3563 18.4263 62.6066 18.5678C62.8623 18.7093 63.1452 18.78 63.4554 18.78ZM79.0988 17.4333H80.7965V25.5952H79.0907L79.0254 24.4117C78.7859 24.8307 78.4622 25.1681 78.0541 25.4238C77.646 25.6796 77.1645 25.8074 76.6094 25.8074C76.0109 25.8074 75.4477 25.6959 74.9199 25.4728C74.3921 25.2443 73.9269 24.9287 73.5242 24.526C73.127 24.1234 72.8169 23.6608 72.5938 23.1385C72.3707 22.6107 72.2591 22.0448 72.2591 21.4408C72.2591 20.8586 72.368 20.3117 72.5856 19.8003C72.8033 19.2833 73.1053 18.8317 73.4916 18.4454C73.8779 18.0591 74.3241 17.7571 74.8301 17.5394C75.3416 17.3163 75.8885 17.2048 76.4707 17.2048C77.0638 17.2048 77.5861 17.3408 78.0378 17.6129C78.4948 17.8795 78.873 18.2223 79.1723 18.6413L79.0988 17.4333ZM76.5686 24.1669C77.0475 24.1669 77.4664 24.0499 77.8256 23.8159C78.1847 23.5765 78.4622 23.2555 78.6581 22.8528C78.8594 22.4502 78.9601 22.004 78.9601 21.5143C78.9601 21.0191 78.8594 20.5702 78.6581 20.1676C78.4568 19.7649 78.1765 19.4466 77.8174 19.2126C77.4637 18.9732 77.0475 18.8535 76.5686 18.8535C76.0952 18.8535 75.6627 18.9732 75.2709 19.2126C74.8791 19.452 74.569 19.7731 74.3404 20.1757C74.1119 20.5784 73.9976 21.0246 73.9976 21.5143C73.9976 22.0094 74.1146 22.4583 74.3486 22.861C74.588 23.2582 74.9009 23.5765 75.2872 23.8159C75.679 24.0499 76.1061 24.1669 76.5686 24.1669ZM89.7709 20.4777V25.5952H88.0732V20.894C88.0732 20.5294 87.9834 20.1975 87.8039 19.8982C87.6297 19.5989 87.3931 19.3622 87.0938 19.1881C86.8 19.0086 86.468 18.9188 86.098 18.9188C85.7389 18.9188 85.4097 19.0086 85.1104 19.1881C84.8112 19.3622 84.5718 19.5989 84.3922 19.8982C84.2126 20.1975 84.1229 20.5294 84.1229 20.894V25.5952H82.4252V17.4333H84.1229V18.2985C84.4058 17.9611 84.754 17.6945 85.1676 17.4986C85.5811 17.3027 86.0273 17.2048 86.5061 17.2048C87.1101 17.2048 87.6597 17.3517 88.1548 17.6455C88.65 17.9394 89.0418 18.3338 89.3301 18.829C89.624 19.3242 89.7709 19.8737 89.7709 20.4777ZM93.8486 25.7503C93.4188 25.7231 92.9998 25.636 92.5917 25.4891C92.1836 25.3422 91.8245 25.1436 91.5143 24.8933C91.2096 24.6376 90.9811 24.3383 90.8287 23.9955L92.2734 23.3752C92.3441 23.5221 92.4666 23.6663 92.6407 23.8078C92.8202 23.9492 93.0297 24.0662 93.2692 24.1587C93.5086 24.2458 93.7589 24.2893 94.02 24.2893C94.2758 24.2893 94.5125 24.2539 94.7301 24.1832C94.9532 24.107 95.1355 23.9928 95.277 23.8404C95.4185 23.6881 95.4892 23.5058 95.4892 23.2936C95.4892 23.0541 95.4076 22.8691 95.2443 22.7386C95.0865 22.6025 94.8879 22.4991 94.6485 22.4284C94.4091 22.3577 94.1697 22.2896 93.9303 22.2244C93.397 22.1046 92.9073 21.9414 92.4611 21.7346C92.0204 21.5224 91.6694 21.2531 91.4082 20.9266C91.1471 20.5947 91.0165 20.1893 91.0165 19.7105C91.0165 19.1881 91.1579 18.7365 91.4409 18.3556C91.7238 17.9693 92.0938 17.6727 92.5509 17.466C93.0134 17.2592 93.5058 17.1558 94.0282 17.1558C94.6812 17.1558 95.2797 17.2946 95.8238 17.5721C96.368 17.8496 96.7842 18.2305 97.0726 18.7147L95.7259 19.5146C95.6443 19.3514 95.5218 19.2044 95.3586 19.0739C95.1954 18.9433 95.0104 18.8399 94.8036 18.7637C94.5968 18.6821 94.3819 18.6358 94.1588 18.625C93.8813 18.6141 93.6228 18.6467 93.3834 18.7229C93.1494 18.7936 92.9617 18.9079 92.8202 19.0657C92.6788 19.2235 92.608 19.4248 92.608 19.6697C92.608 19.9091 92.6924 20.0887 92.8611 20.2084C93.0297 20.3226 93.2419 20.4151 93.4977 20.4859C93.7589 20.5566 94.0255 20.6355 94.2976 20.7226C94.7818 20.8749 95.2362 21.0626 95.6606 21.2857C96.085 21.5034 96.4278 21.7727 96.689 22.0938C96.9502 22.4148 97.0753 22.8066 97.0644 23.2691C97.0644 23.7806 96.9094 24.2295 96.5992 24.6158C96.2945 25.0021 95.8973 25.2959 95.4076 25.4973C94.9179 25.6986 94.3982 25.7829 93.8486 25.7503ZM108.742 13.3524H110.439V25.5952H108.742V24.3954C108.475 24.8198 108.127 25.1626 107.697 25.4238C107.267 25.6796 106.764 25.8074 106.187 25.8074C105.594 25.8074 105.039 25.6959 104.522 25.4728C104.005 25.2497 103.548 24.9423 103.151 24.5505C102.759 24.1533 102.452 23.6962 102.228 23.1793C102.005 22.6624 101.894 22.1074 101.894 21.5143C101.894 20.9212 102.005 20.3662 102.228 19.8492C102.452 19.3269 102.759 18.8698 103.151 18.478C103.548 18.0808 104.005 17.7707 104.522 17.5476C105.039 17.3245 105.594 17.2129 106.187 17.2129C106.764 17.2129 107.267 17.3435 107.697 17.6047C108.127 17.8605 108.475 18.1978 108.742 18.6168V13.3524ZM106.203 24.1669C106.682 24.1669 107.101 24.0499 107.46 23.8159C107.819 23.5765 108.097 23.2555 108.293 22.8528C108.494 22.4502 108.595 22.004 108.595 21.5143C108.595 21.0191 108.494 20.5702 108.293 20.1676C108.091 19.7649 107.811 19.4466 107.452 19.2126C107.098 18.9732 106.682 18.8535 106.203 18.8535C105.73 18.8535 105.297 18.9732 104.906 19.2126C104.519 19.452 104.209 19.7731 103.975 20.1757C103.747 20.5784 103.632 21.0246 103.632 21.5143C103.632 22.0094 103.749 22.4583 103.983 22.861C104.223 23.2582 104.536 23.5765 104.922 23.8159C105.314 24.0499 105.741 24.1669 106.203 24.1669ZM111.742 18.4291L112.248 14.1686H113.945L112.868 18.4291H111.742ZM117.771 25.8074C117.02 25.8074 116.335 25.6143 115.715 25.2279C115.1 24.8416 114.607 24.3247 114.237 23.6772C113.873 23.0242 113.69 22.3032 113.69 21.5143C113.69 20.9157 113.796 20.358 114.009 19.8411C114.221 19.3187 114.512 18.8616 114.882 18.4699C115.257 18.0727 115.693 17.7625 116.188 17.5394C116.683 17.3163 117.211 17.2048 117.771 17.2048C118.397 17.2048 118.971 17.3354 119.493 17.5966C120.016 17.8523 120.462 18.2087 120.832 18.6658C121.202 19.1174 121.474 19.6397 121.648 20.2328C121.822 20.8205 121.874 21.4462 121.803 22.1101H115.51C115.581 22.4855 115.717 22.8256 115.919 23.1303C116.125 23.4296 116.386 23.6663 116.702 23.8404C117.023 24.0145 117.38 24.1043 117.771 24.1097C118.185 24.1097 118.56 24.0064 118.898 23.7996C119.24 23.5928 119.521 23.3072 119.738 22.9426L121.46 23.3425C121.134 24.0662 120.642 24.6593 119.983 25.1218C119.325 25.5789 118.587 25.8074 117.771 25.8074ZM115.453 20.8123H120.089C120.035 20.4206 119.896 20.0669 119.673 19.7513C119.455 19.4303 119.181 19.1772 118.849 18.9922C118.522 18.8018 118.163 18.7066 117.771 18.7066C117.385 18.7066 117.026 18.7991 116.694 18.9841C116.367 19.1691 116.095 19.4221 115.878 19.7431C115.666 20.0587 115.524 20.4151 115.453 20.8123ZM122.175 25.5952L125.162 21.4979L122.191 17.417H124.289L126.207 20.0451L128.133 17.417H130.223L127.26 21.4979L130.247 25.5952H128.149L126.207 22.9344L124.273 25.5952H122.175ZM133.27 29.6762H131.572V17.4333H133.27V18.6331C133.542 18.2141 133.89 17.8741 134.314 17.6129C134.739 17.3517 135.239 17.2211 135.816 17.2211C136.409 17.2211 136.964 17.3327 137.481 17.5557C138.003 17.7788 138.461 18.089 138.852 18.4862C139.244 18.878 139.552 19.3323 139.775 19.8492C139.998 20.3662 140.109 20.9212 140.109 21.5143C140.109 22.1074 139.998 22.6651 139.775 23.1875C139.552 23.7098 139.244 24.1696 138.852 24.5668C138.461 24.9586 138.003 25.266 137.481 25.4891C136.964 25.7122 136.409 25.8237 135.816 25.8237C135.239 25.8237 134.739 25.6932 134.314 25.432C133.89 25.1654 133.542 24.8253 133.27 24.4117V29.6762ZM135.8 18.8616C135.326 18.8616 134.91 18.9814 134.551 19.2208C134.192 19.4602 133.912 19.7812 133.71 20.1839C133.509 20.5811 133.408 21.0246 133.408 21.5143C133.408 22.004 133.509 22.4502 133.71 22.8528C133.912 23.2555 134.192 23.5765 134.551 23.8159C134.91 24.0553 135.326 24.175 135.8 24.175C136.268 24.175 136.698 24.0581 137.089 23.8241C137.481 23.5847 137.794 23.2636 138.028 22.861C138.262 22.4583 138.379 22.0094 138.379 21.5143C138.379 21.03 138.262 20.5865 138.028 20.1839C137.799 19.7812 137.489 19.4602 137.098 19.2208C136.706 18.9814 136.273 18.8616 135.8 18.8616ZM145.015 25.8074C144.264 25.8074 143.578 25.6143 142.958 25.2279C142.343 24.8416 141.851 24.3247 141.481 23.6772C141.116 23.0242 140.934 22.3032 140.934 21.5143C140.934 20.9157 141.04 20.358 141.252 19.8411C141.464 19.3187 141.756 18.8616 142.126 18.4699C142.501 18.0727 142.936 17.7625 143.431 17.5394C143.927 17.3163 144.454 17.2048 145.015 17.2048C145.641 17.2048 146.215 17.3354 146.737 17.5966C147.259 17.8523 147.706 18.2087 148.076 18.6658C148.446 19.1174 148.718 19.6397 148.892 20.2328C149.066 20.8205 149.118 21.4462 149.047 22.1101H142.754C142.825 22.4855 142.961 22.8256 143.162 23.1303C143.369 23.4296 143.63 23.6663 143.946 23.8404C144.267 24.0145 144.623 24.1043 145.015 24.1097C145.428 24.1097 145.804 24.0064 146.141 23.7996C146.484 23.5928 146.764 23.3072 146.982 22.9426L148.704 23.3425C148.378 24.0662 147.885 24.6593 147.227 25.1218C146.568 25.5789 145.831 25.8074 145.015 25.8074ZM142.697 20.8123H147.333C147.278 20.4206 147.14 20.0669 146.917 19.7513C146.699 19.4303 146.424 19.1772 146.092 18.9922C145.766 18.8018 145.407 18.7066 145.015 18.7066C144.628 18.7066 144.269 18.7991 143.937 18.9841C143.611 19.1691 143.339 19.4221 143.121 19.7431C142.909 20.0587 142.768 20.4151 142.697 20.8123ZM144.566 16.5355L145.219 14.1849H146.917L145.709 16.5355H144.566ZM150.398 25.5952V17.4333H152.096V18.2985C152.379 17.9611 152.727 17.6945 153.141 17.4986C153.554 17.3027 154.001 17.2048 154.479 17.2048C154.784 17.2048 155.086 17.2456 155.385 17.3272L154.708 19.0412C154.496 18.9596 154.284 18.9188 154.071 18.9188C153.712 18.9188 153.383 19.0086 153.084 19.1881C152.784 19.3622 152.545 19.5989 152.366 19.8982C152.186 20.1975 152.096 20.5294 152.096 20.894V25.5952H150.398ZM156.329 17.4333H158.026V25.5952H156.329V17.4333ZM157.194 16.2498C156.933 16.2498 156.715 16.1655 156.541 15.9968C156.367 15.8281 156.28 15.6159 156.28 15.3602C156.28 15.1099 156.367 14.9004 156.541 14.7317C156.715 14.5576 156.93 14.4705 157.186 14.4705C157.436 14.4705 157.648 14.5576 157.822 14.7317C157.996 14.9004 158.083 15.1099 158.083 15.3602C158.083 15.6159 157.996 15.8281 157.822 15.9968C157.654 16.1655 157.444 16.2498 157.194 16.2498ZM163.427 25.8074C162.676 25.8074 161.99 25.6143 161.37 25.2279C160.755 24.8416 160.263 24.3247 159.893 23.6772C159.528 23.0242 159.346 22.3032 159.346 21.5143C159.346 20.9157 159.452 20.358 159.664 19.8411C159.876 19.3187 160.168 18.8616 160.538 18.4699C160.913 18.0727 161.348 17.7625 161.844 17.5394C162.339 17.3163 162.866 17.2048 163.427 17.2048C164.053 17.2048 164.627 17.3354 165.149 17.5966C165.671 17.8523 166.118 18.2087 166.488 18.6658C166.858 19.1174 167.13 19.6397 167.304 20.2328C167.478 20.8205 167.53 21.4462 167.459 22.1101H161.166C161.237 22.4855 161.373 22.8256 161.574 23.1303C161.781 23.4296 162.042 23.6663 162.358 23.8404C162.679 24.0145 163.035 24.1043 163.427 24.1097C163.84 24.1097 164.216 24.0064 164.553 23.7996C164.896 23.5928 165.176 23.3072 165.394 22.9426L167.116 23.3425C166.79 24.0662 166.297 24.6593 165.639 25.1218C164.98 25.5789 164.243 25.8074 163.427 25.8074ZM161.109 20.8123H165.745C165.69 20.4206 165.552 20.0669 165.329 19.7513C165.111 19.4303 164.836 19.1772 164.504 18.9922C164.178 18.8018 163.819 18.7066 163.427 18.7066C163.041 18.7066 162.681 18.7991 162.35 18.9841C162.023 19.1691 161.751 19.4221 161.533 19.7431C161.321 20.0587 161.18 20.4151 161.109 20.8123ZM176.156 20.4777V25.5952H174.459V20.894C174.459 20.5294 174.369 20.1975 174.189 19.8982C174.015 19.5989 173.778 19.3622 173.479 19.1881C173.185 19.0086 172.853 18.9188 172.483 18.9188C172.124 18.9188 171.795 19.0086 171.496 19.1881C171.197 19.3622 170.957 19.5989 170.778 19.8982C170.598 20.1975 170.508 20.5294 170.508 20.894V25.5952H168.811V17.4333H170.508V18.2985C170.791 17.9611 171.139 17.6945 171.553 17.4986C171.967 17.3027 172.413 17.2048 172.892 17.2048C173.496 17.2048 174.045 17.3517 174.54 17.6455C175.035 17.9394 175.427 18.3338 175.716 18.829C176.009 19.3242 176.156 19.8737 176.156 20.4777ZM182.956 23.2772L184.474 24.1016C184.104 24.6185 183.633 25.032 183.062 25.3422C182.496 25.6523 181.881 25.8074 181.217 25.8074C180.466 25.8074 179.781 25.6143 179.161 25.2279C178.546 24.8416 178.053 24.3247 177.683 23.6772C177.319 23.0242 177.136 22.3032 177.136 21.5143C177.136 20.9157 177.242 20.358 177.455 19.8411C177.667 19.3187 177.958 18.8616 178.328 18.4699C178.703 18.0727 179.139 17.7625 179.634 17.5394C180.129 17.3163 180.657 17.2048 181.217 17.2048C181.881 17.2048 182.496 17.3599 183.062 17.67C183.633 17.9802 184.104 18.3964 184.474 18.9188L182.956 19.7431C182.727 19.4711 182.461 19.2643 182.156 19.1228C181.851 18.9759 181.538 18.9025 181.217 18.9025C180.771 18.9025 180.366 19.0249 180.001 19.2697C179.642 19.5092 179.356 19.8275 179.144 20.2247C178.937 20.6165 178.834 21.0463 178.834 21.5143C178.834 21.9768 178.94 22.4066 179.152 22.8038C179.365 23.1956 179.65 23.5112 180.009 23.7506C180.374 23.99 180.777 24.1097 181.217 24.1097C181.555 24.1097 181.876 24.0336 182.18 23.8812C182.485 23.7289 182.744 23.5275 182.956 23.2772ZM189.331 25.8074C188.58 25.8074 187.895 25.6143 187.275 25.2279C186.66 24.8416 186.167 24.3247 185.797 23.6772C185.433 23.0242 185.25 22.3032 185.25 21.5143C185.25 20.9157 185.357 20.358 185.569 19.8411C185.781 19.3187 186.072 18.8616 186.442 18.4699C186.818 18.0727 187.253 17.7625 187.748 17.5394C188.243 17.3163 188.771 17.2048 189.331 17.2048C189.957 17.2048 190.531 17.3354 191.054 17.5966C191.576 17.8523 192.022 18.2087 192.392 18.6658C192.762 19.1174 193.034 19.6397 193.208 20.2328C193.382 20.8205 193.434 21.4462 193.363 22.1101H187.071C187.141 22.4855 187.277 22.8256 187.479 23.1303C187.685 23.4296 187.947 23.6663 188.262 23.8404C188.583 24.0145 188.94 24.1043 189.331 24.1097C189.745 24.1097 190.12 24.0064 190.458 23.7996C190.801 23.5928 191.081 23.3072 191.298 22.9426L193.021 23.3425C192.694 24.0662 192.202 24.6593 191.543 25.1218C190.885 25.5789 190.148 25.8074 189.331 25.8074ZM187.013 20.8123H191.649C191.595 20.4206 191.456 20.0669 191.233 19.7513C191.015 19.4303 190.741 19.1772 190.409 18.9922C190.082 18.8018 189.723 18.7066 189.331 18.7066C188.945 18.7066 188.586 18.7991 188.254 18.9841C187.928 19.1691 187.655 19.4221 187.438 19.7431C187.226 20.0587 187.084 20.4151 187.013 20.8123Z" fill="#090F1F"/>
</svg>
