<svg width="271" height="117" viewBox="0 0 271 117" fill="none" xmlns="http://www.w3.org/2000/svg">
<rect x="21.4048" y="21.4048" width="46" height="46" rx="23" fill="#D9EFFF"/>
<rect x="21.4048" y="21.4048" width="46" height="46" rx="23" stroke="#0095FC" stroke-width="2"/>
<path opacity="0.2" d="M55.4449 39.6046V53.0446C55.4449 53.2992 55.3437 53.5434 55.1637 53.7234C54.9837 53.9035 54.7395 54.0046 54.4849 54.0046H35.2849C34.7757 54.0046 34.2873 53.8023 33.9272 53.4423C33.5672 53.0822 33.3649 52.5938 33.3649 52.0846V36.7246C33.3649 37.2338 33.5672 37.7222 33.9272 38.0823C34.2873 38.4423 34.7757 38.6446 35.2849 38.6446H54.4849C54.7395 38.6446 54.9837 38.7458 55.1637 38.9258C55.3437 39.1058 55.4449 39.35 55.4449 39.6046Z" fill="#0086E3"/>
<path d="M54.4848 37.6847H35.2848C35.0302 37.6847 34.786 37.5836 34.606 37.4035C34.4259 37.2235 34.3248 36.9793 34.3248 36.7247C34.3248 36.4701 34.4259 36.2259 34.606 36.0459C34.786 35.8659 35.0302 35.7647 35.2848 35.7647H51.6048C51.8594 35.7647 52.1036 35.6636 52.2836 35.4835C52.4636 35.3035 52.5648 35.0593 52.5648 34.8047C52.5648 34.5501 52.4636 34.3059 52.2836 34.1259C52.1036 33.9459 51.8594 33.8447 51.6048 33.8447H35.2848C34.521 33.8447 33.7884 34.1482 33.2483 34.6883C32.7082 35.2284 32.4048 35.9609 32.4048 36.7247V52.0847C32.4048 52.8485 32.7082 53.5811 33.2483 54.1212C33.7884 54.6613 34.521 54.9647 35.2848 54.9647H54.4848C54.994 54.9647 55.4824 54.7624 55.8424 54.4024C56.2025 54.0423 56.4048 53.5539 56.4048 53.0447V39.6047C56.4048 39.0955 56.2025 38.6072 55.8424 38.2471C55.4824 37.887 54.994 37.6847 54.4848 37.6847ZM54.4848 53.0447H35.2848C35.0302 53.0447 34.786 52.9436 34.606 52.7635C34.4259 52.5835 34.3248 52.3393 34.3248 52.0847V39.4403C34.633 39.5496 34.9577 39.6052 35.2848 39.6047H54.4848V53.0447ZM48.7248 45.8447C48.7248 45.5599 48.8092 45.2815 48.9675 45.0447C49.1257 44.8079 49.3506 44.6233 49.6137 44.5143C49.8768 44.4053 50.1664 44.3768 50.4457 44.4324C50.725 44.488 50.9816 44.6251 51.183 44.8265C51.3844 45.0279 51.5216 45.2845 51.5771 45.5638C51.6327 45.8431 51.6042 46.1327 51.4952 46.3958C51.3862 46.6589 51.2016 46.8838 50.9648 47.042C50.728 47.2003 50.4496 47.2847 50.1648 47.2847C49.7829 47.2847 49.4166 47.133 49.1466 46.863C48.8765 46.5929 48.7248 46.2266 48.7248 45.8447Z" fill="#0086E3"/>
<path d="M79.3842 36.4048V24.9781H83.3182C83.9331 24.9781 84.4881 25.1305 84.9833 25.4352C85.4839 25.7399 85.8811 26.1507 86.1749 26.6676C86.4742 27.1846 86.6238 27.7559 86.6238 28.3816C86.6238 29.0183 86.4715 29.595 86.1668 30.112C85.8675 30.6234 85.4675 31.0315 84.967 31.3362C84.4664 31.641 83.9168 31.7933 83.3182 31.7933H81.0819V36.4048H79.3842ZM81.0819 30.0956H83.1468C83.4733 30.0956 83.7699 30.014 84.0365 29.8508C84.3086 29.6875 84.5235 29.4699 84.6813 29.1978C84.8445 28.9258 84.9261 28.6183 84.9261 28.2755C84.9261 27.9327 84.8445 27.6253 84.6813 27.3532C84.5235 27.0757 84.3086 26.8581 84.0365 26.7003C83.7699 26.537 83.4733 26.4554 83.1468 26.4554H81.0819V30.0956ZM93.912 28.2429H95.6097V36.4048H93.9038L93.8386 35.2213C93.5991 35.6403 93.2754 35.9776 92.8673 36.2334C92.4592 36.4891 91.9776 36.617 91.4226 36.617C90.8241 36.617 90.2609 36.5054 89.7331 36.2824C89.2053 36.0538 88.7401 35.7382 88.3374 35.3356C87.9402 34.9329 87.6301 34.4704 87.407 33.9481C87.1839 33.4203 87.0723 32.8544 87.0723 32.2504C87.0723 31.6682 87.1812 31.1213 87.3988 30.6098C87.6165 30.0929 87.9185 29.6413 88.3048 29.255C88.6911 28.8686 89.1373 28.5666 89.6433 28.349C90.1548 28.1259 90.7017 28.0144 91.2839 28.0144C91.877 28.0144 92.3993 28.1504 92.851 28.4224C93.308 28.6891 93.6862 29.0319 93.9855 29.4508L93.912 28.2429ZM91.3818 34.9765C91.8607 34.9765 92.2796 34.8595 92.6388 34.6255C92.9979 34.3861 93.2754 34.065 93.4713 33.6624C93.6726 33.2597 93.7733 32.8135 93.7733 32.3238C93.7733 31.8287 93.6726 31.3798 93.4713 30.9771C93.2699 30.5745 92.9897 30.2562 92.6306 30.0222C92.2769 29.7828 91.8607 29.6631 91.3818 29.6631C90.9084 29.6631 90.4759 29.7828 90.0841 30.0222C89.6923 30.2616 89.3822 30.5826 89.1536 30.9853C88.9251 31.3879 88.8108 31.8341 88.8108 32.3238C88.8108 32.819 88.9278 33.2679 89.1618 33.6705C89.4012 34.0678 89.7141 34.3861 90.1004 34.6255C90.4922 34.8595 90.9193 34.9765 91.3818 34.9765ZM97.2384 28.2429H98.936V36.4048H97.2384V28.2429ZM98.1035 27.0594C97.8423 27.0594 97.6247 26.9751 97.4506 26.8064C97.2765 26.6377 97.1894 26.4255 97.1894 26.1698C97.1894 25.9195 97.2765 25.71 97.4506 25.5413C97.6247 25.3672 97.8396 25.2801 98.0954 25.2801C98.3457 25.2801 98.5579 25.3672 98.732 25.5413C98.9061 25.71 98.9932 25.9195 98.9932 26.1698C98.9932 26.4255 98.9061 26.6377 98.732 26.8064C98.5633 26.9751 98.3538 27.0594 98.1035 27.0594ZM104.337 36.617C103.586 36.617 102.9 36.4238 102.28 36.0375C101.665 35.6512 101.173 35.1342 100.803 34.4867C100.438 33.8338 100.256 33.1128 100.256 32.3238C100.256 31.7253 100.362 31.1676 100.574 30.6506C100.786 30.1283 101.077 29.6712 101.447 29.2794C101.823 28.8822 102.258 28.5721 102.753 28.349C103.248 28.1259 103.776 28.0144 104.337 28.0144C104.962 28.0144 105.536 28.1449 106.059 28.4061C106.581 28.6619 107.027 29.0183 107.397 29.4753C107.767 29.927 108.039 30.4493 108.214 31.0424C108.388 31.6301 108.439 32.2558 108.369 32.9197H102.076C102.147 33.2951 102.283 33.6352 102.484 33.9399C102.691 34.2392 102.952 34.4759 103.267 34.65C103.588 34.8241 103.945 34.9139 104.337 34.9193C104.75 34.9193 105.126 34.8159 105.463 34.6092C105.806 34.4024 106.086 34.1167 106.304 33.7522L108.026 34.1521C107.699 34.8758 107.207 35.4689 106.549 35.9314C105.89 36.3885 105.153 36.617 104.337 36.617ZM102.019 31.6219H106.655C106.6 31.2301 106.461 30.8765 106.238 30.5609C106.021 30.2398 105.746 29.9868 105.414 29.8018C105.088 29.6114 104.728 29.5161 104.337 29.5161C103.95 29.5161 103.591 29.6086 103.259 29.7936C102.933 29.9787 102.661 30.2317 102.443 30.5527C102.231 30.8683 102.089 31.2247 102.019 31.6219ZM109.72 36.4048V28.2429H111.418V29.108C111.701 28.7707 112.046 28.5041 112.455 28.3082C112.868 28.1123 113.314 28.0144 113.793 28.0144C114.375 28.0144 114.911 28.1558 115.401 28.4388C115.891 28.7163 116.28 29.0863 116.568 29.5488C116.857 29.0863 117.24 28.7163 117.719 28.4388C118.203 28.1558 118.737 28.0144 119.319 28.0144C119.923 28.0144 120.472 28.1613 120.967 28.4551C121.463 28.7489 121.857 29.1434 122.151 29.6386C122.445 30.1337 122.592 30.6833 122.592 31.2873V36.4048H120.894V31.7199C120.894 31.3607 120.807 31.0315 120.633 30.7323C120.459 30.433 120.225 30.1909 119.931 30.0059C119.637 29.8209 119.311 29.7284 118.951 29.7284C118.592 29.7284 118.266 29.8154 117.972 29.9895C117.678 30.1637 117.444 30.4003 117.27 30.6996C117.096 30.9989 117.009 31.339 117.009 31.7199V36.4048H115.311V31.7199C115.311 31.339 115.224 30.9989 115.05 30.6996C114.876 30.4003 114.639 30.1637 114.34 29.9895C114.046 29.8154 113.72 29.7284 113.361 29.7284C113.007 29.7284 112.68 29.8209 112.381 30.0059C112.087 30.1909 111.853 30.433 111.679 30.7323C111.505 31.0315 111.418 31.3607 111.418 31.7199V36.4048H109.72ZM127.659 36.617C126.908 36.617 126.222 36.4238 125.602 36.0375C124.987 35.6512 124.495 35.1342 124.125 34.4867C123.76 33.8338 123.578 33.1128 123.578 32.3238C123.578 31.7253 123.684 31.1676 123.896 30.6506C124.108 30.1283 124.399 29.6712 124.769 29.2794C125.145 28.8822 125.58 28.5721 126.075 28.349C126.57 28.1259 127.098 28.0144 127.659 28.0144C128.284 28.0144 128.858 28.1449 129.381 28.4061C129.903 28.6619 130.349 29.0183 130.719 29.4753C131.089 29.927 131.361 30.4493 131.536 31.0424C131.71 31.6301 131.761 32.2558 131.691 32.9197H125.398C125.469 33.2951 125.605 33.6352 125.806 33.9399C126.013 34.2392 126.274 34.4759 126.589 34.65C126.91 34.8241 127.267 34.9139 127.659 34.9193C128.072 34.9193 128.448 34.8159 128.785 34.6092C129.128 34.4024 129.408 34.1167 129.626 33.7522L131.348 34.1521C131.021 34.8758 130.529 35.4689 129.871 35.9314C129.212 36.3885 128.475 36.617 127.659 36.617ZM125.341 31.6219H129.977C129.922 31.2301 129.783 30.8765 129.56 30.5609C129.343 30.2398 129.068 29.9868 128.736 29.8018C128.41 29.6114 128.05 29.5161 127.659 29.5161C127.272 29.5161 126.913 29.6086 126.581 29.7936C126.255 29.9787 125.983 30.2317 125.765 30.5527C125.553 30.8683 125.411 31.2247 125.341 31.6219ZM140.388 31.2873V36.4048H138.69V31.7035C138.69 31.339 138.601 31.007 138.421 30.7078C138.247 30.4085 138.01 30.1718 137.711 29.9977C137.417 29.8181 137.085 29.7284 136.715 29.7284C136.356 29.7284 136.027 29.8181 135.728 29.9977C135.428 30.1718 135.189 30.4085 135.009 30.7078C134.83 31.007 134.74 31.339 134.74 31.7035V36.4048H133.042V28.2429H134.74V29.108C135.023 28.7707 135.371 28.5041 135.785 28.3082C136.198 28.1123 136.644 28.0144 137.123 28.0144C137.727 28.0144 138.277 28.1613 138.772 28.4551C139.267 28.7489 139.659 29.1434 139.947 29.6386C140.241 30.1337 140.388 30.6833 140.388 31.2873ZM146.327 29.9406H144.613L144.605 36.4048H142.907L142.915 29.9406H141.617V28.2429H142.915L142.907 25.6801H144.605L144.613 28.2429H146.327V29.9406ZM151.709 36.4048L153.921 24.9781H155.293L158.223 32.6748L161.136 24.9781H162.508L164.728 36.4048H162.997L161.52 28.7571L158.786 35.9722H157.643L154.917 28.7571L153.44 36.4048H151.709ZM169.488 36.617C168.737 36.617 168.052 36.4238 167.432 36.0375C166.817 35.6512 166.324 35.1342 165.954 34.4867C165.59 33.8338 165.407 33.1128 165.407 32.3238C165.407 31.7253 165.514 31.1676 165.726 30.6506C165.938 30.1283 166.229 29.6712 166.599 29.2794C166.975 28.8822 167.41 28.5721 167.905 28.349C168.4 28.1259 168.928 28.0144 169.488 28.0144C170.114 28.0144 170.688 28.1449 171.211 28.4061C171.733 28.6619 172.179 29.0183 172.549 29.4753C172.919 29.927 173.191 30.4493 173.365 31.0424C173.539 31.6301 173.591 32.2558 173.52 32.9197H167.228C167.298 33.2951 167.434 33.6352 167.636 33.9399C167.842 34.2392 168.104 34.4759 168.419 34.65C168.74 34.8241 169.097 34.9139 169.488 34.9193C169.902 34.9193 170.277 34.8159 170.615 34.6092C170.958 34.4024 171.238 34.1167 171.455 33.7522L173.178 34.1521C172.851 34.8758 172.359 35.4689 171.7 35.9314C171.042 36.3885 170.305 36.617 169.488 36.617ZM167.17 31.6219H171.806C171.752 31.2301 171.613 30.8765 171.39 30.5609C171.172 30.2398 170.898 29.9868 170.566 29.8018C170.239 29.6114 169.88 29.5161 169.488 29.5161C169.102 29.5161 168.743 29.6086 168.411 29.7936C168.085 29.9787 167.812 30.2317 167.595 30.5527C167.383 30.8683 167.241 31.2247 167.17 31.6219ZM182.218 31.2873V36.4048H180.52V31.7035C180.52 31.339 180.43 31.007 180.251 30.7078C180.077 30.4085 179.84 30.1718 179.541 29.9977C179.247 29.8181 178.915 29.7284 178.545 29.7284C178.186 29.7284 177.857 29.8181 177.557 29.9977C177.258 30.1718 177.019 30.4085 176.839 30.7078C176.66 31.007 176.57 31.339 176.57 31.7035V36.4048H174.872V28.2429H176.57V29.108C176.853 28.7707 177.201 28.5041 177.614 28.3082C178.028 28.1123 178.474 28.0144 178.953 28.0144C179.557 28.0144 180.107 28.1613 180.602 28.4551C181.097 28.7489 181.489 29.1434 181.777 29.6386C182.071 30.1337 182.218 30.6833 182.218 31.2873ZM186.296 36.5599C185.866 36.5327 185.447 36.4456 185.039 36.2987C184.63 36.1518 184.271 35.9532 183.961 35.7029C183.657 35.4471 183.428 35.1479 183.276 34.8051L184.72 34.1847C184.791 34.3317 184.913 34.4759 185.088 34.6173C185.267 34.7588 185.477 34.8758 185.716 34.9683C185.955 35.0554 186.206 35.0989 186.467 35.0989C186.723 35.0989 186.959 35.0635 187.177 34.9928C187.4 34.9166 187.582 34.8023 187.724 34.65C187.865 34.4976 187.936 34.3153 187.936 34.1031C187.936 33.8637 187.854 33.6787 187.691 33.5481C187.533 33.4121 187.335 33.3087 187.095 33.238C186.856 33.1672 186.617 33.0992 186.377 33.0339C185.844 32.9142 185.354 32.751 184.908 32.5442C184.467 32.332 184.116 32.0627 183.855 31.7362C183.594 31.4043 183.463 30.9989 183.463 30.5201C183.463 29.9977 183.605 29.5461 183.888 29.1652C184.171 28.7789 184.541 28.4823 184.998 28.2755C185.46 28.0688 185.953 27.9654 186.475 27.9654C187.128 27.9654 187.727 28.1041 188.271 28.3816C188.815 28.6591 189.231 29.04 189.519 29.5243L188.173 30.3242C188.091 30.1609 187.969 30.014 187.805 29.8834C187.642 29.7528 187.457 29.6495 187.25 29.5733C187.044 29.4917 186.829 29.4454 186.606 29.4345C186.328 29.4236 186.07 29.4563 185.83 29.5325C185.596 29.6032 185.409 29.7175 185.267 29.8753C185.126 30.0331 185.055 30.2344 185.055 30.4792C185.055 30.7187 185.139 30.8982 185.308 31.0179C185.477 31.1322 185.689 31.2247 185.945 31.2954C186.206 31.3662 186.472 31.4451 186.744 31.5321C187.229 31.6845 187.683 31.8722 188.107 32.0953C188.532 32.313 188.875 32.5823 189.136 32.9033C189.397 33.2244 189.522 33.6161 189.511 34.0786C189.511 34.5901 189.356 35.039 189.046 35.4254C188.741 35.8117 188.344 36.1055 187.854 36.3068C187.365 36.5082 186.845 36.5925 186.296 36.5599ZM190.582 33.3441V28.2429H192.28V32.9278C192.28 33.2924 192.37 33.6243 192.549 33.9236C192.729 34.2228 192.968 34.4623 193.268 34.6418C193.567 34.8159 193.896 34.903 194.255 34.903C194.62 34.903 194.949 34.8159 195.243 34.6418C195.542 34.4623 195.779 34.2228 195.953 33.9236C196.133 33.6243 196.222 33.2924 196.222 32.9278V28.2429H197.92L197.928 36.4048H196.23L196.222 35.5233C195.945 35.8607 195.599 36.1273 195.186 36.3232C194.772 36.5191 194.329 36.617 193.855 36.617C193.251 36.617 192.702 36.4701 192.207 36.1763C191.711 35.8824 191.317 35.4879 191.023 34.9928C190.729 34.4976 190.582 33.9481 190.582 33.3441ZM203.045 36.617C202.294 36.617 201.608 36.4238 200.988 36.0375C200.373 35.6512 199.881 35.1342 199.511 34.4867C199.146 33.8338 198.964 33.1128 198.964 32.3238C198.964 31.7253 199.07 31.1676 199.282 30.6506C199.494 30.1283 199.785 29.6712 200.155 29.2794C200.531 28.8822 200.966 28.5721 201.461 28.349C201.956 28.1259 202.484 28.0144 203.045 28.0144C203.67 28.0144 204.244 28.1449 204.767 28.4061C205.289 28.6619 205.735 29.0183 206.105 29.4753C206.475 29.927 206.747 30.4493 206.922 31.0424C207.096 31.6301 207.147 32.2558 207.077 32.9197H200.784C200.855 33.2951 200.991 33.6352 201.192 33.9399C201.399 34.2392 201.66 34.4759 201.975 34.65C202.296 34.8241 202.653 34.9139 203.045 34.9193C203.458 34.9193 203.834 34.8159 204.171 34.6092C204.514 34.4024 204.794 34.1167 205.012 33.7522L206.734 34.1521C206.407 34.8758 205.915 35.4689 205.257 35.9314C204.598 36.3885 203.861 36.617 203.045 36.617ZM200.727 31.6219H205.363C205.308 31.2301 205.169 30.8765 204.946 30.5609C204.729 30.2398 204.454 29.9868 204.122 29.8018C203.796 29.6114 203.436 29.5161 203.045 29.5161C202.658 29.5161 202.299 29.6086 201.967 29.7936C201.641 29.9787 201.369 30.2317 201.151 30.5527C200.939 30.8683 200.797 31.2247 200.727 31.6219ZM208.317 36.4048V24.1619H210.014V36.4048H208.317ZM215.889 36.4048V24.9781H220.092C220.712 24.9781 221.27 25.1305 221.765 25.4352C222.26 25.7399 222.652 26.1507 222.941 26.6676C223.234 27.1791 223.381 27.7505 223.381 28.3816C223.381 28.9149 223.281 29.4019 223.079 29.8426C222.884 30.2834 222.606 30.6588 222.247 30.969C221.893 31.2791 221.488 31.5022 221.031 31.6382L223.789 36.4048H221.822L219.145 31.7933H217.586V36.4048H215.889ZM217.586 30.0956H219.913C220.239 30.0956 220.536 30.014 220.802 29.8508C221.074 29.6875 221.289 29.4699 221.447 29.1978C221.605 28.9258 221.684 28.6183 221.684 28.2755C221.684 27.9327 221.605 27.6253 221.447 27.3532C221.289 27.0757 221.074 26.8581 220.802 26.7003C220.536 26.537 220.239 26.4554 219.913 26.4554H217.586V30.0956ZM228.551 36.617C227.8 36.617 227.114 36.4238 226.494 36.0375C225.879 35.6512 225.386 35.1342 225.016 34.4867C224.652 33.8338 224.47 33.1128 224.47 32.3238C224.47 31.7253 224.576 31.1676 224.788 30.6506C225 30.1283 225.291 29.6712 225.661 29.2794C226.037 28.8822 226.472 28.5721 226.967 28.349C227.462 28.1259 227.99 28.0144 228.551 28.0144C229.176 28.0144 229.75 28.1449 230.273 28.4061C230.795 28.6619 231.241 29.0183 231.611 29.4753C231.981 29.927 232.253 30.4493 232.427 31.0424C232.602 31.6301 232.653 32.2558 232.583 32.9197H226.29C226.36 33.2951 226.496 33.6352 226.698 33.9399C226.905 34.2392 227.166 34.4759 227.481 34.65C227.802 34.8241 228.159 34.9139 228.551 34.9193C228.964 34.9193 229.34 34.8159 229.677 34.6092C230.02 34.4024 230.3 34.1167 230.518 33.7522L232.24 34.1521C231.913 34.8758 231.421 35.4689 230.762 35.9314C230.104 36.3885 229.367 36.617 228.551 36.617ZM226.233 31.6219H230.869C230.814 31.2301 230.675 30.8765 230.452 30.5609C230.235 30.2398 229.96 29.9868 229.628 29.8018C229.301 29.6114 228.942 29.5161 228.551 29.5161C228.164 29.5161 227.805 29.6086 227.473 29.7936C227.147 29.9787 226.875 30.2317 226.657 30.5527C226.445 30.8683 226.303 31.2247 226.233 31.6219ZM239.248 34.0868L240.766 34.9112C240.396 35.4281 239.925 35.8416 239.354 36.1518C238.788 36.4619 238.173 36.617 237.51 36.617C236.759 36.617 236.073 36.4238 235.453 36.0375C234.838 35.6512 234.345 35.1342 233.975 34.4867C233.611 33.8338 233.429 33.1128 233.429 32.3238C233.429 31.7253 233.535 31.1676 233.747 30.6506C233.959 30.1283 234.25 29.6712 234.62 29.2794C234.996 28.8822 235.431 28.5721 235.926 28.349C236.421 28.1259 236.949 28.0144 237.51 28.0144C238.173 28.0144 238.788 28.1694 239.354 28.4796C239.925 28.7897 240.396 29.206 240.766 29.7284L239.248 30.5527C239.019 30.2806 238.753 30.0739 238.448 29.9324C238.143 29.7855 237.831 29.712 237.51 29.712C237.063 29.712 236.658 29.8345 236.293 30.0793C235.934 30.3187 235.649 30.637 235.436 31.0343C235.23 31.426 235.126 31.8559 235.126 32.3238C235.126 32.7863 235.232 33.2162 235.445 33.6134C235.657 34.0052 235.942 34.3208 236.302 34.5602C236.666 34.7996 237.069 34.9193 237.51 34.9193C237.847 34.9193 238.168 34.8431 238.473 34.6908C238.777 34.5384 239.036 34.3371 239.248 34.0868ZM237.558 39.4492C237.183 39.5471 236.827 39.4981 236.489 39.3023C236.157 39.1118 235.94 38.8316 235.836 38.4616L236.75 38.2167C236.783 38.3364 236.854 38.4262 236.963 38.4861C237.071 38.5514 237.188 38.5677 237.314 38.535C237.439 38.5024 237.531 38.4317 237.591 38.3228C237.656 38.214 237.673 38.097 237.64 37.9719C237.607 37.8467 237.537 37.7542 237.428 37.6944C237.319 37.64 237.202 37.6236 237.077 37.6454L236.122 37.7025L237.216 35.7845L238.04 36.2579L237.714 36.8129C237.915 36.8836 238.089 36.9979 238.236 37.1557C238.388 37.3189 238.492 37.5121 238.546 37.7352C238.649 38.1052 238.603 38.4589 238.407 38.7962C238.217 39.1336 237.934 39.3512 237.558 39.4492ZM241.77 33.3441V28.2429H243.467V32.9278C243.467 33.2924 243.557 33.6243 243.737 33.9236C243.916 34.2228 244.156 34.4623 244.455 34.6418C244.754 34.8159 245.083 34.903 245.443 34.903C245.807 34.903 246.136 34.8159 246.43 34.6418C246.729 34.4623 246.966 34.2228 247.14 33.9236C247.32 33.6243 247.41 33.2924 247.41 32.9278V28.2429H249.107L249.115 36.4048H247.418L247.41 35.5233C247.132 35.8607 246.786 36.1273 246.373 36.3232C245.959 36.5191 245.516 36.617 245.043 36.617C244.439 36.617 243.889 36.4701 243.394 36.1763C242.899 35.8824 242.504 35.4879 242.21 34.9928C241.917 34.4976 241.77 33.9481 241.77 33.3441Z" fill="#090F1F"/>
<path d="M82.6102 60.5676V57.0968H79.1394V54.8563H82.6102V51.3855H84.8506V54.8563H88.3215V57.0968H84.8506V60.5676H82.6102ZM93.7496 61.7246C92.9721 61.7246 92.2712 61.5409 91.6469 61.1736C91.0225 60.8064 90.5266 60.3136 90.1594 59.6953C89.7921 59.0709 89.6084 58.3792 89.6084 57.6202H91.8489C91.8489 57.963 91.9284 58.2752 92.0876 58.5567C92.2529 58.8383 92.4794 59.0648 92.7671 59.2362C93.0548 59.4015 93.3823 59.4841 93.7496 59.4841C94.0862 59.4841 94.3984 59.4015 94.6861 59.2362C94.98 59.0648 95.2157 58.8383 95.3932 58.5567C95.5707 58.2752 95.6595 57.963 95.6595 57.6202C95.6595 57.1733 95.5401 56.8029 95.3014 56.5091C95.0626 56.2092 94.729 55.9857 94.3005 55.8388C93.8781 55.6919 93.3853 55.6185 92.8222 55.6185V53.8922C93.5812 53.8922 94.1811 53.7484 94.6219 53.4607C95.0687 53.1729 95.2922 52.7506 95.2922 52.1935C95.2922 51.9058 95.2187 51.6426 95.0718 51.4039C94.9249 51.1651 94.729 50.9754 94.4841 50.8346C94.2454 50.6876 93.9822 50.6142 93.6945 50.6142C93.4006 50.6142 93.116 50.6876 92.8405 50.8346C92.5651 50.9754 92.3386 51.1651 92.1611 51.4039C91.9897 51.6426 91.904 51.9058 91.904 52.1935H89.6635C89.6635 51.6671 89.7706 51.1743 89.9849 50.7152C90.1991 50.25 90.493 49.8429 90.8664 49.494C91.2459 49.145 91.6744 48.8726 92.1519 48.6768C92.6355 48.4748 93.1405 48.3737 93.6669 48.3737C94.3587 48.3737 94.9983 48.5451 95.586 48.8879C96.1737 49.2307 96.645 49.6899 97 50.2653C97.3551 50.8407 97.5326 51.4834 97.5326 52.1935C97.5326 52.6894 97.4163 53.176 97.1837 53.6535C96.9511 54.1309 96.6205 54.4676 96.192 54.6635C96.5654 54.7982 96.8776 55.0247 97.1286 55.343C97.3796 55.6552 97.5693 56.0133 97.6979 56.4173C97.8326 56.8152 97.8999 57.2161 97.8999 57.6202C97.8999 58.3731 97.7101 59.0618 97.3306 59.6861C96.9511 60.3044 96.4461 60.8002 95.8156 61.1736C95.1912 61.5409 94.5025 61.7246 93.7496 61.7246ZM107.917 61.7246C107.09 61.7246 106.344 61.5256 105.676 61.1277C105.009 60.7237 104.48 60.1881 104.088 59.5209C103.702 58.8536 103.509 58.1221 103.509 57.3263H105.75C105.75 57.7242 105.848 58.0884 106.044 58.419C106.239 58.7434 106.5 59.0036 106.824 59.1995C107.155 59.3893 107.519 59.4841 107.917 59.4841C108.315 59.4841 108.676 59.3893 109 59.1995C109.325 59.0036 109.585 58.7434 109.781 58.419C109.977 58.0884 110.075 57.7242 110.075 57.3263C110.075 56.9284 109.989 56.5642 109.817 56.2337C109.652 55.897 109.38 55.6307 109 55.4348C108.627 55.2328 108.131 55.1318 107.513 55.1318H104.207L105.566 48.6308H111.883V50.8713H107.384L106.971 52.8914L107.88 52.9005C108.749 52.9311 109.517 53.1423 110.185 53.5341C110.852 53.9259 111.372 54.4523 111.746 55.1134C112.125 55.7684 112.315 56.5061 112.315 57.3263C112.315 57.9262 112.202 58.4925 111.975 59.025C111.749 59.5576 111.434 60.0259 111.029 60.4299C110.625 60.8339 110.157 61.1522 109.625 61.3848C109.098 61.6113 108.529 61.7246 107.917 61.7246ZM114.146 61.4858V59.4841C114.544 59.1842 115.015 58.8138 115.56 58.3731C116.105 57.9262 116.665 57.4457 117.241 56.9315C117.816 56.4112 118.349 55.8909 118.838 55.3705C119.328 54.8502 119.726 54.3544 120.032 53.883C120.344 53.4117 120.5 53.0077 120.5 52.671C120.5 52.2976 120.408 51.9578 120.225 51.6518C120.041 51.3396 119.796 51.0917 119.49 50.908C119.19 50.7244 118.854 50.6326 118.48 50.6326C118.107 50.6326 117.767 50.7244 117.461 50.908C117.155 51.0917 116.91 51.3396 116.726 51.6518C116.543 51.9578 116.451 52.2976 116.451 52.671H114.211C114.211 51.863 114.406 51.1376 114.798 50.4948C115.19 49.846 115.707 49.3348 116.35 48.9614C116.999 48.5819 117.709 48.3921 118.48 48.3921C119.264 48.3921 119.977 48.5849 120.62 48.9706C121.262 49.3501 121.777 49.8643 122.162 50.5132C122.548 51.1621 122.741 51.8813 122.741 52.671C122.741 53.0872 122.664 53.5066 122.511 53.9289C122.358 54.3513 122.144 54.7768 121.868 55.2053C121.593 55.6338 121.269 56.0684 120.895 56.5091C120.522 56.9437 120.109 57.3906 119.656 57.8497C119.209 58.3027 118.737 58.7679 118.241 59.2454H122.805V61.4858H114.146ZM128.992 61.7246C128.245 61.7246 127.566 61.5532 126.953 61.2104C126.341 60.8615 125.812 60.3809 125.365 59.7688C124.924 59.1566 124.584 58.4496 124.346 57.6477C124.107 56.8397 123.988 55.9766 123.988 55.0583C123.988 54.1401 124.107 53.2801 124.346 52.4782C124.584 51.6701 124.924 50.9601 125.365 50.3479C125.812 49.7358 126.341 49.2583 126.953 48.9155C127.566 48.5666 128.245 48.3921 128.992 48.3921C129.739 48.3921 130.418 48.5666 131.03 48.9155C131.642 49.2583 132.166 49.7358 132.6 50.3479C133.041 50.9601 133.381 51.6701 133.62 52.4782C133.865 53.2801 133.987 54.1401 133.987 55.0583C133.987 55.9766 133.865 56.8397 133.62 57.6477C133.381 58.4496 133.041 59.1566 132.6 59.7688C132.166 60.3809 131.642 60.8615 131.03 61.2104C130.418 61.5532 129.739 61.7246 128.992 61.7246ZM128.992 59.4841C129.647 59.4841 130.189 59.276 130.617 58.8597C131.046 58.4435 131.364 57.8987 131.572 57.2253C131.78 56.552 131.884 55.8296 131.884 55.0583C131.884 54.2442 131.774 53.5035 131.554 52.8363C131.333 52.1629 131.009 51.6273 130.58 51.2294C130.152 50.8315 129.622 50.6326 128.992 50.6326C128.496 50.6326 128.065 50.755 127.697 50.9998C127.336 51.2386 127.036 51.5661 126.797 51.9823C126.559 52.3986 126.381 52.873 126.265 53.4056C126.148 53.932 126.09 54.4829 126.09 55.0583C126.09 55.8235 126.194 56.5459 126.403 57.2253C126.617 57.8987 126.938 58.4435 127.367 58.8597C127.801 59.276 128.343 59.4841 128.992 59.4841ZM148.508 61.6328C147.688 61.7674 146.898 61.7521 146.139 61.5868C145.38 61.4216 144.682 61.1308 144.046 60.7145C143.415 60.2983 142.87 59.781 142.411 59.1628C141.952 58.5384 141.606 57.8344 141.374 57.0509H139.684V55.5175H141.098V54.6268H139.684V53.0934H141.374C141.6 52.2976 141.946 51.5875 142.411 50.9631C142.876 50.3326 143.427 49.8092 144.064 49.393C144.701 48.9767 145.395 48.689 146.148 48.5298C146.901 48.3646 147.688 48.3493 148.508 48.4839V50.7978C147.994 50.657 147.498 50.6142 147.021 50.6693C146.549 50.7183 146.105 50.8499 145.689 51.0641C145.279 51.2784 144.912 51.5569 144.587 51.8997C144.263 52.2425 144 52.6404 143.798 53.0934H146.286V54.6268H143.339L143.357 55.5175H146.286V57.0509H143.816C144.024 57.51 144.29 57.9109 144.615 58.2537C144.945 58.5965 145.319 58.872 145.735 59.0801C146.151 59.2821 146.592 59.4076 147.057 59.4566C147.529 59.4994 148.012 59.4535 148.508 59.3189V61.6328Z" fill="#0095FC"/>
<path d="M80.8758 90.6477V80.7351H82.2041V90.6477H80.8758ZM78.8476 81.9349V80.7351H82.0613V81.9349H78.8476ZM88.9226 90.7905C88.3512 90.7905 87.8465 90.681 87.4085 90.462C86.98 90.2335 86.6277 89.9288 86.3516 89.5479L87.2943 88.6766C87.4752 88.9432 87.699 89.148 87.9656 89.2908C88.2417 89.4336 88.5464 89.505 88.8797 89.505C89.213 89.505 89.5082 89.4336 89.7653 89.2908C90.0224 89.148 90.2223 88.9385 90.3652 88.6623C90.5175 88.3767 90.5937 88.0291 90.5937 87.6196V80.7351H91.9363V87.5482C91.9363 88.2053 91.803 88.7766 91.5364 89.2622C91.2793 89.7479 90.9222 90.124 90.4652 90.3906C90.0176 90.6572 89.5034 90.7905 88.9226 90.7905ZM96.8229 90.7905C96.204 90.7905 95.6422 90.6382 95.1375 90.3335C94.6328 90.0192 94.2329 89.5955 93.9377 89.0623C93.652 88.529 93.5092 87.9291 93.5092 87.2626C93.5092 86.596 93.652 85.9961 93.9377 85.4629C94.2329 84.9296 94.628 84.5059 95.1232 84.1916C95.6279 83.8774 96.1944 83.7203 96.8229 83.7203C97.3371 83.7203 97.7942 83.8298 98.1941 84.0488C98.6036 84.2583 98.9321 84.5535 99.1797 84.9344C99.4272 85.3057 99.5653 85.739 99.5939 86.2342V88.2767C99.5653 88.7623 99.4272 89.1956 99.1797 89.5765C98.9416 89.9573 98.6178 90.2573 98.2084 90.4763C97.8085 90.6858 97.3466 90.7905 96.8229 90.7905ZM97.0372 89.5765C97.6751 89.5765 98.1893 89.3622 98.5798 88.9337C98.9702 88.4957 99.1654 87.9386 99.1654 87.2626C99.1654 86.796 99.0749 86.3913 98.894 86.0485C98.7226 85.6962 98.475 85.4248 98.1513 85.2343C97.8275 85.0344 97.4514 84.9344 97.0229 84.9344C96.5944 84.9344 96.2135 85.0344 95.8802 85.2343C95.5565 85.4343 95.2994 85.7104 95.1089 86.0628C94.928 86.4056 94.8375 86.8007 94.8375 87.2483C94.8375 87.7053 94.928 88.11 95.1089 88.4624C95.2994 88.8052 95.5612 89.0765 95.8945 89.2765C96.2278 89.4765 96.6087 89.5765 97.0372 89.5765ZM99.0797 90.6477V88.8194L99.3225 87.1626L99.0797 85.52V83.8631H100.379V90.6477H99.0797ZM107.05 90.6477V86.6912C107.05 86.177 106.888 85.7533 106.565 85.42C106.241 85.0867 105.822 84.9201 105.308 84.9201C104.965 84.9201 104.66 84.9963 104.394 85.1486C104.127 85.301 103.917 85.5105 103.765 85.7771C103.613 86.0437 103.537 86.3484 103.537 86.6912L103.008 86.3913C103.008 85.8771 103.122 85.42 103.351 85.0201C103.579 84.6201 103.898 84.3059 104.308 84.0774C104.717 83.8393 105.179 83.7203 105.693 83.7203C106.207 83.7203 106.66 83.8488 107.05 84.1059C107.45 84.363 107.764 84.7011 107.993 85.1201C108.221 85.5295 108.336 85.9675 108.336 86.4341V90.6477H107.05ZM102.251 90.6477V83.8631H103.537V90.6477H102.251ZM110.148 92.2189L111.033 90.5192L111.49 90.4049C111.443 90.5096 111.381 90.5953 111.305 90.662C111.238 90.7286 111.152 90.762 111.047 90.762C110.847 90.762 110.662 90.681 110.49 90.5192C110.328 90.3478 110.248 90.1383 110.248 89.8907C110.248 89.6145 110.338 89.386 110.519 89.2051C110.7 89.0146 110.928 88.9194 111.205 88.9194C111.452 88.9194 111.671 89.0146 111.862 89.2051C112.052 89.386 112.147 89.6145 112.147 89.8907C112.147 89.9954 112.123 90.124 112.076 90.2763C112.038 90.4192 111.957 90.6049 111.833 90.8334L110.89 92.6188L110.148 92.2189ZM116.509 89.8336L120.166 85.9771C120.537 85.5962 120.828 85.2677 121.037 84.9915C121.247 84.7058 121.394 84.444 121.48 84.2059C121.575 83.9679 121.623 83.7203 121.623 83.4632C121.623 82.9585 121.461 82.5633 121.137 82.2777C120.813 81.992 120.394 81.8492 119.88 81.8492C119.376 81.8492 118.933 81.973 118.552 82.2205C118.171 82.4586 117.833 82.83 117.538 83.3346L116.595 82.5491C116.985 81.9015 117.457 81.4159 118.009 81.0922C118.561 80.7589 119.199 80.5922 119.923 80.5922C120.532 80.5922 121.061 80.7113 121.509 80.9493C121.966 81.1874 122.318 81.5207 122.565 81.9492C122.813 82.3777 122.937 82.8776 122.937 83.4489C122.937 83.8584 122.884 84.225 122.78 84.5487C122.685 84.8725 122.508 85.2058 122.251 85.5486C122.004 85.8818 121.656 86.2818 121.209 86.7484L118.252 89.7907L116.509 89.8336ZM116.509 90.6477V89.8336L117.652 89.4479H123.165V90.6477H116.509ZM128.479 90.7905C127.736 90.7905 127.055 90.581 126.436 90.1621C125.827 89.7431 125.341 89.1527 124.98 88.3909C124.618 87.6196 124.437 86.715 124.437 85.6771C124.437 84.6392 124.613 83.7393 124.965 82.9776C125.327 82.2158 125.813 81.6302 126.422 81.2207C127.032 80.8017 127.703 80.5922 128.436 80.5922C129.188 80.5922 129.869 80.8017 130.479 81.2207C131.088 81.6302 131.569 82.2158 131.921 82.9776C132.283 83.7393 132.464 84.6439 132.464 85.6914C132.464 86.7293 132.283 87.6339 131.921 88.4052C131.569 89.167 131.088 89.7574 130.479 90.1764C129.879 90.5858 129.212 90.7905 128.479 90.7905ZM128.45 89.5193C128.974 89.5193 129.431 89.3765 129.822 89.0908C130.222 88.7956 130.536 88.3624 130.764 87.791C130.993 87.2197 131.107 86.5151 131.107 85.6771C131.107 84.8392 130.993 84.1393 130.764 83.5775C130.536 83.0061 130.222 82.5776 129.822 82.292C129.422 81.9968 128.96 81.8492 128.436 81.8492C127.922 81.8492 127.465 81.9968 127.065 82.292C126.665 82.5776 126.351 83.0061 126.122 83.5775C125.903 84.1393 125.794 84.8392 125.794 85.6771C125.794 86.5151 125.903 87.2197 126.122 87.791C126.351 88.3624 126.665 88.7956 127.065 89.0908C127.465 89.3765 127.927 89.5193 128.45 89.5193ZM133.582 89.8336L137.239 85.9771C137.61 85.5962 137.901 85.2677 138.11 84.9915C138.32 84.7058 138.467 84.444 138.553 84.2059C138.648 83.9679 138.696 83.7203 138.696 83.4632C138.696 82.9585 138.534 82.5633 138.21 82.2777C137.886 81.992 137.467 81.8492 136.953 81.8492C136.449 81.8492 136.006 81.973 135.625 82.2205C135.244 82.4586 134.906 82.83 134.611 83.3346L133.668 82.5491C134.058 81.9015 134.53 81.4159 135.082 81.0922C135.634 80.7589 136.272 80.5922 136.996 80.5922C137.606 80.5922 138.134 80.7113 138.582 80.9493C139.039 81.1874 139.391 81.5207 139.639 81.9492C139.886 82.3777 140.01 82.8776 140.01 83.4489C140.01 83.8584 139.957 84.225 139.853 84.5487C139.758 84.8725 139.581 85.2058 139.324 85.5486C139.077 85.8818 138.729 86.2818 138.282 86.7484L135.325 89.7907L133.582 89.8336ZM133.582 90.6477V89.8336L134.725 89.4479H140.238V90.6477H133.582ZM144.381 90.7905C143.705 90.7905 143.1 90.6715 142.567 90.4335C142.043 90.1859 141.6 89.8288 141.238 89.3622L142.153 88.4481C142.372 88.7814 142.672 89.048 143.052 89.2479C143.443 89.4384 143.876 89.5336 144.352 89.5336C144.8 89.5336 145.19 89.4479 145.523 89.2765C145.866 89.1051 146.133 88.8671 146.323 88.5623C146.523 88.2481 146.623 87.8767 146.623 87.4482C146.623 87.0102 146.528 86.6389 146.338 86.3341C146.147 86.0294 145.89 85.8009 145.566 85.6485C145.252 85.4867 144.905 85.4057 144.524 85.4057C144.133 85.4057 143.776 85.4533 143.452 85.5486C143.138 85.6438 142.838 85.8057 142.553 86.0342L142.567 85.1772C142.729 84.9772 142.914 84.8153 143.124 84.6916C143.333 84.5678 143.571 84.4725 143.838 84.4059C144.105 84.3392 144.414 84.3059 144.766 84.3059C145.452 84.3059 146.033 84.4487 146.509 84.7344C146.985 85.0201 147.347 85.4057 147.595 85.8914C147.852 86.377 147.98 86.9198 147.98 87.5197C147.98 88.1481 147.823 88.7099 147.509 89.2051C147.204 89.7002 146.78 90.0907 146.238 90.3763C145.695 90.6525 145.076 90.7905 144.381 90.7905ZM142.553 86.0342L141.824 85.3057L142.267 80.7351H143.495L142.995 85.4343L142.553 86.0342ZM142.538 81.9349L142.267 80.7351H147.48V81.9349H142.538Z" fill="#4D525F"/>
<path d="M177.418 90.7905C176.771 90.7905 176.181 90.6715 175.647 90.4335C175.124 90.1859 174.681 89.8288 174.319 89.3622L175.233 88.4481C175.452 88.7814 175.752 89.048 176.133 89.2479C176.514 89.4384 176.938 89.5336 177.404 89.5336C177.842 89.5336 178.218 89.4527 178.533 89.2908C178.856 89.1194 179.109 88.8813 179.29 88.5766C179.48 88.2719 179.575 87.9196 179.575 87.5197C179.575 87.1102 179.48 86.7579 179.29 86.4627C179.109 86.158 178.852 85.9247 178.518 85.7628C178.185 85.6009 177.79 85.52 177.333 85.52C177.161 85.52 176.99 85.5343 176.819 85.5628C176.647 85.5819 176.481 85.6152 176.319 85.6628L176.89 84.8915C177.071 84.8058 177.266 84.7392 177.476 84.6916C177.685 84.6439 177.895 84.6201 178.104 84.6201C178.637 84.6201 179.113 84.7439 179.532 84.9915C179.961 85.2391 180.299 85.5866 180.547 86.0342C180.804 86.4817 180.932 87.0007 180.932 87.5911C180.932 88.2195 180.78 88.7766 180.475 89.2622C180.18 89.7383 179.77 90.1145 179.247 90.3906C178.723 90.6572 178.114 90.7905 177.418 90.7905ZM176.319 85.6628V84.8487L179.218 81.5492L180.818 81.5349L177.833 84.9201L176.319 85.6628ZM174.79 81.9349V80.7351H180.818V81.5349L179.647 81.9349H174.79ZM183.243 90.7905C182.976 90.7905 182.752 90.7001 182.571 90.5192C182.4 90.3287 182.314 90.1049 182.314 89.8478C182.314 89.5812 182.4 89.3622 182.571 89.1908C182.752 89.0099 182.976 88.9194 183.243 88.9194C183.509 88.9194 183.728 89.0099 183.9 89.1908C184.081 89.3622 184.171 89.5812 184.171 89.8478C184.171 90.1049 184.081 90.3287 183.9 90.5192C183.728 90.7001 183.509 90.7905 183.243 90.7905ZM189.637 90.7905C188.895 90.7905 188.214 90.581 187.595 90.1621C186.985 89.7431 186.5 89.1527 186.138 88.3909C185.776 87.6196 185.595 86.715 185.595 85.6771C185.595 84.6392 185.771 83.7393 186.124 82.9776C186.485 82.2158 186.971 81.6302 187.581 81.2207C188.19 80.8017 188.861 80.5922 189.594 80.5922C190.347 80.5922 191.028 80.8017 191.637 81.2207C192.246 81.6302 192.727 82.2158 193.08 82.9776C193.441 83.7393 193.622 84.6439 193.622 85.6914C193.622 86.7293 193.441 87.6339 193.08 88.4052C192.727 89.167 192.246 89.7574 191.637 90.1764C191.037 90.5858 190.371 90.7905 189.637 90.7905ZM189.609 89.5193C190.132 89.5193 190.59 89.3765 190.98 89.0908C191.38 88.7956 191.694 88.3624 191.923 87.791C192.151 87.2197 192.265 86.5151 192.265 85.6771C192.265 84.8392 192.151 84.1393 191.923 83.5775C191.694 83.0061 191.38 82.5776 190.98 82.292C190.58 81.9968 190.118 81.8492 189.594 81.8492C189.08 81.8492 188.623 81.9968 188.223 82.292C187.823 82.5776 187.509 83.0061 187.281 83.5775C187.062 84.1393 186.952 84.8392 186.952 85.6771C186.952 86.5151 187.062 87.2197 187.281 87.791C187.509 88.3624 187.823 88.7956 188.223 89.0908C188.623 89.3765 189.085 89.5193 189.609 89.5193ZM196.397 90.6477L199.382 86.577L199.868 86.3199C199.753 86.5103 199.615 86.6769 199.454 86.8198C199.292 86.9626 199.092 87.0721 198.854 87.1483C198.625 87.2245 198.344 87.2626 198.011 87.2626C197.44 87.2626 196.911 87.1245 196.425 86.8483C195.949 86.5722 195.568 86.1913 195.283 85.7057C194.997 85.2105 194.854 84.6535 194.854 84.0345C194.854 83.3965 195.011 82.8204 195.326 82.3062C195.64 81.7825 196.059 81.3683 196.583 81.0636C197.106 80.7494 197.687 80.5922 198.325 80.5922C198.973 80.5922 199.558 80.7446 200.082 81.0493C200.606 81.354 201.02 81.7635 201.325 82.2777C201.629 82.7824 201.782 83.3537 201.782 83.9917C201.782 84.8677 201.477 85.739 200.868 86.6055L197.954 90.6477H196.397ZM198.325 86.2056C198.725 86.2056 199.082 86.1104 199.396 85.9199C199.72 85.72 199.972 85.4581 200.153 85.1343C200.344 84.8011 200.439 84.4345 200.439 84.0345C200.439 83.6155 200.344 83.2442 200.153 82.9204C199.972 82.5871 199.72 82.3253 199.396 82.1348C199.082 81.9444 198.725 81.8492 198.325 81.8492C197.925 81.8492 197.563 81.9444 197.24 82.1348C196.925 82.3253 196.673 82.5871 196.483 82.9204C196.292 83.2442 196.197 83.6155 196.197 84.0345C196.197 84.444 196.292 84.8106 196.483 85.1343C196.673 85.4581 196.93 85.72 197.254 85.9199C197.578 86.1104 197.935 86.2056 198.325 86.2056ZM203.245 90.6477L209.601 80.7351H210.901L204.545 90.6477H203.245ZM209.058 90.7905C208.687 90.7905 208.349 90.7001 208.044 90.5192C207.74 90.3382 207.497 90.1002 207.316 89.805C207.135 89.5003 207.044 89.1575 207.044 88.7766C207.044 88.4052 207.135 88.0719 207.316 87.7768C207.497 87.472 207.74 87.2292 208.044 87.0483C208.349 86.8674 208.687 86.7769 209.058 86.7769C209.43 86.7769 209.768 86.8674 210.073 87.0483C210.387 87.2292 210.634 87.472 210.815 87.7768C210.996 88.0719 211.087 88.4052 211.087 88.7766C211.087 89.1575 210.996 89.5003 210.815 89.805C210.634 90.1002 210.391 90.3382 210.087 90.5192C209.782 90.7001 209.439 90.7905 209.058 90.7905ZM209.058 89.7764C209.344 89.7764 209.577 89.686 209.758 89.505C209.939 89.3146 210.03 89.0718 210.03 88.7766C210.03 88.4909 209.934 88.2576 209.744 88.0767C209.563 87.8863 209.335 87.791 209.058 87.791C208.782 87.791 208.554 87.8863 208.373 88.0767C208.192 88.2576 208.101 88.4909 208.101 88.7766C208.101 89.0718 208.192 89.3146 208.373 89.505C208.554 89.686 208.782 89.7764 209.058 89.7764ZM205.073 84.6059C204.711 84.6059 204.378 84.5154 204.074 84.3345C203.769 84.1536 203.526 83.9107 203.345 83.606C203.164 83.3013 203.074 82.9633 203.074 82.5919C203.074 82.211 203.159 81.873 203.331 81.5778C203.512 81.2826 203.755 81.0446 204.059 80.8636C204.364 80.6827 204.702 80.5922 205.073 80.5922C205.454 80.5922 205.797 80.6827 206.102 80.8636C206.406 81.0446 206.649 81.2826 206.83 81.5778C207.011 81.873 207.102 82.211 207.102 82.5919C207.102 82.9633 207.011 83.3013 206.83 83.606C206.649 83.9107 206.406 84.1536 206.102 84.3345C205.807 84.5154 205.464 84.6059 205.073 84.6059ZM205.073 83.5917C205.359 83.5917 205.592 83.5013 205.773 83.3204C205.954 83.1299 206.045 82.8871 206.045 82.5919C206.045 82.2967 205.949 82.0587 205.759 81.8777C205.578 81.6968 205.349 81.6064 205.073 81.6064C204.797 81.6064 204.569 81.6968 204.388 81.8777C204.216 82.0587 204.131 82.2967 204.131 82.5919C204.131 82.8871 204.216 83.1299 204.388 83.3204C204.569 83.5013 204.797 83.5917 205.073 83.5917Z" fill="#00B24E"/>
<path d="M226.805 81.6934H230.01V84.8985" stroke="#00B24E" stroke-width="1.02024" stroke-linecap="round" stroke-linejoin="round"/>
<path d="M230.01 81.6929L224.935 86.7683L222.264 84.0968L218.257 88.1037" stroke="#00B24E" stroke-width="1.02024" stroke-linecap="round" stroke-linejoin="round"/>
</svg>
