<svg width="345" height="50" viewBox="0 0 345 50" fill="none" xmlns="http://www.w3.org/2000/svg">
<path d="M43.5627 25.3911L40.3069 42.4478L37.6643 42.0894L40.5676 25.521L36.634 0.650879H38.4846L43.5627 25.3911ZM38.8743 25.521L36.7151 41.9604L32.6252 41.4067L31.9739 0.650879H35.5754L38.8743 25.521Z" fill="#B3B5BA"/>
<path d="M15.4202 2.02051L7.88605 25.5215L13.8987 41.4326L9.70831 43.2295L0.20343 25.5215L11.011 0L15.4202 2.02051ZM17.2601 2.86426L11.011 25.5215L16.0882 40.4951L15.3519 40.8096L9.83917 25.5215L16.4857 2.50879L17.2601 2.86426Z" fill="#00C657"/>
<path d="M27.8074 29.2974L29.1091 49.2192L25.5974 48.9956L22.7292 29.1665L24.3748 6.38037H27.8074V29.2974ZM21.4275 29.1665L24.5339 48.9282L23.3103 48.8501L19.4744 29.2974L22.1335 6.38037H23.4529L21.4275 29.1665ZM18.0417 29.2974L22.2341 48.7827L20.906 48.6987L16.4792 29.2974L19.7341 6.38037H21.2068L18.0417 29.2974Z" fill="#0095FC"/>
<path d="M58.7966 30.2087L49.0309 50.0007L45.0417 48.1228L52.8063 30.0789L47.0319 9.11597L50.4636 7.29175L58.7966 30.2087ZM51.114 30.0789L44.0222 47.6433L42.3903 46.8757L47.7292 30.2087L44.3434 10.5466L45.9538 9.68921L51.114 30.0789Z" fill="#FF2726"/>
<path d="M79.6766 18.1602L86.9966 32.0002H83.7166L82.2766 29.1402H73.8966L72.4566 32.0002H69.1766L76.4966 18.1602H79.6766ZM80.9966 26.5402L78.0966 21.0602L75.1966 26.5402H80.9966ZM91.8708 18.1602L97.8508 25.8202L103.811 18.1602H106.751V32.0002H103.731V22.8202L98.6708 29.4202H97.0308L91.9508 22.8202V32.0002H88.9508V18.1602H91.8708ZM119.208 18.1602L126.528 32.0002H123.248L121.808 29.1402H113.428L111.988 32.0002H108.708L116.028 18.1602H119.208ZM120.528 26.5402L117.628 21.0602L114.728 26.5402H120.528ZM133.022 28.7602L132.282 29.3202H142.482V32.0002H127.822V29.3202L137.082 21.4202L137.842 20.8402H127.882V18.1602H142.282V20.8402L133.022 28.7602ZM151.429 17.9802H154.569C159.209 17.9802 161.949 20.7802 161.949 25.0602V25.0802C161.949 29.3802 159.209 32.1802 154.569 32.1802H151.429C146.809 32.1802 144.049 29.3802 144.049 25.0802V25.0602C144.049 20.7802 146.809 17.9802 151.429 17.9802ZM151.429 29.3802H154.569C157.369 29.3802 158.909 27.6802 158.909 25.0802V25.0602C158.909 22.4802 157.369 20.7802 154.569 20.7802H151.429C148.649 20.7802 147.089 22.4802 147.089 25.0602V25.0802C147.089 27.6802 148.649 29.3802 151.429 29.3802ZM176.763 27.3802V18.1602H179.783V32.0002H176.983L167.283 22.7802V32.0002H164.283V18.1602H167.083L176.763 27.3802ZM185.995 32.0002H182.935V18.1602H185.995V32.0002ZM198.446 18.1602L205.766 32.0002H202.486L201.046 29.1402H192.666L191.226 32.0002H187.946L195.266 18.1602H198.446ZM199.766 26.5402L196.866 21.0602L193.966 26.5402H199.766ZM216.62 32.0002H213.56V18.1602H216.62V32.0002ZM232.251 27.3802V18.1602H235.271V32.0002H232.471L222.771 22.7802V32.0002H219.771V18.1602H222.571L232.251 27.3802ZM240.603 18.1602L245.703 28.5402L250.803 18.1602H254.243L247.283 32.0002H244.103L237.143 18.1602H240.603ZM256.119 18.1602H269.059V20.9202H259.139V23.7402H268.039V26.4602H259.139V29.2402H269.059V32.0002H256.119V18.1602ZM285.225 20.2002L283.125 22.1002C282.405 21.0802 281.425 20.6402 279.845 20.6402H276.545C275.045 20.6402 274.165 21.1202 274.165 21.9602C274.165 22.6202 274.565 23.0802 276.085 23.3402L281.545 23.8802C284.545 24.3602 285.425 26.1802 285.405 28.1002C285.405 30.5602 283.445 32.1802 280.085 32.1802H276.705C273.625 32.1802 271.565 31.1202 270.685 29.1602L273.285 27.5202C274.005 29.0402 275.125 29.5402 276.745 29.5402H280.125C281.665 29.5402 282.445 29.0002 282.445 28.0602C282.445 27.1802 281.865 26.7402 280.625 26.5202L274.865 25.8402C272.165 25.3802 271.185 23.8402 271.185 22.0602C271.185 19.5202 273.165 17.9802 276.685 17.9802H279.925C282.465 17.9802 284.265 18.7802 285.225 20.2002ZM286.603 18.1602H301.023V21.0402H295.363V32.0002H292.283V21.0402H286.603V18.1602ZM306.23 32.0002H303.17V18.1602H306.23V32.0002ZM321.86 27.3802V18.1602H324.88V32.0002H322.08L312.38 22.7802V32.0002H309.38V18.1602H312.18L321.86 27.3802ZM343.213 19.6802L341.473 21.9202C340.553 21.1002 339.373 20.7802 337.773 20.7802H334.753C331.873 20.7802 330.253 22.4802 330.253 25.0602V25.0802C330.253 27.6402 331.853 29.3802 334.633 29.3802H337.513C339.253 29.3802 340.633 28.8802 340.993 27.7802V27.1002H337.053V24.6802H343.573V32.0002H341.733L341.573 30.4802C340.733 31.6802 339.273 32.1802 337.313 32.1802H334.433C329.933 32.1802 327.213 29.3602 327.213 25.0802V25.0602C327.213 20.8002 329.973 17.9802 334.753 17.9802H337.773C340.093 17.9802 341.873 18.4602 343.213 19.6802Z" fill="#090F1F"/>
</svg>
