<svg width="314" height="40" viewBox="0 0 314 40" fill="none" xmlns="http://www.w3.org/2000/svg">
<g clip-path="url(#clip0_14_1035)">
<path d="M16.7707 0L10.4859 4.01978V19.4052L16.7707 15.3859V0Z" fill="#0095FC"/>
<path d="M16.7482 20.5947L10.4628 24.614V39.9999L16.7482 35.9807V20.5947Z" fill="#090F1F"/>
<path d="M6.30519 34.5343L0 30.6022V15.7837L6.30519 11.8511V34.5343Z" fill="#00C657"/>
<path d="M20.9675 27.7899L27.2727 23.8578V9.03927L20.9675 5.10718V27.7899Z" fill="#FF2726"/>
</g>
<path d="M48.1527 13.16L55.4727 27H52.1927L50.7527 24.14H42.3727L40.9327 27H37.6527L44.9727 13.16H48.1527ZM49.4727 21.54L46.5727 16.06L43.6727 21.54H49.4727ZM60.347 13.16L66.327 20.82L72.287 13.16H75.227V27H72.207V17.82L67.147 24.42H65.507L60.427 17.82V27H57.427V13.16H60.347ZM87.684 13.16L95.004 27H91.724L90.284 24.14H81.904L80.464 27H77.184L84.504 13.16H87.684ZM89.004 21.54L86.104 16.06L83.204 21.54H89.004ZM101.498 23.76L100.758 24.32H110.958V27H96.2982V24.32L105.558 16.42L106.318 15.84H96.3582V13.16H110.758V15.84L101.498 23.76ZM119.905 12.98H123.045C127.685 12.98 130.425 15.78 130.425 20.06V20.08C130.425 24.38 127.685 27.18 123.045 27.18H119.905C115.285 27.18 112.525 24.38 112.525 20.08V20.06C112.525 15.78 115.285 12.98 119.905 12.98ZM119.905 24.38H123.045C125.845 24.38 127.385 22.68 127.385 20.08V20.06C127.385 17.48 125.845 15.78 123.045 15.78H119.905C117.125 15.78 115.565 17.48 115.565 20.06V20.08C115.565 22.68 117.125 24.38 119.905 24.38ZM145.239 22.38V13.16H148.259V27H145.459L135.759 17.78V27H132.759V13.16H135.559L145.239 22.38ZM154.471 27H151.411V13.16H154.471V27ZM166.922 13.16L174.242 27H170.962L169.522 24.14H161.142L159.702 27H156.422L163.742 13.16H166.922ZM168.242 21.54L165.342 16.06L162.442 21.54H168.242ZM185.096 27H182.036V13.16H185.096V27ZM200.727 22.38V13.16H203.747V27H200.947L191.247 17.78V27H188.247V13.16H191.047L200.727 22.38ZM209.08 13.16L214.18 23.54L219.28 13.16H222.72L215.76 27H212.58L205.62 13.16H209.08ZM224.595 13.16H237.535V15.92H227.615V18.74H236.515V21.46H227.615V24.24H237.535V27H224.595V13.16ZM253.701 15.2L251.601 17.1C250.881 16.08 249.901 15.64 248.321 15.64H245.021C243.521 15.64 242.641 16.12 242.641 16.96C242.641 17.62 243.041 18.08 244.561 18.34L250.021 18.88C253.021 19.36 253.901 21.18 253.881 23.1C253.881 25.56 251.921 27.18 248.561 27.18H245.181C242.101 27.18 240.041 26.12 239.161 24.16L241.761 22.52C242.481 24.04 243.601 24.54 245.221 24.54H248.601C250.141 24.54 250.921 24 250.921 23.06C250.921 22.18 250.341 21.74 249.101 21.52L243.341 20.84C240.641 20.38 239.661 18.84 239.661 17.06C239.661 14.52 241.641 12.98 245.161 12.98H248.401C250.941 12.98 252.741 13.78 253.701 15.2ZM255.079 13.16H269.499V16.04H263.839V27H260.759V16.04H255.079V13.16ZM274.706 27H271.646V13.16H274.706V27ZM290.337 22.38V13.16H293.357V27H290.557L280.857 17.78V27H277.857V13.16H280.657L290.337 22.38ZM311.689 14.68L309.949 16.92C309.029 16.1 307.849 15.78 306.249 15.78H303.229C300.349 15.78 298.729 17.48 298.729 20.06V20.08C298.729 22.64 300.329 24.38 303.109 24.38H305.989C307.729 24.38 309.109 23.88 309.469 22.78V22.1H305.529V19.68H312.049V27H310.209L310.049 25.48C309.209 26.68 307.749 27.18 305.789 27.18H302.909C298.409 27.18 295.689 24.36 295.689 20.08V20.06C295.689 15.8 298.449 12.98 303.229 12.98H306.249C308.569 12.98 310.349 13.46 311.689 14.68Z" fill="#090F1F"/>
<defs>
<clipPath id="clip0_14_1035">
<rect width="27.2727" height="40" fill="white"/>
</clipPath>
</defs>
</svg>
