<svg width="630" height="630" viewBox="0 0 630 630" fill="none" xmlns="http://www.w3.org/2000/svg">
<rect width="630" height="630" rx="100" fill="white"/>
<path d="M418.859 317.89L394.77 444.113L375.218 441.462L396.698 318.854L367.589 134.817H381.281L418.859 317.89ZM384.171 318.854L368.187 440.508L337.921 436.404L333.104 134.817H359.758L384.171 318.854Z" fill="#B3B5BA"/>
<path d="M210.608 144.957L154.849 318.854L199.352 436.604L168.338 449.896L98 318.854L177.974 130L210.608 144.957ZM224.224 151.198L177.974 318.854L215.552 429.661L210.105 431.994L169.302 318.854L218.493 148.571L224.224 151.198Z" fill="#00C657"/>
<path d="M302.271 346.798L311.905 494.22L285.916 492.57L264.691 345.834L276.87 177.215H302.271V346.798ZM255.056 345.834L278.049 492.07L268.992 491.495L240.604 346.798L260.279 177.215H270.044L255.056 345.834ZM230.005 346.798L261.032 490.989L251.202 490.366L218.442 346.798L242.531 177.215H253.428L230.005 346.798Z" fill="#0095FC"/>
<path d="M531.592 353.541L459.327 499.999L429.81 486.109L487.269 352.578L444.541 197.46L469.926 183.958L531.592 353.541ZM474.742 352.578L422.265 482.559L410.187 476.875L449.691 353.541L424.64 208.047L436.559 201.706L474.742 352.578Z" fill="#FF2726"/>
</svg>
