<svg width="867" height="867" viewBox="0 0 867 867" fill="none" xmlns="http://www.w3.org/2000/svg">
<rect x="1.92389" y="433.197" width="136" height="136" rx="14" transform="rotate(-45 1.92389 433.197)" stroke="white" stroke-width="2"/>
<rect x="113.647" y="544.919" width="136" height="136" rx="14" transform="rotate(-45 113.647 544.919)" stroke="white" stroke-width="2"/>
<rect x="225.37" y="433.197" width="136" height="136" rx="14" transform="rotate(-45 225.37 433.197)" stroke="white" stroke-width="2"/>
<rect x="113.647" y="321.474" width="136" height="136" rx="14" transform="rotate(-45 113.647 321.474)" stroke="white" stroke-width="2"/>
<rect x="225.37" y="657.072" width="136" height="136" rx="14" transform="rotate(-45 225.37 657.072)" stroke="white" stroke-width="2"/>
<rect x="337.093" y="768.795" width="136" height="136" rx="14" transform="rotate(-45 337.093 768.795)" stroke="white" stroke-width="2"/>
<rect x="448.816" y="657.072" width="136" height="136" rx="14" transform="rotate(-45 448.816 657.072)" stroke="white" stroke-width="2"/>
<rect x="337.093" y="545.349" width="136" height="136" rx="14" transform="rotate(-45 337.093 545.349)" stroke="white" stroke-width="2"/>
<rect x="225.155" y="209.536" width="136" height="136" rx="14" transform="rotate(-45 225.155 209.536)" stroke="white" stroke-width="2"/>
<rect x="336.878" y="321.259" width="136" height="136" rx="14" transform="rotate(-45 336.878 321.259)" stroke="white" stroke-width="2"/>
<rect x="448.601" y="209.536" width="136" height="136" rx="14" transform="rotate(-45 448.601 209.536)" stroke="white" stroke-width="2"/>
<rect x="336.878" y="97.8132" width="136" height="136" rx="14" transform="rotate(-45 336.878 97.8132)" stroke="white" stroke-width="2"/>
<rect x="448.601" y="433.411" width="136" height="136" rx="14" transform="rotate(-45 448.601 433.411)" stroke="white" stroke-width="2"/>
<rect x="560.324" y="545.134" width="136" height="136" rx="14" transform="rotate(-45 560.324 545.134)" stroke="white" stroke-width="2"/>
<rect x="672.047" y="433.411" width="136" height="136" rx="14" transform="rotate(-45 672.047 433.411)" stroke="white" stroke-width="2"/>
<rect x="560.324" y="321.688" width="136" height="136" rx="14" transform="rotate(-45 560.324 321.688)" stroke="white" stroke-width="2"/>
</svg>
