<svg width="59" height="50" viewBox="0 0 59 50" fill="none" xmlns="http://www.w3.org/2000/svg">
<path d="M43.5627 25.3911L40.3069 42.4478L37.6643 42.0894L40.5676 25.521L36.634 0.650879H38.4846L43.5627 25.3911ZM38.8743 25.521L36.7151 41.9604L32.6252 41.4067L31.9739 0.650879H35.5754L38.8743 25.521Z" fill="#B3B5BA"/>
<path d="M15.4202 2.02051L7.88605 25.5215L13.8987 41.4326L9.70831 43.2295L0.20343 25.5215L11.011 0L15.4202 2.02051ZM17.2601 2.86426L11.011 25.5215L16.0882 40.4951L15.3519 40.8096L9.83917 25.5215L16.4857 2.50879L17.2601 2.86426Z" fill="#00C657"/>
<path d="M27.8074 29.2974L29.1091 49.2192L25.5974 48.9956L22.7292 29.1665L24.3748 6.38037H27.8074V29.2974ZM21.4275 29.1665L24.5339 48.9282L23.3103 48.8501L19.4744 29.2974L22.1335 6.38037H23.4529L21.4275 29.1665ZM18.0417 29.2974L22.2341 48.7827L20.906 48.6987L16.4792 29.2974L19.7341 6.38037H21.2068L18.0417 29.2974Z" fill="#0095FC"/>
<path d="M58.7966 30.2087L49.0309 50.0007L45.0417 48.1228L52.8063 30.0789L47.0319 9.11597L50.4636 7.29175L58.7966 30.2087ZM51.114 30.0789L44.0222 47.6433L42.3903 46.8757L47.7292 30.2087L44.3434 10.5466L45.9538 9.68921L51.114 30.0789Z" fill="#FF2726"/>
</svg>
